<svg version="1.1" id="Layer_1" xmlns="http://www.w3.org/2000/svg" xmlns:xlink="http://www.w3.org/1999/xlink" x="0px" y="0px"
	 width="100%" viewBox="0 0 256 256" enable-background="new 0 0 256 256" xml:space="preserve">
<path fill="#07409D" opacity="1.000000" stroke="none" 
	d="
M0.999999,142.000000 
	C1.000000,95.645775 1.000000,49.291542 1.468622,2.461979 
	C38.631851,1.978627 75.326454,1.970610 112.486893,1.968108 
	C118.631981,1.993022 124.311256,2.012421 129.724335,2.286128 
	C124.773750,3.395383 120.010284,3.959268 115.431694,5.203506 
	C112.160530,6.092449 107.196136,7.167767 106.353195,9.419794 
	C103.344536,17.457806 93.761887,20.618231 92.294960,29.541056 
	C92.119926,30.605707 90.286110,31.709234 88.993698,32.227940 
	C80.731621,35.543877 78.862099,43.971531 74.806511,50.427792 
	C70.681053,56.995274 68.368996,64.676308 64.640053,71.530914 
	C63.130390,74.306015 59.898838,76.113594 57.592731,78.498650 
	C56.356434,79.777267 55.413960,81.341682 54.351669,82.786514 
	C51.919655,86.094330 50.181469,90.527756 46.941521,92.512451 
	C36.581512,98.858620 31.913679,109.947449 24.006971,118.273186 
	C17.182823,125.458977 10.704509,132.972427 3.997391,140.271240 
	C3.252867,141.081467 2.011138,141.434784 0.999999,142.000000 
z"/>
<path fill="#083A9A" opacity="1.000000" stroke="none" 
	d="
M0.999999,142.468658 
	C2.011138,141.434784 3.252867,141.081467 3.997391,140.271240 
	C10.704509,132.972427 17.182823,125.458977 24.006971,118.273186 
	C31.913679,109.947449 36.581512,98.858620 46.941521,92.512451 
	C50.181469,90.527756 51.919655,86.094330 54.351669,82.786514 
	C55.413960,81.341682 56.356434,79.777267 57.592731,78.498650 
	C59.898838,76.113594 63.130390,74.306015 64.640053,71.530914 
	C68.368996,64.676308 70.681053,56.995274 74.806511,50.427792 
	C78.862099,43.971531 80.731621,35.543877 88.993698,32.227940 
	C90.286110,31.709234 92.119926,30.605707 92.294960,29.541056 
	C93.761887,20.618231 103.344536,17.457806 106.353195,9.419794 
	C107.196136,7.167767 112.160530,6.092449 115.431694,5.203506 
	C120.010284,3.959268 124.773750,3.395383 130.193939,2.275849 
	C151.608871,2.021536 172.287994,2.031809 192.715424,2.292453 
	C188.282303,3.368749 184.132889,4.488501 179.911591,4.948618 
	C174.222748,5.568694 168.682358,7.056375 165.574905,11.843490 
	C162.384705,16.758043 160.173538,22.023664 155.797882,26.455286 
	C152.021942,30.279518 150.488937,36.300545 145.005142,38.986279 
	C144.252151,39.355057 143.791183,40.528301 143.415985,41.421879 
	C142.199051,44.320251 141.084900,47.261780 139.646118,50.142807 
	C138.895996,50.360291 138.430893,50.621647 137.598907,50.837559 
	C132.527771,47.274761 127.163940,49.395882 122.422096,49.920391 
	C115.229500,50.715984 109.322769,55.029339 104.599602,61.154221 
	C102.501221,64.872452 100.678719,68.390770 98.888855,71.950134 
	C98.921494,71.991180 99.003601,71.925919 98.776131,72.017120 
	C98.229713,72.300186 98.097206,72.580246 98.074356,73.323654 
	C96.838341,74.857536 95.885468,76.542145 94.486877,77.091011 
	C84.186096,81.133461 76.372047,87.329155 74.261627,99.382172 
	C74.144646,101.861725 74.156303,103.918655 74.110764,106.387314 
	C74.654335,109.389282 75.255104,111.979530 75.863121,114.908554 
	C75.973183,116.144600 76.075989,117.041878 75.868530,118.099747 
	C74.573616,118.880692 73.527275,119.421806 72.613533,120.133232 
	C58.994263,130.737015 45.229290,141.163483 31.864481,152.079605 
	C26.276779,156.643539 21.489124,162.201950 16.442926,167.410156 
	C9.902373,174.160690 4.454710,181.615189 1.991904,190.899139 
	C1.879222,191.323914 1.340366,191.635620 1.000000,192.000000 
	C1.000000,175.645767 1.000000,159.291550 0.999999,142.468658 
z"/>
<path fill="#0D2695" opacity="1.000000" stroke="none" 
	d="
M82.000000,257.000000 
	C70.312439,257.000000 58.624878,257.000000 46.549686,256.659851 
	C47.344120,254.765396 48.277775,252.902725 49.753967,251.713531 
	C54.531681,247.864731 59.794960,244.583221 64.353088,240.504196 
	C76.203148,229.899658 87.807159,219.018845 99.446838,208.181122 
	C104.217453,203.739197 108.821342,199.118454 113.513214,194.591629 
	C115.271317,192.895370 117.020889,191.186234 118.849754,189.568207 
	C122.554489,186.290512 126.310715,183.071014 130.407837,179.855011 
	C133.086548,179.053146 135.798981,177.008774 137.648956,177.611526 
	C144.475525,179.835678 143.006683,175.431351 142.931244,171.451599 
	C143.040512,169.357285 143.114288,167.680756 143.479889,166.118332 
	C145.108124,166.823517 146.444565,167.414612 147.827576,168.448807 
	C148.230728,171.966629 148.587311,175.041336 149.222717,178.175110 
	C150.632156,178.158417 151.762756,178.082687 153.030853,177.631256 
	C153.426437,175.971924 153.832336,174.697433 153.912628,173.402756 
	C154.094070,170.477829 154.852783,168.187881 158.382751,168.131516 
	C161.873047,168.075806 162.816788,170.179733 163.005859,173.202408 
	C163.106689,174.814651 163.644821,176.399567 164.231491,178.042755 
	C164.643387,178.072845 164.809402,178.056961 165.374634,178.076096 
	C166.572968,178.070923 167.372055,178.030716 168.300339,177.774994 
	C168.613571,177.279724 168.797607,176.999985 168.981430,176.520050 
	C168.981216,176.319855 169.093292,175.935455 169.224457,175.550781 
	C169.615631,168.438278 169.875641,161.710480 170.438354,154.846802 
	C171.303192,154.357651 172.058334,154.134933 172.398788,153.631699 
	C178.315384,144.886185 186.517624,139.045746 196.016495,134.789001 
	C197.048569,134.326492 197.898026,133.429001 198.787628,132.680328 
	C207.132889,125.657196 215.444031,118.593269 223.821518,111.608902 
	C226.364136,109.489105 229.381882,107.869637 231.658981,105.515152 
	C236.718094,100.284088 241.411316,94.701073 246.320450,89.322464 
	C250.417099,84.834015 250.445358,84.883278 254.349670,89.853043 
	C254.739944,90.349785 255.428345,90.612274 255.981827,91.453163 
	C255.982101,105.276550 255.978928,118.630257 255.683136,131.846008 
	C253.358658,130.692245 250.299194,128.263184 249.453201,128.878326 
	C240.582397,135.328369 231.655945,141.823456 223.630920,149.261948 
	C219.836639,152.778915 217.955917,158.360321 215.033340,162.702133 
	C211.991486,159.763245 208.979019,157.773041 204.719269,158.793686 
	C201.893402,159.470779 198.957153,159.687164 195.884476,160.316284 
	C195.433548,167.011490 195.168472,173.500229 194.506195,180.024780 
	C190.434937,181.403320 186.690842,182.583130 183.102798,184.125885 
	C177.348404,186.600082 171.694702,189.308853 166.004440,191.931473 
	C164.512421,192.619141 162.793396,193.070862 161.603439,194.115082 
	C154.637039,200.228104 148.065125,206.819550 140.845871,212.608292 
	C131.855499,219.817154 122.467415,226.546463 113.063911,233.219086 
	C103.492737,240.010712 93.656754,246.428543 84.048210,253.168976 
	C82.990280,253.911148 82.665062,255.697800 82.000000,257.000000 
M173.265320,172.589676 
	C176.979950,178.704346 180.364670,180.331696 185.544647,178.493484 
	C190.909485,176.589676 193.177612,172.777222 192.276703,166.286240 
	C191.362915,160.213699 187.942429,159.422363 181.311844,159.126129 
	C176.259125,158.900391 173.614319,162.131927 172.664948,168.817917 
	C172.806870,169.562332 172.948776,170.306747 173.089966,171.485565 
	C173.089966,171.485565 173.162842,171.913803 173.265320,172.589676 
z"/>
<path fill="#0E2295" opacity="1.000000" stroke="none" 
	d="
M82.468658,257.000000 
	C82.665062,255.697800 82.990280,253.911148 84.048210,253.168976 
	C93.656754,246.428543 103.492737,240.010712 113.063911,233.219086 
	C122.467415,226.546463 131.855499,219.817154 140.845871,212.608292 
	C148.065125,206.819550 154.637039,200.228104 161.603439,194.115082 
	C162.793396,193.070862 164.512421,192.619141 166.004440,191.931473 
	C171.694702,189.308853 177.348404,186.600082 183.102798,184.125885 
	C186.690842,182.583130 190.434937,181.403320 194.534180,180.415924 
	C195.323288,182.510391 195.687195,184.249542 196.452911,185.982574 
	C202.790680,186.799683 199.788361,180.905640 201.934753,178.988159 
	C210.438400,179.727692 212.599518,178.595642 215.827118,171.458954 
	C215.612854,168.708679 215.300537,166.360352 215.036987,163.759232 
	C215.126572,163.339752 215.167389,163.173065 215.208191,163.006378 
	C217.955917,158.360321 219.836639,152.778915 223.630920,149.261948 
	C231.655945,141.823456 240.582397,135.328369 249.453201,128.878326 
	C250.299194,128.263184 253.358658,130.692245 255.688293,132.292847 
	C255.997437,135.257980 256.008789,137.638306 256.018799,140.485397 
	C256.006317,149.300339 255.995148,157.648529 255.699951,165.836761 
	C253.156708,163.889633 250.895050,163.087631 248.155869,164.924225 
	C242.298080,168.851852 236.119980,172.336121 230.481491,176.548645 
	C221.460876,183.287949 212.826767,190.541855 203.926193,197.445343 
	C196.748184,203.012802 189.606644,208.662155 182.096909,213.756241 
	C175.830490,218.006958 168.919083,221.294754 162.530045,225.379272 
	C148.528610,234.330414 134.649200,243.474014 120.803993,252.665634 
	C119.258148,253.691910 118.254890,255.535461 117.000000,257.000000 
	C105.645775,257.000000 94.291542,257.000000 82.468658,257.000000 
z"/>
<path fill="#0F1E95" opacity="1.000000" stroke="none" 
	d="
M117.468658,257.000000 
	C118.254890,255.535461 119.258148,253.691910 120.803993,252.665634 
	C134.649200,243.474014 148.528610,234.330414 162.530045,225.379272 
	C168.919083,221.294754 175.830490,218.006958 182.096909,213.756241 
	C189.606644,208.662155 196.748184,203.012802 203.926193,197.445343 
	C212.826767,190.541855 221.460876,183.287949 230.481491,176.548645 
	C236.119980,172.336121 242.298080,168.851852 248.155869,164.924225 
	C250.895050,163.087631 253.156708,163.889633 255.704727,166.305786 
	C255.990570,178.954056 255.987640,190.973373 255.607666,202.907532 
	C249.134979,201.657684 243.928589,203.411392 239.001572,207.105103 
	C233.583664,211.166824 227.959213,214.996445 222.172089,218.511185 
	C215.029831,222.848953 207.553665,226.633713 200.359390,230.889984 
	C194.247406,234.505966 188.411469,238.587982 182.305725,242.215210 
	C175.764893,246.100906 169.005203,249.617874 162.457748,253.492966 
	C161.338623,254.155319 160.804428,255.805939 160.000000,257.000000 
	C145.979111,257.000000 131.958206,257.000000 117.468658,257.000000 
z"/>
<path fill="#101995" opacity="1.000000" stroke="none" 
	d="
M160.468658,257.000000 
	C160.804428,255.805939 161.338623,254.155319 162.457748,253.492966 
	C169.005203,249.617874 175.764893,246.100906 182.305725,242.215210 
	C188.411469,238.587982 194.247406,234.505966 200.359390,230.889984 
	C207.553665,226.633713 215.029831,222.848953 222.172089,218.511185 
	C227.959213,214.996445 233.583664,211.166824 239.001572,207.105103 
	C243.928589,203.411392 249.134979,201.657684 255.611526,203.377014 
	C255.994965,221.621078 255.997482,239.310547 256.000000,257.000000 
	C224.312439,257.000000 192.624878,257.000000 160.468658,257.000000 
z"/>
<path fill="#0A3599" opacity="1.000000" stroke="none" 
	d="
M1.000000,192.468658 
	C1.340366,191.635620 1.879222,191.323914 1.991904,190.899139 
	C4.454710,181.615189 9.902373,174.160690 16.442926,167.410156 
	C21.489124,162.201950 26.276779,156.643539 31.864481,152.079605 
	C45.229290,141.163483 58.994263,130.737015 72.613533,120.133232 
	C73.527275,119.421806 74.573616,118.880692 76.114166,118.227844 
	C77.068840,118.578842 77.467636,118.962357 77.936806,119.659744 
	C78.995338,121.358955 79.983490,122.744286 81.123001,124.420052 
	C83.511719,126.492599 85.749084,128.274719 88.164520,130.254547 
	C88.930771,130.840958 89.518959,131.229660 89.922501,131.928986 
	C86.954094,137.801147 82.496994,141.513550 77.142639,144.573212 
	C74.413177,146.132919 72.381554,148.913834 69.924583,151.445374 
	C69.639893,152.809891 69.465118,153.871765 69.037636,155.135376 
	C67.150230,155.762650 65.515533,156.188187 64.076889,156.334076 
	C65.619553,153.797928 64.870964,151.537476 62.523926,151.719360 
	C57.170082,152.134247 51.028034,149.438126 46.418915,155.146912 
	C42.987053,159.017349 42.572674,163.354248 43.138168,168.242523 
	C43.449352,169.581375 43.744747,170.599640 44.207146,171.851044 
	C44.600807,172.391296 44.827461,172.698425 45.025520,172.998962 
	C44.996925,172.992371 45.035759,172.948181 44.970268,173.335602 
	C43.195724,182.894547 40.062481,191.347046 32.762512,197.682205 
	C26.993603,202.688644 21.335539,207.833023 15.401424,212.635880 
	C10.116543,216.913284 5.599611,221.567932 3.680258,228.342926 
	C3.206772,230.014252 1.915392,231.453873 1.000000,233.000000 
	C1.000000,219.645767 1.000000,206.291550 1.000000,192.468658 
z"/>
<path fill="#0C2B96" opacity="1.000000" stroke="none" 
	d="
M130.045700,179.827515 
	C126.310715,183.071014 122.554489,186.290512 118.849754,189.568207 
	C117.020889,191.186234 115.271317,192.895370 113.513214,194.591629 
	C108.821342,199.118454 104.217453,203.739197 99.446838,208.181122 
	C87.807159,219.018845 76.203148,229.899658 64.353088,240.504196 
	C59.794960,244.583221 54.531681,247.864731 49.753967,251.713531 
	C48.277775,252.902725 47.344120,254.765396 46.081028,256.659851 
	C37.979099,257.000000 29.958199,257.000000 21.513340,256.635132 
	C22.358816,254.670715 23.431927,252.844223 24.949432,251.531403 
	C26.685547,250.029449 29.060781,249.247635 30.735535,247.696457 
	C39.983307,239.131042 49.407501,230.722778 58.178570,221.685455 
	C66.825584,212.775940 74.258324,202.647827 83.224457,194.104492 
	C87.942268,189.609146 90.400452,185.286835 90.287926,178.865356 
	C93.003090,176.085175 95.430878,173.499390 97.954208,170.529037 
	C98.704765,168.735611 99.359779,167.326736 100.335968,166.220856 
	C101.169815,168.974213 101.682487,171.424561 102.253052,174.210281 
	C104.029610,178.770660 107.036194,180.148911 111.382660,178.729172 
	C112.294182,178.431442 113.322624,178.146835 114.241043,178.271088 
	C120.130096,179.067886 120.124947,179.105927 119.896149,172.720215 
	C119.920494,172.497467 119.882195,172.050949 119.934135,171.672028 
	C119.954758,170.530670 119.923439,169.768219 119.930382,168.610321 
	C119.297470,165.815598 118.626297,163.416336 118.017181,160.766144 
	C117.387917,159.680649 116.696587,158.846069 116.001511,158.005051 
	C115.997772,157.998596 115.984535,157.987274 116.139977,157.691986 
	C118.197044,156.264648 120.098671,155.132629 122.200478,154.269012 
	C124.352386,156.066467 126.304108,157.595535 128.065536,159.412598 
	C126.498116,162.104492 125.120987,164.508423 123.804474,166.982635 
	C123.865105,167.052917 124.009659,166.936432 123.802948,167.007446 
	C123.370277,167.287140 123.248650,167.545013 123.166428,168.246521 
	C122.748177,174.026062 126.680634,176.750671 130.045700,179.827515 
z"/>
<path fill="#0A3097" opacity="1.000000" stroke="none" 
	d="
M63.880836,156.613708 
	C65.515533,156.188187 67.150230,155.762650 69.125267,155.519043 
	C69.561798,157.864304 69.657990,160.027618 69.712357,162.413055 
	C69.662903,162.958817 69.779510,163.228821 69.930130,163.828278 
	C69.827583,164.473389 69.815254,164.735443 69.687111,165.384583 
	C69.666481,170.002228 69.761673,174.232773 69.714966,178.743042 
	C71.417801,185.427048 68.514999,190.543823 64.828102,195.240387 
	C60.074005,201.296417 56.257103,208.188690 48.932175,211.985794 
	C46.286594,213.357208 44.367485,216.190094 42.224335,218.457657 
	C38.276646,222.634537 34.675404,227.178650 30.447836,231.042374 
	C23.149652,237.712509 15.360356,243.845383 8.065055,250.518463 
	C6.432810,252.011490 5.990267,254.805130 5.000002,257.000000 
	C3.687873,257.000000 2.375746,257.000000 1.000000,257.000000 
	C1.000000,249.312546 1.000000,241.624954 1.000000,233.468689 
	C1.915392,231.453873 3.206772,230.014252 3.680258,228.342926 
	C5.599611,221.567932 10.116543,216.913284 15.401424,212.635880 
	C21.335539,207.833023 26.993603,202.688644 32.762512,197.682205 
	C40.062481,191.347046 43.195724,182.894547 45.186203,173.447296 
	C45.467632,173.171585 45.920166,173.349487 46.142776,173.588867 
	C51.015518,180.162094 60.276226,180.957458 65.169159,174.638153 
	C63.119102,174.372269 61.490391,174.328796 59.955189,173.927567 
	C56.586060,173.047058 53.264267,171.985428 49.794106,170.700790 
	C49.081047,169.250671 48.497025,168.097519 47.932915,166.547668 
	C49.012749,163.222427 50.072666,160.293900 51.478077,157.204224 
	C55.756519,154.481277 59.785606,154.618851 63.880836,156.613708 
z"/>
<path fill="#0B2D96" opacity="1.000000" stroke="none" 
	d="
M5.466864,257.000000 
	C5.990267,254.805130 6.432810,252.011490 8.065055,250.518463 
	C15.360356,243.845383 23.149652,237.712509 30.447836,231.042374 
	C34.675404,227.178650 38.276646,222.634537 42.224335,218.457657 
	C44.367485,216.190094 46.286594,213.357208 48.932175,211.985794 
	C56.257103,208.188690 60.074005,201.296417 64.828102,195.240387 
	C68.514999,190.543823 71.417801,185.427048 70.047119,178.743683 
	C73.200012,178.609482 74.366890,177.339401 74.177811,174.674347 
	C74.040977,172.745728 74.021133,170.808792 73.978363,168.447144 
	C74.096092,166.015274 74.184578,164.011810 74.607948,162.115372 
	C76.184181,162.887451 77.425529,163.552505 78.537880,164.547729 
	C78.334351,165.576935 78.259811,166.275955 78.122261,167.383972 
	C78.389343,175.842468 81.680016,178.947266 90.000549,179.059738 
	C90.400452,185.286835 87.942268,189.609146 83.224457,194.104492 
	C74.258324,202.647827 66.825584,212.775940 58.178570,221.685455 
	C49.407501,230.722778 39.983307,239.131042 30.735535,247.696457 
	C29.060781,249.247635 26.685547,250.029449 24.949432,251.531403 
	C23.431927,252.844223 22.358816,254.670715 21.044691,256.635132 
	C15.977907,257.000000 10.955815,257.000000 5.466864,257.000000 
z"/>
<path fill="#071D90" opacity="1.000000" stroke="none" 
	d="
M256.020142,140.018646 
	C256.008789,137.638306 255.997437,135.257980 255.980911,132.430801 
	C255.978928,118.630257 255.982101,105.276550 255.985229,90.996948 
	C255.980911,86.711304 255.976639,83.351562 255.977798,79.555511 
	C255.980255,77.082146 255.977295,75.045074 255.974182,72.673553 
	C255.973297,71.893181 255.972565,71.447250 255.977722,70.532455 
	C255.984070,61.704605 255.984528,53.345608 255.987717,44.518803 
	C255.998428,33.631969 256.009705,23.212954 256.013489,12.793932 
	C256.017426,1.916257 256.014282,1.916256 244.506729,2.034878 
	C232.368515,2.005975 220.697296,1.982041 209.019592,1.718578 
	C209.013107,1.479051 209.000000,1.000000 209.000000,1.000000 
	C224.962479,1.000000 240.924973,1.000000 257.000000,1.000000 
	C257.000000,47.020836 257.000000,93.041763 256.755005,139.535522 
	C256.510040,140.008377 256.020142,140.018646 256.020142,140.018646 
z"/>
<path fill="#0A1191" opacity="1.000000" stroke="none" 
	d="
M256.018799,140.485397 
	C256.020142,140.018646 256.510040,140.008377 256.755005,140.004181 
	C257.000000,179.000000 257.000000,218.000000 256.500000,257.000000 
	C255.997482,239.310547 255.994965,221.621078 255.988586,203.462158 
	C255.987640,190.973373 255.990570,178.954056 255.988739,166.465729 
	C255.995148,157.648529 256.006317,149.300339 256.018799,140.485397 
z"/>
<path fill="#033096" opacity="1.000000" stroke="none" 
	d="
M112.021065,1.962594 
	C75.326454,1.970610 38.631851,1.978627 1.468622,1.993322 
	C2.326797,1.666667 3.653159,1.044180 4.980453,1.042189 
	C40.341137,0.989146 75.701920,1.000000 111.536163,1.240658 
	C112.009644,1.481316 112.021065,1.962594 112.021065,1.962594 
z"/>
<path fill="#032791" opacity="1.000000" stroke="none" 
	d="
M112.486893,1.968108 
	C112.021065,1.962594 112.009644,1.481316 112.004822,1.240658 
	C144.020889,1.000000 176.041794,1.000000 208.531342,1.000000 
	C209.000000,1.000000 209.013107,1.479051 208.549927,1.728888 
	C203.046860,1.999845 198.006973,2.020964 192.967102,2.042083 
	C172.287994,2.031809 151.608871,2.021536 130.460144,2.021541 
	C124.311256,2.012421 118.631981,1.993022 112.486893,1.968108 
z"/>
<path fill="#0A3599" opacity="1.000000" stroke="none" 
	d="
M192.715424,2.292453 
	C198.006973,2.020964 203.046860,1.999845 208.556396,1.968416 
	C220.697296,1.982041 232.368515,2.005975 244.260101,2.284772 
	C242.466049,3.221417 240.499405,4.209636 238.429031,4.532275 
	C229.146851,5.978776 220.788467,8.808709 216.138214,17.933434 
	C215.776550,18.643082 215.140854,19.455379 214.444672,19.713636 
	C209.180176,21.666536 206.983856,26.422829 204.048950,30.598099 
	C199.208527,37.484173 193.773972,43.972492 189.221054,51.035366 
	C184.368469,58.563107 180.215149,66.544388 175.821854,74.364365 
	C173.254028,78.935051 168.612000,80.111557 164.761200,76.703918 
	C164.320175,75.262527 164.067596,74.118393 163.751495,72.691261 
	C163.193024,71.597214 162.698044,70.786179 162.162933,69.629730 
	C161.770172,68.477142 161.417572,67.669975 161.087799,66.918732 
	C161.110657,66.974670 161.222534,66.928955 161.149017,66.595261 
	C159.752289,64.499153 158.429077,62.736744 156.954391,60.669010 
	C154.824448,58.916607 152.845993,57.469528 150.800781,55.683243 
	C148.179352,54.177406 145.624664,53.010784 142.905991,51.573883 
	C141.805054,50.931301 140.868103,50.558998 139.931168,50.186691 
	C141.084900,47.261780 142.199051,44.320251 143.415985,41.421879 
	C143.791183,40.528301 144.252151,39.355057 145.005142,38.986279 
	C150.488937,36.300545 152.021942,30.279518 155.797882,26.455286 
	C160.173538,22.023664 162.384705,16.758043 165.574905,11.843490 
	C168.682358,7.056375 174.222748,5.568694 179.911591,4.948618 
	C184.132889,4.488501 188.282303,3.368749 192.715424,2.292453 
z"/>
<path fill="#01B1F7" opacity="1.000000" stroke="none" 
	d="
M74.390266,98.959557 
	C76.372047,87.329155 84.186096,81.133461 94.486877,77.091011 
	C95.885468,76.542145 96.838341,74.857536 98.221382,73.157318 
	C98.631676,72.386147 98.817818,72.156174 99.003601,71.925919 
	C99.003601,71.925919 98.921494,71.991180 99.283424,71.938194 
	C102.237450,70.939468 104.894508,70.139587 107.409004,69.019623 
	C113.988541,66.089104 120.505806,63.018726 127.131104,60.313080 
	C127.401695,61.453960 127.589066,62.285854 127.777344,63.218445 
	C127.783363,63.520729 127.802078,63.721146 127.952988,64.218628 
	C128.238968,64.910042 128.406357,65.303223 128.177765,65.796204 
	C115.112755,70.181175 105.067383,78.775322 94.279266,86.177605 
	C87.784096,90.634277 81.028709,94.711700 74.390266,98.959557 
z"/>
<path fill="#0589ED" opacity="1.000000" stroke="none" 
	d="
M77.866425,119.345863 
	C77.467636,118.962357 77.068840,118.578842 76.424423,118.067245 
	C76.075989,117.041878 75.973183,116.144600 76.036888,114.579407 
	C81.451385,109.329399 86.307343,104.171051 92.025894,100.280670 
	C105.488258,91.122101 119.362228,82.568550 133.324646,73.946297 
	C134.396423,75.036682 135.213226,75.950989 135.817978,77.138115 
	C133.979691,78.532883 132.321060,79.611038 130.733353,80.785080 
	C126.138603,84.182663 121.572372,87.618813 116.756470,91.262192 
	C114.543411,92.700607 112.568840,93.916656 110.173584,95.142181 
	C106.876930,96.275658 103.641579,96.895111 101.202522,98.632477 
	C96.629753,101.889702 92.441025,105.707764 88.237892,109.455536 
	C84.674355,112.633003 81.315720,116.040276 77.866425,119.345863 
z"/>
<path fill="#03A2F4" opacity="1.000000" stroke="none" 
	d="
M74.261627,99.382172 
	C81.028709,94.711700 87.784096,90.634277 94.279266,86.177605 
	C105.067383,78.775322 115.112755,70.181175 128.300629,66.065872 
	C129.279099,67.297462 129.738724,68.359200 129.907959,69.655396 
	C114.407478,80.043396 99.220879,90.232422 83.967995,100.321228 
	C80.828255,102.397942 77.441078,104.100555 74.167953,105.975601 
	C74.156303,103.918655 74.144646,101.861725 74.261627,99.382172 
z"/>
<path fill="#0494F0" opacity="1.000000" stroke="none" 
	d="
M74.110764,106.387314 
	C77.441078,104.100555 80.828255,102.397942 83.967995,100.321228 
	C99.220879,90.232422 114.407478,80.043396 130.133240,69.896118 
	C131.450607,70.917664 132.252304,71.932953 133.055389,73.153870 
	C133.056778,73.359489 133.069672,73.770233 133.069672,73.770233 
	C119.362228,82.568550 105.488258,91.122101 92.025894,100.280670 
	C86.307343,104.171051 81.451385,109.329399 76.029633,114.240631 
	C75.255104,111.979530 74.654335,109.389282 74.110764,106.387314 
z"/>
<path fill="#00C6FB" opacity="1.000000" stroke="none" 
	d="
M104.875481,60.954304 
	C109.322769,55.029339 115.229500,50.715984 122.422096,49.920391 
	C127.163940,49.395882 132.527771,47.274761 137.460648,51.148296 
	C135.128204,53.590321 132.567139,55.676159 129.668274,57.767708 
	C128.880157,57.757244 128.429794,57.741066 127.740738,57.517632 
	C123.890770,57.744541 120.260429,58.061375 116.673363,58.644367 
	C112.720016,59.286892 108.806404,60.173832 104.875481,60.954304 
z"/>
<path fill="#00BCFA" opacity="1.000000" stroke="none" 
	d="
M104.599602,61.154221 
	C108.806404,60.173832 112.720016,59.286892 116.673363,58.644367 
	C120.260429,58.061375 123.890770,57.744541 127.600677,57.792809 
	C127.482178,58.851532 127.265038,59.427814 127.047890,60.004097 
	C120.505806,63.018726 113.988541,66.089104 107.409004,69.019623 
	C104.894508,70.139587 102.237450,70.939468 99.250786,71.897148 
	C100.678719,68.390770 102.501221,64.872452 104.599602,61.154221 
z"/>
<path fill="#00BCFA" opacity="1.000000" stroke="none" 
	d="
M130.006058,57.761993 
	C132.567139,55.676159 135.128204,53.590321 137.827545,51.193745 
	C138.430893,50.621647 138.895996,50.360291 139.646118,50.142811 
	C140.868103,50.558998 141.805054,50.931301 142.765060,51.897427 
	C140.138260,54.865997 137.488388,57.240749 134.617706,59.469322 
	C134.260590,59.210960 134.124268,59.098778 133.880615,58.949944 
	C133.555328,58.850826 133.332977,58.814484 132.785950,58.736111 
	C131.645782,58.365978 130.825928,58.063988 130.006058,57.761993 
z"/>
<path fill="#00BCFA" opacity="1.000000" stroke="none" 
	d="
M98.776131,72.017120 
	C98.817818,72.156174 98.631676,72.386147 98.298157,72.782158 
	C98.097206,72.580246 98.229713,72.300186 98.776131,72.017120 
z"/>
<path fill="#0C2B96" opacity="1.000000" stroke="none" 
	d="
M255.971848,71.001320 
	C255.972565,71.447250 255.973297,71.893181 255.684814,72.834793 
	C252.302795,75.835358 252.747726,78.033928 255.972382,79.991814 
	C255.976639,83.351562 255.980911,86.711304 255.981781,90.527267 
	C255.428345,90.612274 254.739944,90.349785 254.349670,89.853043 
	C250.445358,84.883278 250.417099,84.834015 246.320450,89.322464 
	C241.411316,94.701073 236.718094,100.284088 231.658981,105.515152 
	C229.381882,107.869637 226.364136,109.489105 223.821518,111.608902 
	C215.444031,118.593269 207.132889,125.657196 198.787628,132.680328 
	C197.898026,133.429001 197.048569,134.326492 196.016495,134.789001 
	C186.517624,139.045746 178.315384,144.886185 172.398788,153.631699 
	C172.058334,154.134933 171.303192,154.357651 170.329285,154.590668 
	C169.642532,153.989227 169.367554,153.508026 169.028702,152.837158 
	C168.964828,152.647507 168.953506,152.247421 168.749603,152.059509 
	C168.342438,151.562836 168.139191,151.254089 167.979126,151.008423 
	C168.022308,151.071503 167.896164,151.157913 167.872375,150.865082 
	C167.488556,149.902664 167.128494,149.233078 166.768433,148.563492 
	C166.190796,149.407913 165.613159,150.252335 164.844788,151.457016 
	C164.378265,155.165863 164.102478,158.514465 163.390320,161.960785 
	C159.436432,161.732193 155.918930,161.405884 152.490570,160.651154 
	C152.575027,159.059326 152.570328,157.895889 152.655365,156.354797 
	C152.796707,154.374100 152.848312,152.771088 152.795059,150.860229 
	C149.731018,146.748032 148.788666,149.103577 148.035217,152.043976 
	C148.023254,152.015366 148.080536,152.039169 147.930054,152.143280 
	C147.792023,152.830963 147.804489,153.414551 147.874542,154.430664 
	C148.005951,156.893509 148.079758,158.923798 148.087799,161.391296 
	C147.941681,163.887573 147.861343,165.946640 147.781006,168.005707 
	C146.444565,167.414612 145.108124,166.823517 143.434692,165.656738 
	C142.715851,160.396469 142.333969,155.711868 142.113525,150.701309 
	C143.553146,146.487076 144.851089,142.782639 149.363174,141.189468 
	C151.597092,140.400696 151.299255,138.834290 148.998444,137.666077 
	C148.993362,136.886917 148.990433,136.441696 149.262100,135.929291 
	C150.346100,135.432785 151.155518,135.003448 152.373474,134.510101 
	C158.522278,133.350906 164.262543,132.255737 170.015411,131.537689 
	C171.032959,136.893326 171.982468,137.557343 176.155884,135.118484 
	C183.622955,130.754898 191.014923,126.241501 198.230881,121.476608 
	C203.436478,118.039230 207.938553,113.384621 213.413910,110.544205 
	C221.061401,106.576965 223.489243,98.424812 229.249725,93.076988 
	C230.806488,91.631744 232.245132,89.306160 234.025589,88.986481 
	C241.378815,87.666191 244.324005,81.188637 248.499542,76.569763 
	C250.806839,74.017479 252.386398,71.469292 255.971848,71.001320 
z"/>
<path fill="#108FF2" opacity="1.000000" stroke="none" 
	d="
M141.952103,151.027283 
	C142.333969,155.711868 142.715851,160.396469 143.142899,165.542648 
	C143.114288,167.680756 143.040512,169.357285 142.796295,171.129974 
	C141.028519,169.537521 139.431168,167.848907 137.522949,165.957245 
	C131.545319,162.108521 129.073563,163.235367 127.772194,169.708374 
	C126.287582,168.608124 125.015717,167.760239 123.743851,166.912338 
	C125.120987,164.508423 126.498116,162.104492 128.493500,159.402496 
	C133.746780,159.004898 139.190231,160.155807 138.796539,152.492691 
	C138.774277,152.059402 140.851837,151.518234 141.952103,151.027283 
z"/>
<path fill="#0C71ED" opacity="1.000000" stroke="none" 
	d="
M123.804474,166.982635 
	C125.015717,167.760239 126.287582,168.608124 127.964516,170.002380 
	C130.316895,171.949295 132.264191,173.349869 134.211487,174.750443 
	C135.519104,172.860458 136.970871,171.048370 138.056839,169.038620 
	C138.441315,168.327118 137.934006,167.133698 137.833817,166.160294 
	C139.431168,167.848907 141.028519,169.537521 142.760803,171.547760 
	C143.006683,175.431351 144.475525,179.835678 137.648956,177.611526 
	C135.798981,177.008774 133.086548,179.053146 130.407837,179.855011 
	C126.680634,176.750671 122.748177,174.026062 123.291687,168.090714 
	C123.651100,167.333267 123.827026,167.131927 124.009659,166.936432 
	C124.009659,166.936432 123.865105,167.052917 123.804474,166.982635 
z"/>
<path fill="#0E81ED" opacity="1.000000" stroke="none" 
	d="
M147.827576,168.448807 
	C147.861343,165.946640 147.941681,163.887573 148.444641,161.403427 
	C150.045319,161.012085 151.223358,161.045822 152.401413,161.079575 
	C155.918930,161.405884 159.436432,161.732193 163.635498,161.929047 
	C165.825745,161.187759 167.334442,160.575928 168.911224,160.405838 
	C168.933762,163.226913 168.888214,165.606262 168.506714,168.072113 
	C166.810730,168.438812 165.450729,168.719009 164.001755,168.583603 
	C160.964081,167.778198 158.015839,167.156189 155.066315,167.149979 
	C154.255096,167.148254 153.440002,168.986542 152.290192,170.064148 
	C147.933701,171.664383 149.455017,175.274063 148.943909,178.116058 
	C148.587311,175.041336 148.230728,171.966629 147.827576,168.448807 
z"/>
<path fill="#0C74EF" opacity="1.000000" stroke="none" 
	d="
M192.405823,166.960693 
	C193.177612,172.777222 190.909485,176.589676 185.544647,178.493484 
	C180.364670,180.331696 176.979950,178.704346 173.191650,172.145554 
	C173.088272,171.485291 173.079178,171.268524 173.090698,171.051163 
	C172.948776,170.306747 172.806870,169.562332 173.141754,168.429947 
	C174.975113,168.016006 176.331680,167.990021 177.760849,168.348328 
	C179.208389,170.727066 180.583344,172.721497 181.958282,174.715927 
	C183.987228,173.146179 186.016174,171.576416 188.263702,169.790833 
	C189.790161,168.703568 191.097992,167.832123 192.405823,166.960693 
z"/>
<path fill="#0F8DF4" opacity="1.000000" stroke="none" 
	d="
M177.688248,167.964035 
	C176.331680,167.990021 174.975113,168.016006 173.209885,168.054016 
	C173.614319,162.131927 176.259125,158.900391 181.311844,159.126129 
	C187.942429,159.422363 191.362915,160.213699 192.341263,166.623474 
	C191.097992,167.832123 189.790161,168.703568 188.242126,169.396164 
	C187.742493,166.116623 187.008362,162.639511 183.316544,163.082413 
	C181.274628,163.327377 179.553802,166.248993 177.688248,167.964035 
z"/>
<path fill="#0F91F5" opacity="1.000000" stroke="none" 
	d="
M215.033340,162.702133 
	C215.167389,163.173065 215.126572,163.339752 214.721039,163.661453 
	C212.892059,163.936661 211.427795,164.056854 209.640045,164.012024 
	C202.325516,162.960907 201.284424,163.845718 200.722290,170.963196 
	C200.495468,170.967957 200.041748,170.967468 199.999420,170.586182 
	C198.688004,168.954697 197.418915,167.704514 196.100037,166.061462 
	C196.056931,163.815643 196.063614,161.962723 196.070312,160.109787 
	C198.957153,159.687164 201.893402,159.470779 204.719269,158.793686 
	C208.979019,157.773041 211.991486,159.763245 215.033340,162.702133 
z"/>
<path fill="#0C71ED" opacity="1.000000" stroke="none" 
	d="
M164.090714,168.999207 
	C165.450729,168.719009 166.810730,168.438812 168.566254,168.511169 
	C169.005600,171.220978 169.049438,173.578217 169.093292,175.935455 
	C169.093292,175.935455 168.981216,176.319855 168.778992,176.688126 
	C168.441574,177.367767 168.306366,177.679138 168.171158,177.990509 
	C167.372055,178.030716 166.572968,178.070923 165.236084,177.904999 
	C164.510422,177.472549 164.313400,177.254486 164.057449,176.599548 
	C164.035370,173.769333 164.063034,171.384277 164.090714,168.999207 
z"/>
<path fill="#0C69E3" opacity="1.000000" stroke="none" 
	d="
M149.222717,178.175110 
	C149.455017,175.274063 147.933701,171.664383 152.377945,170.501099 
	C152.832596,173.238602 152.862991,175.622787 152.893372,178.006958 
	C151.762756,178.082687 150.632156,178.158417 149.222717,178.175110 
z"/>
<path fill="#0C137E" opacity="1.000000" stroke="none" 
	d="
M153.030853,177.631256 
	C152.862991,175.622787 152.832596,173.238602 152.714447,170.417480 
	C153.440002,168.986542 154.255096,167.148254 155.066315,167.149979 
	C158.015839,167.156189 160.964081,167.778198 164.001755,168.583618 
	C164.063034,171.384277 164.035370,173.769333 164.010437,176.835297 
	C164.013199,177.516205 163.985596,177.996811 163.985596,177.996811 
	C163.644821,176.399567 163.106689,174.814651 163.005859,173.202408 
	C162.816788,170.179733 161.873047,168.075806 158.382751,168.131516 
	C154.852783,168.187881 154.094070,170.477829 153.912628,173.402756 
	C153.832336,174.697433 153.426437,175.971924 153.030853,177.631256 
z"/>
<path fill="#0C0B7B" opacity="1.000000" stroke="none" 
	d="
M195.884476,160.316284 
	C196.063614,161.962723 196.056931,163.815643 196.086746,166.343933 
	C196.388062,167.141754 196.652847,167.264236 196.612381,167.510849 
	C196.258347,168.065079 196.209595,168.495178 196.102081,169.269257 
	C196.067535,170.077118 196.091721,170.541016 196.058777,171.467621 
	C196.018112,176.616470 196.034607,181.302582 196.051086,185.988708 
	C195.687195,184.249542 195.323288,182.510391 194.931366,180.380096 
	C195.168472,173.500229 195.433548,167.011490 195.884476,160.316284 
z"/>
<path fill="#0C0B7B" opacity="1.000000" stroke="none" 
	d="
M169.224457,175.550781 
	C169.049438,173.578217 169.005600,171.220978 168.902222,168.424667 
	C168.888214,165.606262 168.933762,163.226913 168.959747,159.974792 
	C168.990967,157.076935 169.041779,155.051880 169.092575,153.026825 
	C169.367554,153.508026 169.642532,153.989227 170.026581,154.726547 
	C169.875641,161.710480 169.615631,168.438278 169.224457,175.550781 
z"/>
<path fill="#0E81ED" opacity="1.000000" stroke="none" 
	d="
M164.231491,178.042755 
	C163.985596,177.996811 164.013199,177.516205 164.060211,177.280457 
	C164.313400,177.254486 164.510422,177.472549 164.836853,177.869965 
	C164.809402,178.056961 164.643387,178.072845 164.231491,178.042755 
z"/>
<path fill="#0F8DF4" opacity="1.000000" stroke="none" 
	d="
M173.090332,171.268372 
	C173.079178,171.268524 173.088272,171.485291 173.140411,171.807617 
	C173.162842,171.913803 173.089966,171.485565 173.090332,171.268372 
z"/>
<path fill="#0C0B7B" opacity="1.000000" stroke="none" 
	d="
M168.300339,177.774994 
	C168.306366,177.679138 168.441574,177.367767 168.779205,176.888336 
	C168.797607,176.999985 168.613571,177.279724 168.300339,177.774994 
z"/>
<path fill="#0C6BED" opacity="1.000000" stroke="none" 
	d="
M196.452911,185.982574 
	C196.034607,181.302582 196.018112,176.616470 196.450790,171.467865 
	C197.947220,170.992737 198.994492,170.980103 200.041748,170.967468 
	C200.041748,170.967468 200.495468,170.967957 200.939346,171.233887 
	C205.425949,175.970047 207.179871,175.885086 211.138062,170.879364 
	C212.824905,171.100296 214.276993,171.480576 215.729080,171.860870 
	C212.599518,178.595642 210.438400,179.727692 201.934753,178.988159 
	C199.788361,180.905640 202.790680,186.799683 196.452911,185.982574 
z"/>
<path fill="#0E83F5" opacity="1.000000" stroke="none" 
	d="
M215.827118,171.458954 
	C214.276993,171.480576 212.824905,171.100296 211.120361,170.487152 
	C210.566452,168.228531 210.264984,166.202789 209.963516,164.177048 
	C211.427795,164.056854 212.892059,163.936661 214.672272,163.914230 
	C215.300537,166.360352 215.612854,168.708679 215.827118,171.458954 
z"/>
<path fill="#0A3299" opacity="1.000000" stroke="none" 
	d="
M78.666878,164.217560 
	C77.425529,163.552505 76.184181,162.887451 74.548172,161.667007 
	C74.135117,158.958862 74.072067,156.805313 74.109352,154.653534 
	C74.158699,151.805542 72.686676,150.810883 70.034500,151.142746 
	C72.381554,148.913834 74.413177,146.132919 77.142639,144.573212 
	C82.496994,141.513550 86.954094,137.801147 90.298119,132.060226 
	C97.918251,132.596527 104.978111,133.312225 112.500763,134.073792 
	C119.961777,134.066147 126.959999,134.012619 134.108505,134.128708 
	C134.258789,134.298325 134.568054,134.629669 134.141830,134.788208 
	C129.289413,135.303986 124.835388,135.468338 120.448944,136.101135 
	C118.305946,136.410294 115.844894,137.091675 114.294319,138.468079 
	C108.683403,143.448730 103.435249,148.835876 97.951775,153.964371 
	C97.036324,154.820557 95.610703,155.115097 94.457558,155.737259 
	C92.897301,156.579056 91.372551,157.486664 89.456390,158.364258 
	C84.503517,158.347885 80.987976,160.220551 78.666878,164.217560 
z"/>
<path fill="#057EEA" opacity="1.000000" stroke="none" 
	d="
M77.936806,119.659744 
	C81.315720,116.040276 84.674355,112.633003 88.237892,109.455536 
	C92.441025,105.707764 96.629753,101.889702 101.202522,98.632477 
	C103.641579,96.895111 106.876930,96.275658 109.925308,95.407928 
	C108.841568,97.098663 107.585403,98.533119 106.140228,100.183945 
	C104.732346,102.267342 103.513474,104.134361 102.111023,106.237350 
	C101.621666,106.982384 101.315895,107.491440 100.662750,108.073639 
	C95.359001,111.739197 90.317146,115.221886 85.491028,118.981529 
	C83.721573,120.359962 82.463173,122.394424 80.971642,124.129623 
	C79.983490,122.744286 78.995338,121.358955 77.936806,119.659744 
z"/>
<path fill="#056CE6" opacity="1.000000" stroke="none" 
	d="
M112.037979,134.027908 
	C104.978111,133.312225 97.918251,132.596527 90.482773,131.749603 
	C89.518959,131.229660 88.930771,130.840958 88.206284,129.881821 
	C90.248474,126.313866 92.358185,123.262978 94.628021,120.336273 
	C96.331436,118.139900 98.240723,116.103203 100.114098,114.231216 
	C100.169846,114.467018 100.275925,114.939934 100.230392,115.346664 
	C100.516899,118.114700 100.848946,120.475998 101.279488,123.134193 
	C101.892906,124.335953 102.407814,125.240822 103.050430,126.445312 
	C104.773094,128.187592 106.368042,129.630280 108.203667,131.274353 
	C109.642220,132.326477 110.840103,133.177185 112.037979,134.027908 
z"/>
<path fill="#0575E8" opacity="1.000000" stroke="none" 
	d="
M100.058350,113.995422 
	C98.240723,116.103203 96.331436,118.139900 94.628021,120.336273 
	C92.358185,123.262978 90.248474,126.313866 88.028214,129.684113 
	C85.749084,128.274719 83.511719,126.492599 81.123001,124.420052 
	C82.463173,122.394424 83.721573,120.359962 85.491028,118.981529 
	C90.317146,115.221886 95.359001,111.739197 100.676804,108.090057 
	C101.038216,108.033325 101.067635,108.065529 101.061760,108.405960 
	C101.087143,109.199303 101.118408,109.652222 101.114319,110.413132 
	C101.065788,111.133987 101.052612,111.546867 100.919373,112.215515 
	C100.552330,112.979340 100.305344,113.487381 100.058350,113.995422 
z"/>
<path fill="#10ADF9" opacity="1.000000" stroke="none" 
	d="
M64.076881,156.334076 
	C59.785606,154.618851 55.756519,154.481277 51.204041,156.966202 
	C49.290371,156.245773 47.996227,155.602264 46.702084,154.958740 
	C51.028034,149.438126 57.170082,152.134247 62.523926,151.719360 
	C64.870964,151.537476 65.619553,153.797928 64.076881,156.334076 
z"/>
<path fill="#10A4FC" opacity="1.000000" stroke="none" 
	d="
M69.924591,151.445374 
	C72.686676,150.810883 74.158699,151.805542 74.109352,154.653534 
	C74.072067,156.805313 74.135117,158.958862 74.213287,161.559982 
	C74.184578,164.011810 74.096092,166.015274 73.842598,168.117584 
	C72.369789,166.207932 71.061989,164.199432 69.754181,162.190933 
	C69.657990,160.027618 69.561798,157.864304 69.377975,155.317322 
	C69.465118,153.871765 69.639893,152.809891 69.924591,151.445374 
z"/>
<path fill="#0F9EF8" opacity="1.000000" stroke="none" 
	d="
M46.418915,155.146912 
	C47.996227,155.602264 49.290371,156.245773 50.858551,157.127319 
	C50.072666,160.293900 49.012749,163.222427 47.787704,166.289047 
	C46.953625,165.617249 46.284672,164.807373 45.251995,163.557144 
	C44.367458,165.370071 43.744915,166.646011 43.122375,167.921951 
	C42.572674,163.354248 42.987053,159.017349 46.418915,155.146912 
z"/>
<path fill="#0E82F1" opacity="1.000000" stroke="none" 
	d="
M43.138168,168.242523 
	C43.744915,166.646011 44.367458,165.370071 45.251995,163.557144 
	C46.284672,164.807373 46.953625,165.617249 47.767792,166.685730 
	C48.497025,168.097519 49.081047,169.250671 49.452118,170.762909 
	C48.132835,171.864471 47.026501,172.606979 45.920166,173.349487 
	C45.920166,173.349487 45.467632,173.171585 45.251694,173.059875 
	C45.035759,172.948181 44.996925,172.992371 44.921082,172.725891 
	C44.576866,172.178909 44.308498,171.898422 44.040138,171.617920 
	C43.744747,170.599640 43.449352,169.581375 43.138168,168.242523 
z"/>
<path fill="#0A3097" opacity="1.000000" stroke="none" 
	d="
M44.207142,171.851044 
	C44.308498,171.898422 44.576866,172.178909 44.949677,172.732483 
	C44.827461,172.698425 44.600807,172.391296 44.207142,171.851044 
z"/>
<path fill="#0B2E96" opacity="1.000000" stroke="none" 
	d="
M89.832565,158.366043 
	C91.372551,157.486664 92.897301,156.579056 94.457558,155.737259 
	C95.610703,155.115097 97.036324,154.820557 97.951775,153.964371 
	C103.435249,148.835876 108.683403,143.448730 114.294319,138.468079 
	C115.844894,137.091675 118.305946,136.410294 120.448944,136.101135 
	C124.835388,135.468338 129.289413,135.303986 134.496857,134.748383 
	C136.504578,134.572601 137.731049,134.595169 139.321930,134.804688 
	C142.786713,135.326569 145.887115,135.661514 148.987503,135.996460 
	C148.990433,136.441696 148.993362,136.886917 148.612656,137.755447 
	C139.612747,138.937363 132.585205,142.627930 127.075813,149.347595 
	C125.635254,151.104614 123.705421,152.460495 122.000290,154.000610 
	C120.098671,155.132629 118.197044,156.264648 116.088806,157.711517 
	C115.882187,158.026352 115.778328,158.149292 115.778328,158.149292 
	C115.778328,158.149292 116.005249,158.011505 116.005249,158.011505 
	C116.696587,158.846069 117.387917,159.680649 117.676331,160.806412 
	C116.459854,162.397675 115.646294,163.697754 114.514946,164.878311 
	C112.651352,163.146332 110.964592,161.644836 109.589249,159.898132 
	C106.784660,156.336273 103.890694,156.343781 101.020020,160.528717 
	C100.670349,162.576904 100.343414,164.195755 99.627541,165.893402 
	C97.477905,163.996704 95.717209,162.021225 93.746857,159.880478 
	C93.247597,159.507370 92.957993,159.299515 92.428986,159.094604 
	C91.403908,158.853714 90.618240,158.609879 89.832565,158.366043 
z"/>
<path fill="#0C2B96" opacity="1.000000" stroke="none" 
	d="
M122.200485,154.269012 
	C123.705421,152.460495 125.635254,151.104614 127.075813,149.347595 
	C132.585205,142.627930 139.612747,138.937363 148.614807,138.089371 
	C151.299255,138.834290 151.597092,140.400696 149.363174,141.189468 
	C144.851089,142.782639 143.553146,146.487076 142.113525,150.701309 
	C140.851837,151.518234 138.774277,152.059402 138.796539,152.492691 
	C139.190231,160.155807 133.746780,159.004898 128.683807,159.114502 
	C126.304108,157.595535 124.352386,156.066467 122.200485,154.269012 
z"/>
<path fill="#0C72EE" opacity="1.000000" stroke="none" 
	d="
M119.871796,172.942978 
	C120.124947,179.105927 120.130096,179.067886 114.241043,178.271088 
	C113.322624,178.146835 112.294182,178.431442 111.382660,178.729172 
	C107.036194,180.148911 104.029610,178.770660 102.366844,173.898651 
	C102.812973,171.764313 103.203217,170.277008 103.758896,168.159195 
	C104.793083,169.412018 105.443550,170.200012 106.336044,171.254883 
	C108.929047,174.826157 111.406830,176.108444 114.491592,171.824524 
	C116.471092,170.767181 118.181602,169.886475 119.892120,169.005768 
	C119.923439,169.768219 119.954758,170.530670 119.937302,171.783722 
	C119.888268,172.497406 119.882683,172.720276 119.871796,172.942978 
z"/>
<path fill="#0C75EE" opacity="1.000000" stroke="none" 
	d="
M90.287926,178.865356 
	C81.680016,178.947266 78.389343,175.842468 78.449585,167.440491 
	C80.204163,168.377411 81.568398,169.666824 83.118881,171.250488 
	C87.642540,176.225021 89.133408,176.136856 93.103371,170.717987 
	C95.184151,166.655853 96.581429,168.174927 97.858665,170.913589 
	C95.430878,173.499390 93.003090,176.085175 90.287926,178.865356 
z"/>
<path fill="#0F93F6" opacity="1.000000" stroke="none" 
	d="
M82.932625,170.956223 
	C81.568398,169.666824 80.204163,168.377411 78.512604,167.031494 
	C78.259811,166.275955 78.334351,165.576935 78.537880,164.547729 
	C80.987976,160.220551 84.503517,158.347885 89.456390,158.364258 
	C90.618240,158.609879 91.403908,158.853714 92.579491,159.329117 
	C93.298439,159.722366 93.627480,159.884048 93.956512,160.045731 
	C95.717209,162.021225 97.477905,163.996704 99.625214,165.911896 
	C100.011826,165.851608 100.014786,165.917862 100.014786,165.917862 
	C99.359779,167.326736 98.704765,168.735611 97.954208,170.529037 
	C96.581429,168.174927 95.184151,166.655853 93.091881,170.311172 
	C93.739990,165.615372 91.372910,162.853348 87.253296,162.847382 
	C83.013016,162.841248 83.013344,166.712280 82.987534,169.959839 
	C82.984894,170.292084 82.951660,170.624100 82.932625,170.956223 
z"/>
<path fill="#108FFA" opacity="1.000000" stroke="none" 
	d="
M100.335968,166.220856 
	C100.014786,165.917862 100.011826,165.851608 100.014153,165.833115 
	C100.343414,164.195755 100.670349,162.576904 101.354019,160.349152 
	C104.756523,158.229279 106.081459,159.549042 106.159569,162.573364 
	C106.231956,165.375809 106.123077,168.182938 106.094025,170.988007 
	C105.443550,170.200012 104.793083,169.412018 103.758896,168.159195 
	C103.203217,170.277008 102.812973,171.764313 102.308945,173.563263 
	C101.682487,171.424561 101.169815,168.974213 100.335968,166.220856 
z"/>
<path fill="#0E83F5" opacity="1.000000" stroke="none" 
	d="
M119.930374,168.610306 
	C118.181602,169.886475 116.471092,170.767181 114.559845,171.440796 
	C114.516975,169.155090 114.674858,167.076447 114.832733,164.997818 
	C115.646294,163.697754 116.459854,162.397675 117.614273,161.057343 
	C118.626297,163.416336 119.297470,165.815598 119.930374,168.610306 
z"/>
<path fill="#0E83F5" opacity="1.000000" stroke="none" 
	d="
M119.896149,172.720215 
	C119.882683,172.720276 119.888268,172.497406 119.885361,172.162643 
	C119.882195,172.050949 119.920494,172.497467 119.896149,172.720215 
z"/>
<path fill="#108FF2" opacity="1.000000" stroke="none" 
	d="
M123.802948,167.007446 
	C123.827026,167.131927 123.651100,167.333267 123.356613,167.696259 
	C123.248650,167.545013 123.370277,167.287140 123.802948,167.007446 
z"/>
<path fill="#0C72ED" opacity="1.000000" stroke="none" 
	d="
M46.142776,173.588867 
	C47.026501,172.606979 48.132835,171.864471 49.581158,171.059845 
	C53.264267,171.985428 56.586060,173.047058 59.955189,173.927567 
	C61.490391,174.328796 63.119102,174.372269 65.169159,174.638153 
	C60.276226,180.957458 51.015518,180.162094 46.142776,173.588867 
z"/>
<path fill="#0D75E4" opacity="1.000000" stroke="none" 
	d="
M69.712357,162.413055 
	C71.061989,164.199432 72.369789,166.207932 73.813354,168.546005 
	C74.021133,170.808792 74.040977,172.745728 74.177811,174.674347 
	C74.366890,177.339401 73.200012,178.609482 70.189026,178.463959 
	C69.761673,174.232773 69.666481,170.002228 69.645363,165.191650 
	C69.819740,164.222824 69.920044,163.834015 70.020348,163.445221 
	C69.779510,163.228821 69.662903,162.958817 69.712357,162.413055 
z"/>
<path fill="#10A4FC" opacity="1.000000" stroke="none" 
	d="
M69.930130,163.828278 
	C69.920044,163.834015 69.819740,164.222824 69.761185,164.804565 
	C69.815254,164.735443 69.827583,164.473389 69.930130,163.828278 
z"/>
<path fill="#0B3098" opacity="1.000000" stroke="none" 
	d="
M164.949631,77.001190 
	C168.612000,80.111557 173.254028,78.935051 175.821854,74.364365 
	C180.215149,66.544388 184.368469,58.563107 189.221054,51.035366 
	C193.773972,43.972492 199.208527,37.484173 204.048950,30.598099 
	C206.983856,26.422829 209.180176,21.666536 214.444672,19.713636 
	C215.140854,19.455379 215.776550,18.643082 216.138214,17.933434 
	C220.788467,8.808709 229.146851,5.978776 238.429031,4.532275 
	C240.499405,4.209636 242.466049,3.221417 244.727081,2.289740 
	C256.014282,1.916256 256.017426,1.916257 256.013489,12.793932 
	C256.009705,23.212954 255.998428,33.631969 255.727921,44.321529 
	C254.843796,43.821072 254.006882,43.140327 253.639160,42.262939 
	C252.283585,39.028477 250.192200,38.397724 247.387421,40.364616 
	C245.021591,42.023693 242.553391,43.626534 240.510330,45.639729 
	C233.728943,52.321987 229.777115,61.772442 220.257645,65.857399 
	C218.538940,66.594925 217.509109,69.047035 216.279236,70.790787 
	C214.003479,74.017433 212.088943,77.543892 209.515396,80.503227 
	C206.772049,83.657806 203.097000,86.016533 200.439011,89.227852 
	C195.491074,95.205826 191.006195,101.565910 186.264069,107.717209 
	C185.796051,108.324303 184.881042,108.586807 184.119995,108.631332 
	C183.983841,107.494835 183.901199,106.736244 183.852448,105.572784 
	C182.924759,93.415886 175.989105,86.547211 165.368042,82.246964 
	C165.134995,80.605469 164.989029,79.336929 164.868103,77.801422 
	C164.911957,77.356712 164.930786,77.178947 164.949631,77.001190 
z"/>
<path fill="#0C2B96" opacity="1.000000" stroke="none" 
	d="
M184.173492,109.009247 
	C184.881042,108.586807 185.796051,108.324303 186.264069,107.717209 
	C191.006195,101.565910 195.491074,95.205826 200.439011,89.227852 
	C203.097000,86.016533 206.772049,83.657806 209.515396,80.503227 
	C212.088943,77.543892 214.003479,74.017433 216.279236,70.790787 
	C217.509109,69.047035 218.538940,66.594925 220.257645,65.857399 
	C229.777115,61.772442 233.728943,52.321987 240.510330,45.639729 
	C242.553391,43.626534 245.021591,42.023693 247.387421,40.364616 
	C250.192200,38.397724 252.283585,39.028477 253.639160,42.262939 
	C254.006882,43.140327 254.843796,43.821072 255.725174,44.789341 
	C255.984528,53.345608 255.984070,61.704605 255.977722,70.532455 
	C252.386398,71.469292 250.806839,74.017479 248.499542,76.569763 
	C244.324005,81.188637 241.378815,87.666191 234.025589,88.986481 
	C232.245132,89.306160 230.806488,91.631744 229.249725,93.076988 
	C223.489243,98.424812 221.061401,106.576965 213.413910,110.544205 
	C207.938553,113.384621 203.436478,118.039230 198.230881,121.476608 
	C191.014923,126.241501 183.622955,130.754898 176.155884,135.118484 
	C171.982468,137.557343 171.032959,136.893326 170.306091,131.356476 
	C178.405869,125.588272 182.443359,118.018295 184.173492,109.009247 
z"/>
<path fill="#0C2B96" opacity="1.000000" stroke="none" 
	d="
M255.977798,79.555511 
	C252.747726,78.033928 252.302795,75.835358 255.684967,73.169235 
	C255.977295,75.045074 255.980255,77.082146 255.977798,79.555511 
z"/>
<path fill="#0684EC" opacity="1.000000" stroke="none" 
	d="
M164.761200,76.703918 
	C164.930786,77.178947 164.911957,77.356712 164.770355,78.125694 
	C164.436172,80.069191 164.224777,81.421471 163.669189,82.668915 
	C159.280029,82.045708 155.235046,81.527328 151.007202,80.687065 
	C150.180695,78.239227 149.537033,76.113274 149.321289,73.949814 
	C154.437805,73.599625 159.126404,73.286949 163.815002,72.974274 
	C164.067596,74.118393 164.320175,75.262527 164.761200,76.703918 
z"/>
<path fill="#0494F1" opacity="1.000000" stroke="none" 
	d="
M163.751495,72.691269 
	C159.126404,73.286949 154.437805,73.599625 149.125824,73.732361 
	C147.819992,72.369377 147.137527,71.186325 146.305389,69.694565 
	C145.979721,68.964668 145.803726,68.543480 146.050476,68.020218 
	C151.389664,67.588417 156.306107,67.258682 161.222534,66.928955 
	C161.222534,66.928955 161.110657,66.974670 161.151230,67.247208 
	C161.528885,68.338203 161.865982,69.156670 162.203064,69.975136 
	C162.698044,70.786179 163.193024,71.597214 163.751495,72.691269 
z"/>
<path fill="#02A1F4" opacity="1.000000" stroke="none" 
	d="
M161.149017,66.595261 
	C156.306107,67.258682 151.389664,67.588417 145.898254,67.987167 
	C145.323273,68.056175 145.025375,67.962265 145.011780,67.971664 
	C144.998169,67.981056 145.030792,67.966461 144.890015,67.683533 
	C143.802628,66.265747 142.856018,65.130898 142.272003,63.890106 
	C147.458344,62.847557 152.282120,61.910946 157.105881,60.974335 
	C158.429077,62.736744 159.752289,64.499153 161.149017,66.595261 
z"/>
<path fill="#01AEF7" opacity="1.000000" stroke="none" 
	d="
M156.954391,60.669006 
	C152.282120,61.910946 147.458344,62.847557 141.997894,63.743038 
	C140.203323,62.800095 139.045410,61.898285 138.188538,60.811356 
	C142.615555,59.091633 146.741547,57.557041 150.867554,56.022449 
	C152.845993,57.469528 154.824448,58.916607 156.954391,60.669006 
z"/>
<path fill="#01BBF9" opacity="1.000000" stroke="none" 
	d="
M150.800781,55.683239 
	C146.741547,57.557041 142.615555,59.091633 137.920807,60.729801 
	C136.514206,60.427418 135.676361,60.021461 134.838516,59.615505 
	C137.488388,57.240749 140.138260,54.865997 142.929062,52.167702 
	C145.624664,53.010784 148.179352,54.177406 150.800781,55.683239 
z"/>
<path fill="#02A1F4" opacity="1.000000" stroke="none" 
	d="
M162.162933,69.629730 
	C161.865982,69.156670 161.528885,68.338203 161.128387,67.191269 
	C161.417572,67.669975 161.770172,68.477142 162.162933,69.629730 
z"/>
<path fill="#46DEFF" opacity="1.000000" stroke="none" 
	d="
M134.617706,59.469322 
	C135.676361,60.021461 136.514206,60.427418 137.619781,60.914925 
	C139.045410,61.898285 140.203323,62.800095 141.635315,63.848976 
	C142.856018,65.130898 143.802628,66.265747 144.499756,67.749313 
	C140.518188,69.714752 136.786087,71.331497 133.054001,72.948242 
	C132.252304,71.932953 131.450607,70.917664 130.423645,69.661652 
	C129.738724,68.359200 129.279099,67.297462 128.696594,65.966064 
	C128.406357,65.303223 128.238968,64.910042 127.951019,64.017143 
	C127.830460,63.517418 127.776436,63.117748 127.776436,63.117748 
	C127.589066,62.285854 127.401695,61.453960 127.131104,60.313084 
	C127.265038,59.427814 127.482178,58.851532 127.839386,58.000069 
	C128.429794,57.741066 128.880157,57.757244 129.668274,57.767708 
	C130.825928,58.063988 131.645782,58.365978 133.004547,58.789417 
	C133.543427,58.910866 133.987946,58.986599 133.987946,58.986599 
	C134.124268,59.098778 134.260590,59.210960 134.617706,59.469322 
z"/>
<path fill="#03A2F4" opacity="1.000000" stroke="none" 
	d="
M127.777344,63.218445 
	C127.776436,63.117748 127.830460,63.517418 127.832428,63.718903 
	C127.802078,63.721146 127.783363,63.520729 127.777344,63.218445 
z"/>
<path fill="#057CE9" opacity="1.000000" stroke="none" 
	d="
M116.994949,91.039825 
	C121.572372,87.618813 126.138603,84.182663 130.733353,80.785080 
	C132.321060,79.611038 133.979691,78.532883 136.090591,77.332977 
	C139.043961,79.175110 141.512680,81.095207 144.004044,83.388977 
	C142.544693,85.800240 141.062683,87.837830 139.242096,89.986595 
	C137.255981,90.443077 135.608429,90.788376 133.617004,90.977264 
	C127.796776,87.153198 122.404419,89.733025 116.994949,91.039825 
z"/>
<path fill="#2CC9FE" opacity="1.000000" stroke="none" 
	d="
M116.756462,91.262192 
	C122.404419,89.733025 127.796776,87.153198 133.480392,91.263245 
	C132.120117,93.466583 130.552597,95.227516 128.580444,97.048889 
	C120.893616,98.062065 113.611427,99.014816 106.329239,99.967567 
	C107.585403,98.533119 108.841568,97.098663 110.346001,95.398460 
	C112.568840,93.916656 114.543411,92.700607 116.756462,91.262192 
z"/>
<path fill="#44D3FF" opacity="1.000000" stroke="none" 
	d="
M143.981384,83.015305 
	C141.512680,81.095207 139.043961,79.175110 136.302643,77.060150 
	C135.213226,75.950989 134.396423,75.036682 133.324646,73.946304 
	C133.069672,73.770233 133.056778,73.359489 133.055389,73.153870 
	C136.786087,71.331497 140.518188,69.714752 144.640533,68.032242 
	C145.030792,67.966461 144.998169,67.981056 145.168701,68.239304 
	C145.711182,68.999458 146.083130,69.501366 146.455078,70.003281 
	C147.137527,71.186325 147.819992,72.369377 148.697906,73.769867 
	C149.537033,76.113274 150.180695,78.239227 150.617981,80.717590 
	C148.268204,81.718437 146.124786,82.366875 143.981384,83.015305 
z"/>
<path fill="#01BBF9" opacity="1.000000" stroke="none" 
	d="
M133.880615,58.949944 
	C133.987946,58.986599 133.543427,58.910866 133.324829,58.857559 
	C133.332977,58.814484 133.555328,58.850826 133.880615,58.949944 
z"/>
<path fill="#0766E4" opacity="1.000000" stroke="none" 
	d="
M184.119995,108.631332 
	C182.443359,118.018295 178.405869,125.588272 170.293488,130.979340 
	C164.262543,132.255737 158.522278,133.350906 151.939774,134.441559 
	C149.041122,134.313049 146.984726,134.189041 144.937622,133.619049 
	C145.588211,129.050705 146.229492,124.928352 146.885193,120.637138 
	C146.899628,120.468285 146.923737,120.130196 146.966324,119.868896 
	C147.033569,119.432838 147.058228,119.258064 147.280899,118.818161 
	C148.348541,116.776886 149.218155,115.000748 150.332962,113.013733 
	C151.976288,111.490135 153.374405,110.177414 155.173065,108.820175 
	C164.886307,106.810486 174.096466,103.810097 183.818558,105.977661 
	C183.901199,106.736244 183.983841,107.494835 184.119995,108.631332 
z"/>
<path fill="#129DF9" opacity="1.000000" stroke="none" 
	d="
M169.028702,152.837158 
	C169.041779,155.051880 168.990967,157.076935 168.891647,159.533051 
	C167.334442,160.575928 165.825745,161.187759 164.071869,161.831329 
	C164.102478,158.514465 164.378265,155.165863 165.202179,151.418518 
	C166.465591,151.065811 167.180878,151.111862 167.896164,151.157913 
	C167.896164,151.157913 168.022308,151.071503 168.061249,151.284180 
	C168.384644,151.747040 168.669067,151.997223 168.953506,152.247421 
	C168.953506,152.247421 168.964828,152.647507 169.028702,152.837158 
z"/>
<path fill="#129DF9" opacity="1.000000" stroke="none" 
	d="
M152.490570,160.651154 
	C151.223358,161.045822 150.045319,161.012085 148.510406,160.966217 
	C148.079758,158.923798 148.005951,156.893509 147.932861,154.106247 
	C147.982559,152.912567 148.031540,152.475876 148.080536,152.039169 
	C148.080536,152.039169 148.023254,152.015366 148.353210,151.884125 
	C149.803879,151.568604 150.924606,151.384323 152.037476,151.560150 
	C152.208282,153.524338 152.386948,155.128403 152.565613,156.732468 
	C152.570328,157.895889 152.575027,159.059326 152.490570,160.651154 
z"/>
<path fill="#0A3299" opacity="1.000000" stroke="none" 
	d="
M144.928329,134.065033 
	C146.984726,134.189041 149.041122,134.313049 151.531219,134.505569 
	C151.155518,135.003448 150.346100,135.432785 149.262100,135.929291 
	C145.887115,135.661514 142.786713,135.326569 139.657379,134.733398 
	C140.770554,134.344391 141.912689,134.213638 143.366257,134.114471 
	C144.094574,134.119064 144.511459,134.092056 144.928329,134.065033 
z"/>
<path fill="#0C2B96" opacity="1.000000" stroke="none" 
	d="
M152.045334,151.200043 
	C150.924606,151.384323 149.803879,151.568604 148.365158,151.912735 
	C148.788666,149.103577 149.731018,146.748032 152.581055,150.854584 
	C152.471909,151.156738 152.045334,151.200058 152.045334,151.200043 
z"/>
<path fill="#0C2B96" opacity="1.000000" stroke="none" 
	d="
M167.872375,150.865082 
	C167.180878,151.111862 166.465591,151.065811 165.392914,151.058258 
	C165.613159,150.252335 166.190796,149.407913 166.768433,148.563492 
	C167.128494,149.233078 167.488556,149.902664 167.872375,150.865082 
z"/>
<path fill="#0E81ED" opacity="1.000000" stroke="none" 
	d="
M152.037476,151.560165 
	C152.045334,151.200058 152.471909,151.156738 152.685913,151.162399 
	C152.848312,152.771088 152.796707,154.374100 152.655350,156.354797 
	C152.386948,155.128403 152.208282,153.524338 152.037476,151.560165 
z"/>
<path fill="#0C2B96" opacity="1.000000" stroke="none" 
	d="
M147.930054,152.143280 
	C148.031540,152.475876 147.982559,152.912567 147.875259,153.673706 
	C147.804489,153.414551 147.792023,152.830963 147.930054,152.143280 
z"/>
<path fill="#0C0B7B" opacity="1.000000" stroke="none" 
	d="
M168.749603,152.059509 
	C168.669067,151.997223 168.384644,151.747040 168.018066,151.221085 
	C168.139191,151.254089 168.342438,151.562836 168.749603,152.059509 
z"/>
<path fill="#0B2994" opacity="1.000000" stroke="none" 
	d="
M137.522949,165.957245 
	C137.934006,167.133698 138.441315,168.327118 138.056839,169.038620 
	C136.970871,171.048370 135.519104,172.860458 134.211487,174.750443 
	C132.264191,173.349869 130.316895,171.949295 128.177261,170.254730 
	C129.073563,163.235367 131.545319,162.108521 137.522949,165.957245 
z"/>
<path fill="#0C2592" opacity="1.000000" stroke="none" 
	d="
M177.760849,168.348328 
	C179.553802,166.248993 181.274628,163.327377 183.316544,163.082413 
	C187.008362,162.639511 187.742493,166.116623 188.023514,169.611984 
	C186.016174,171.576416 183.987228,173.146179 181.958282,174.715927 
	C180.583344,172.721497 179.208389,170.727066 177.760849,168.348328 
z"/>
<path fill="#0D2493" opacity="1.000000" stroke="none" 
	d="
M209.640045,164.012024 
	C210.264984,166.202789 210.566452,168.228531 210.885605,170.646484 
	C207.179871,175.885086 205.425949,175.970047 201.166168,171.229126 
	C201.284424,163.845718 202.325516,162.960907 209.640045,164.012024 
z"/>
<path fill="#0C7AF3" opacity="1.000000" stroke="none" 
	d="
M199.999420,170.586182 
	C198.994492,170.980103 197.947220,170.992737 196.507935,171.005142 
	C196.091721,170.541016 196.067535,170.077118 196.231934,169.014908 
	C196.586258,168.073318 196.751953,167.730026 196.917648,167.386734 
	C196.652847,167.264236 196.388062,167.141754 196.136536,166.736801 
	C197.418915,167.704514 198.688004,168.954697 199.999420,170.586182 
z"/>
<path fill="#0F91F5" opacity="1.000000" stroke="none" 
	d="
M196.612381,167.510849 
	C196.751953,167.730026 196.586258,168.073318 196.290695,168.670944 
	C196.209595,168.495178 196.258347,168.065079 196.612381,167.510849 
z"/>
<path fill="#1788F2" opacity="1.000000" stroke="none" 
	d="
M112.500763,134.073792 
	C110.840103,133.177185 109.642220,132.326477 108.423248,131.003418 
	C116.315971,124.748619 125.479630,123.342239 134.952332,123.393433 
	C134.633224,127.208626 134.295715,130.583862 133.958221,133.959091 
	C126.959999,134.012619 119.961777,134.066147 112.500763,134.073792 
z"/>
<path fill="#0565E4" opacity="1.000000" stroke="none" 
	d="
M134.108505,134.128708 
	C134.295715,130.583862 134.633224,127.208626 134.925018,123.039780 
	C133.966461,120.150894 133.053650,118.055626 131.974579,115.678009 
	C131.205963,114.258186 130.603592,113.120697 130.332840,111.969475 
	C131.106644,111.979797 131.548828,112.003845 132.208084,112.230927 
	C133.252792,112.977654 134.080460,113.521355 135.101929,114.321030 
	C136.550308,116.038322 137.804901,117.499641 139.203186,119.294678 
	C140.582870,124.446564 141.818848,129.264725 143.054810,134.082886 
	C141.912689,134.213638 140.770554,134.344391 139.292969,134.546448 
	C137.731049,134.595169 136.504578,134.572601 134.923080,134.589844 
	C134.568054,134.629669 134.258789,134.298325 134.108505,134.128708 
z"/>
<path fill="#27BEFD" opacity="1.000000" stroke="none" 
	d="
M106.140228,100.183945 
	C113.611427,99.014816 120.893616,98.062065 128.858948,97.245285 
	C131.030319,97.917854 132.518555,98.454460 133.918442,99.295074 
	C133.546326,100.391876 133.262558,101.184662 132.561615,102.014725 
	C125.766373,103.220100 119.380875,104.349548 113.013016,105.570992 
	C109.272591,106.288445 105.560226,107.152214 101.909134,107.625031 
	C102.086884,106.867043 102.190742,106.434212 102.294601,106.001381 
	C103.513474,104.134361 104.732346,102.267342 106.140228,100.183945 
z"/>
<path fill="#0575E8" opacity="1.000000" stroke="none" 
	d="
M102.111015,106.237350 
	C102.190742,106.434212 102.086884,106.867043 101.717789,107.657509 
	C101.452538,108.015137 101.067635,108.065529 101.067635,108.065529 
	C101.067635,108.065529 101.038216,108.033325 101.024170,108.016907 
	C101.315895,107.491440 101.621666,106.982384 102.111015,106.237350 
z"/>
<path fill="#1994F4" opacity="1.000000" stroke="none" 
	d="
M132.140823,115.960350 
	C133.053650,118.055626 133.966461,120.150894 134.906601,122.599815 
	C125.479630,123.342239 116.315971,124.748619 108.182571,130.802032 
	C106.368042,129.630280 104.773094,128.187592 103.302567,126.192635 
	C112.998268,122.413681 122.569550,119.187012 132.140823,115.960350 
z"/>
<path fill="#22B4FB" opacity="1.000000" stroke="none" 
	d="
M101.061760,108.405960 
	C101.067635,108.065529 101.452538,108.015137 101.643890,107.982651 
	C105.560226,107.152214 109.272591,106.288445 113.013016,105.570992 
	C119.380875,104.349548 125.766373,103.220100 132.568481,102.350517 
	C132.999680,103.096031 133.006866,103.543030 132.757538,104.188065 
	C130.996384,105.257935 129.491745,106.129761 127.605621,107.091431 
	C118.241409,109.767487 109.258667,112.353714 100.275925,114.939941 
	C100.275925,114.939934 100.169846,114.467018 100.114105,114.231216 
	C100.305344,113.487381 100.552330,112.979340 100.976219,112.034821 
	C101.151978,111.100601 101.150826,110.602875 101.149673,110.105141 
	C101.118408,109.652222 101.087143,109.199303 101.061760,108.405960 
z"/>
<path fill="#1C9FF6" opacity="1.000000" stroke="none" 
	d="
M131.974579,115.678009 
	C122.569550,119.187012 112.998268,122.413681 103.174858,125.893021 
	C102.407814,125.240822 101.892906,124.335953 101.463425,122.874954 
	C102.626968,121.338242 103.544266,119.884552 104.809479,119.454529 
	C112.539444,116.827240 120.348358,114.432259 128.449005,111.981079 
	C129.192993,112.001785 129.618927,112.001251 130.025574,112.014412 
	C130.006287,112.028107 130.001236,111.983208 130.001236,111.983208 
	C130.603592,113.120697 131.205963,114.258186 131.974579,115.678009 
z"/>
<path fill="#1EA9F8" opacity="1.000000" stroke="none" 
	d="
M128.130951,111.959824 
	C120.348358,114.432259 112.539444,116.827240 104.809479,119.454529 
	C103.544266,119.884552 102.626968,121.338242 101.364929,122.578064 
	C100.848946,120.475998 100.516899,118.114700 100.230392,115.346664 
	C109.258667,112.353714 118.241409,109.767487 127.608643,107.490311 
	C127.995728,108.863243 127.998337,109.927132 128.023193,111.234596 
	C128.045425,111.478172 128.130951,111.959824 128.130951,111.959824 
z"/>
<path fill="#27BEFD" opacity="1.000000" stroke="none" 
	d="
M101.114319,110.413132 
	C101.150826,110.602875 101.151978,111.100601 101.096283,111.779037 
	C101.052612,111.546867 101.065788,111.133987 101.114319,110.413132 
z"/>
<path fill="#0C2B96" opacity="1.000000" stroke="none" 
	d="
M114.514946,164.878311 
	C114.674858,167.076447 114.516975,169.155090 114.290848,171.617447 
	C111.406830,176.108444 108.929047,174.826157 106.336044,171.254883 
	C106.123077,168.182938 106.231956,165.375809 106.159569,162.573364 
	C106.081459,159.549042 104.756523,158.229279 101.376747,159.919830 
	C103.890694,156.343781 106.784660,156.336273 109.589249,159.898132 
	C110.964592,161.644836 112.651352,163.146332 114.514946,164.878311 
z"/>
<path fill="#0C2B96" opacity="1.000000" stroke="none" 
	d="
M116.001511,158.005051 
	C116.005249,158.011505 115.778328,158.149292 115.778328,158.149292 
	C115.778328,158.149292 115.882187,158.026352 115.933365,158.006805 
	C115.984535,157.987274 115.997772,157.998596 116.001511,158.005051 
z"/>
<path fill="#0A3299" opacity="1.000000" stroke="none" 
	d="
M93.746857,159.880478 
	C93.627480,159.884048 93.298439,159.722366 92.818893,159.326172 
	C92.957993,159.299515 93.247597,159.507370 93.746857,159.880478 
z"/>
<path fill="#0B2E96" opacity="1.000000" stroke="none" 
	d="
M83.118881,171.250488 
	C82.951660,170.624100 82.984894,170.292084 82.987534,169.959839 
	C83.013344,166.712280 83.013016,162.841248 87.253296,162.847382 
	C91.372910,162.853348 93.739990,165.615372 92.932419,170.567902 
	C89.133408,176.136856 87.642540,176.225021 83.118881,171.250488 
z"/>
<path fill="#056FE7" opacity="1.000000" stroke="none" 
	d="
M183.852448,105.572784 
	C174.096466,103.810097 164.886307,106.810486 155.324524,108.589699 
	C155.397812,107.956177 155.720169,107.508621 156.367188,106.920265 
	C160.815475,105.237785 164.939102,103.696114 169.415375,102.076759 
	C175.279526,99.010094 176.098831,96.623032 173.386368,90.657745 
	C170.478760,87.896248 167.736267,85.452881 165.109131,82.912132 
	C165.224472,82.814751 165.455109,82.619904 165.455109,82.619904 
	C175.989105,86.547211 182.924759,93.415886 183.852448,105.572784 
z"/>
<path fill="#056FE7" opacity="1.000000" stroke="none" 
	d="
M164.013367,82.773743 
	C164.224777,81.421471 164.436172,80.069191 164.745331,78.392654 
	C164.989029,79.336929 165.134995,80.605469 165.368042,82.246964 
	C165.455109,82.619904 165.224472,82.814751 164.862061,82.861313 
	C164.337570,82.863167 164.175461,82.818459 164.013367,82.773743 
z"/>
<path fill="#3BC8FE" opacity="1.000000" stroke="none" 
	d="
M163.669189,82.668915 
	C164.175461,82.818459 164.337570,82.863167 164.746719,82.958694 
	C167.736267,85.452881 170.478760,87.896248 172.969666,90.737900 
	C170.240707,91.872681 167.804047,92.879318 165.273163,93.260513 
	C163.235031,93.567497 161.083008,93.118423 158.825226,92.712868 
	C157.078064,91.849350 155.520981,90.930252 153.889999,90.771828 
	C149.136047,90.310043 144.352570,90.152344 139.580658,89.875420 
	C141.062683,87.837830 142.544693,85.800240 144.004044,83.388977 
	C146.124786,82.366875 148.268204,81.718437 150.800842,81.039474 
	C155.235046,81.527328 159.280029,82.045708 163.669189,82.668915 
z"/>
<path fill="#46DEFF" opacity="1.000000" stroke="none" 
	d="
M146.305389,69.694565 
	C146.083130,69.501366 145.711182,68.999458 145.182297,68.229904 
	C145.025375,67.962265 145.323273,68.056175 145.475494,68.089233 
	C145.803726,68.543480 145.979721,68.964668 146.305389,69.694565 
z"/>
<path fill="#32BFFD" opacity="1.000000" stroke="none" 
	d="
M139.242096,89.986595 
	C144.352570,90.152344 149.136047,90.310043 153.889999,90.771828 
	C155.520981,90.930252 157.078064,91.849350 158.447205,92.802673 
	C150.152588,95.119972 142.079697,97.055519 134.006805,98.991066 
	C132.518555,98.454460 131.030319,97.917854 129.263580,97.184853 
	C130.552597,95.227516 132.120117,93.466583 133.824249,91.419662 
	C135.608429,90.788376 137.255981,90.443077 139.242096,89.986595 
z"/>
<path fill="#279DF5" opacity="1.000000" stroke="none" 
	d="
M156.042526,107.061066 
	C155.720169,107.508621 155.397812,107.956177 154.923981,108.634216 
	C153.374405,110.177414 151.976288,111.490135 150.095612,112.746513 
	C144.376617,109.567612 139.785172,113.343735 134.908112,114.065056 
	C134.080460,113.521355 133.252792,112.977654 132.402863,111.944000 
	C138.086563,109.665482 143.735077,107.643387 149.530243,106.217232 
	C151.511780,105.729599 153.861191,106.736824 156.042526,107.061066 
z"/>
<path fill="#2392F3" opacity="1.000000" stroke="none" 
	d="
M135.101929,114.321030 
	C139.785172,113.343735 144.376617,109.567612 149.850403,112.957382 
	C149.218155,115.000748 148.348541,116.776886 146.925476,118.694641 
	C143.934525,118.877831 141.496994,118.919388 139.059479,118.960953 
	C137.804901,117.499641 136.550308,116.038322 135.101929,114.321030 
z"/>
<path fill="#1C84F0" opacity="1.000000" stroke="none" 
	d="
M139.203186,119.294678 
	C141.496994,118.919388 143.934525,118.877831 146.727448,118.959778 
	C147.058228,119.258064 147.033569,119.432838 146.955902,119.952271 
	C146.884003,120.466026 146.873291,120.635712 146.870773,120.805992 
	C146.229492,124.928352 145.588211,129.050705 144.937622,133.619049 
	C144.511459,134.092056 144.094574,134.119064 143.366257,134.114471 
	C141.818848,129.264725 140.582870,124.446564 139.203186,119.294678 
z"/>
<path fill="#2392F3" opacity="1.000000" stroke="none" 
	d="
M146.885193,120.637138 
	C146.873291,120.635712 146.884003,120.466026 146.913330,120.213562 
	C146.923737,120.130196 146.899628,120.468285 146.885193,120.637138 
z"/>
<path fill="#2BA7F8" opacity="1.000000" stroke="none" 
	d="
M156.367188,106.920265 
	C153.861191,106.736824 151.511780,105.729599 149.530243,106.217232 
	C143.735077,107.643387 138.086563,109.665482 132.185806,111.740967 
	C131.548828,112.003845 131.106644,111.979797 130.332840,111.969475 
	C130.001236,111.983208 130.006287,112.028107 129.831390,111.792877 
	C129.104630,111.368782 128.552795,111.179901 128.000946,110.991020 
	C127.998337,109.927132 127.995728,108.863243 127.990112,107.400467 
	C129.491745,106.129761 130.996384,105.257935 133.166595,104.154236 
	C142.321259,102.717979 150.784714,101.231781 159.312790,100.455406 
	C162.484924,100.166626 165.808319,101.539368 169.062729,102.154434 
	C164.939102,103.696114 160.815475,105.237785 156.367188,106.920265 
z"/>
<path fill="#32B3FA" opacity="1.000000" stroke="none" 
	d="
M169.415375,102.076759 
	C165.808319,101.539368 162.484924,100.166626 159.312790,100.455406 
	C150.784714,101.231781 142.321259,102.717979 133.423096,103.956192 
	C133.006866,103.543030 132.999680,103.096031 132.985657,102.313240 
	C133.262558,101.184662 133.546326,100.391876 133.918442,99.295074 
	C142.079697,97.055519 150.152588,95.119972 158.603500,93.094620 
	C161.083008,93.118423 163.235031,93.567497 165.273163,93.260513 
	C167.804047,92.879318 170.240707,91.872681 173.134766,91.056030 
	C176.098831,96.623032 175.279526,99.010094 169.415375,102.076759 
z"/>
<path fill="#0565E4" opacity="1.000000" stroke="none" 
	d="
M128.023193,111.234596 
	C128.552795,111.179901 129.104630,111.368782 129.850677,111.779190 
	C129.618927,112.001251 129.192993,112.001785 128.449005,111.981079 
	C128.130951,111.959824 128.045425,111.478172 128.023193,111.234596 
z"/>
</svg>