<svg version="1.1" id="Layer_1" xmlns="http://www.w3.org/2000/svg" xmlns:xlink="http://www.w3.org/1999/xlink" x="0px" y="0px"
	 width="100%" viewBox="0 0 256 256" enable-background="new 0 0 256 256" xml:space="preserve">
<path fill="#FEFFFF" opacity="1.000000" stroke="none" 
	d="
M256.000000,257.000000 
	C171.072968,257.000000 86.145935,257.000000 1.000000,257.000000 
	C1.000000,172.312561 1.000000,87.624939 1.221948,2.364484 
	C1.715763,1.588539 1.901131,1.324654 2.000000,1.000000 
	C86.927040,1.000000 171.854080,1.000000 257.000000,1.000000 
	C257.000000,85.687439 257.000000,170.375061 256.770813,255.627579 
	C256.248047,256.385864 256.067505,256.655029 256.000000,257.000000 
M171.930878,173.057877 
	C171.930878,173.057877 171.818497,173.061218 171.866058,173.686172 
	C172.217438,174.157852 172.568817,174.629547 172.980743,174.995667 
	C172.980743,174.995667 172.900223,175.087372 173.163895,175.756714 
	C176.480469,179.431046 180.542191,179.813812 185.619720,178.283707 
	C191.242966,174.383087 192.345047,171.871292 191.007767,165.521713 
	C190.936584,165.358551 190.865387,165.195404 190.654312,164.373840 
	C186.563950,159.124390 182.164154,157.538284 177.032654,159.463257 
	C172.124237,161.304550 170.515274,164.785690 171.198334,172.522034 
	C171.322525,172.859680 171.558441,173.074844 171.930878,173.057877 
M113.503998,159.158585 
	C113.140961,159.335373 113.036888,159.610229 113.017044,160.878784 
	C113.059998,163.916763 113.102951,166.954758 112.996971,170.719681 
	C111.323853,172.617645 109.650734,174.515594 107.977615,176.413559 
	C107.230339,176.207993 106.483070,176.002426 105.735794,175.796860 
	C105.107040,170.385834 104.478294,164.974808 103.818329,159.295166 
	C102.682396,159.295166 101.268791,159.295166 99.357567,159.295166 
	C99.357567,163.953049 98.803345,168.512848 99.584290,172.831207 
	C99.993355,175.093246 102.505608,178.333588 104.488434,178.672485 
	C108.751511,179.401138 113.286880,178.536789 118.384834,178.292191 
	C117.914513,171.906631 117.450287,165.603668 116.251892,159.099426 
	C115.495697,159.148575 114.739510,159.197708 113.503998,159.158585 
M167.308258,157.471970 
	C167.228790,156.312088 167.149323,155.152206 167.218643,153.495010 
	C167.173355,153.328003 167.128067,153.161011 167.098083,152.329147 
	C166.726624,152.166809 166.355179,152.004456 165.144775,151.665543 
	C161.211533,151.181412 162.034714,153.821548 162.093033,156.925522 
	C161.998230,164.236343 159.676407,165.497284 150.928864,163.430405 
	C150.264145,159.419418 149.635468,155.625854 148.244827,151.671570 
	C147.493927,151.802292 146.743011,151.933029 145.322128,152.562897 
	C145.322128,161.289810 145.322128,170.016724 145.322128,178.806183 
	C147.222092,178.806183 148.522186,178.806183 150.241470,178.806183 
	C150.241470,174.895096 150.241470,171.144791 150.241470,167.337555 
	C154.392593,167.337555 158.115875,167.337555 162.160614,167.337555 
	C162.160614,171.266556 162.160614,174.881287 162.160614,178.670532 
	C164.025742,178.670532 165.554810,178.670532 167.062912,178.670532 
	C167.062912,173.230301 167.062912,168.105118 167.251083,162.165649 
	C167.189468,160.780090 167.127838,159.394547 167.308258,157.471970 
M47.822182,162.572159 
	C48.286858,161.399582 48.751537,160.226990 49.852573,158.744553 
	C52.793976,155.535522 56.500710,155.859436 60.340523,156.264084 
	C61.489597,156.385178 62.739548,155.549011 63.943279,155.151398 
	C63.016945,154.044952 62.285240,152.286774 61.131390,151.942184 
	C55.406540,150.232574 50.115780,150.993317 45.327877,156.156647 
	C42.713409,160.096985 40.814499,164.168350 42.970467,169.712555 
	C46.130463,177.074234 52.394512,180.525192 59.973286,178.954147 
	C62.745323,178.379532 64.905678,177.103378 64.264191,173.626572 
	C57.934723,175.436142 50.106823,175.862076 47.740326,167.609558 
	C47.707607,167.305069 47.557190,167.078812 47.400742,166.167313 
	C47.416702,165.139099 47.432667,164.110886 47.822182,162.572159 
M77.535004,174.462875 
	C77.535004,174.462875 77.572266,174.599243 77.843987,175.200485 
	C84.524033,181.705215 92.815994,180.246216 96.279877,171.478836 
	C96.184471,169.653152 96.089058,167.827454 96.011696,165.370865 
	C95.687782,164.871368 95.363869,164.371857 94.893349,163.194138 
	C90.681381,158.674988 84.884918,157.481583 80.448387,160.220169 
	C76.177399,162.856552 74.966370,167.239014 76.948883,173.553253 
	C77.151512,173.809906 77.354141,174.066544 77.535004,174.462875 
M68.035393,154.966873 
	C68.035393,162.788635 68.035393,170.610413 68.035393,178.908356 
	C70.331764,178.273315 71.601662,177.922134 72.832153,177.581863 
	C72.832153,172.560623 72.832153,167.781998 72.978012,162.085938 
	C72.978012,158.691818 72.978012,155.297684 72.978012,151.903564 
	C72.584625,151.580490 72.191246,151.257416 71.797859,150.934357 
	C70.590332,151.971115 69.382805,153.007889 68.035393,154.966873 
M140.857361,178.695236 
	C141.053009,173.856400 141.248672,169.017548 141.606125,163.410233 
	C141.536575,161.857071 141.467026,160.303909 141.598465,158.037094 
	C140.544235,155.836655 144.992615,150.485214 137.208206,152.125595 
	C137.052551,154.934402 136.896881,157.743210 136.740433,160.551971 
	C126.734222,156.831253 120.841484,160.413147 121.018890,170.762207 
	C122.922882,177.330521 126.765678,180.551575 132.111115,178.790680 
	C135.042694,177.824966 137.409164,177.956085 140.857361,178.695236 
M159.055908,67.004822 
	C157.364914,65.035530 155.673935,63.066242 153.389709,60.737541 
	C150.949432,58.758823 148.509140,56.780106 145.673599,54.215778 
	C126.285316,45.776714 106.961960,52.244411 98.315033,70.233727 
	C98.112289,71.212631 97.909546,72.191528 97.238960,73.588928 
	C96.159584,74.427582 95.080208,75.266235 93.498405,76.043388 
	C93.339836,76.101044 93.181267,76.158691 92.314735,76.222374 
	C86.120415,78.743202 80.723183,82.197433 77.267509,89.023010 
	C76.432640,91.171356 75.597771,93.319702 74.231697,96.027153 
	C73.872871,98.028366 73.514053,100.029572 73.013649,102.896294 
	C73.624664,106.614792 74.235680,110.333298 74.868599,114.730286 
	C75.198120,115.500343 75.527641,116.270393 76.002922,117.684380 
	C76.666138,118.787041 77.329361,119.889709 78.126816,121.660332 
	C80.675156,124.135193 83.223495,126.610046 86.092422,129.722534 
	C90.648827,131.483383 95.148575,134.564026 99.772041,134.762482 
	C114.824089,135.408554 129.921356,135.001205 145.920609,135.189178 
	C150.057434,135.132553 154.202347,135.221542 158.329620,134.992645 
	C172.016525,134.233566 182.402161,122.827629 182.348511,108.428307 
	C181.904312,106.193588 181.710144,103.872353 180.972153,101.739296 
	C177.963058,93.042061 171.222427,88.142639 163.233337,83.840607 
	C162.556717,80.066978 161.880081,76.293350 161.126373,71.855080 
	C160.454025,70.462349 159.781677,69.069626 159.055908,67.004822 
M194.332947,159.671631 
	C194.266632,165.772949 194.103500,171.875488 194.179245,177.975037 
	C194.211868,180.600800 194.739548,183.220428 195.839264,185.970825 
	C201.359299,184.936874 198.071884,180.112076 199.533890,177.209991 
	C200.037491,177.408463 200.481354,177.738632 200.919754,177.731491 
	C204.291351,177.676697 208.187637,178.593369 210.909424,177.213318 
	C214.984268,175.147232 215.975327,169.208878 214.251160,164.917358 
	C212.660950,160.959244 209.738861,158.414841 205.496033,159.059250 
	C201.951599,159.597610 198.542160,159.899231 194.332947,159.671631 
z"/>
<path fill="#DFDFE0" opacity="1.000000" stroke="none" 
	d="
M256.500000,257.000000 
	C256.067505,256.655029 256.248047,256.385864 256.770813,256.096252 
	C257.000000,256.333344 257.000000,256.666656 256.500000,257.000000 
z"/>
<path fill="#F6F6F6" opacity="1.000000" stroke="none" 
	d="
M1.500000,1.000000 
	C1.901131,1.324654 1.715763,1.588539 1.221948,1.895827 
	C1.000000,1.666667 1.000000,1.333333 1.500000,1.000000 
z"/>
<path fill="#0867E4" opacity="1.000000" stroke="none" 
	d="
M182.097168,109.025017 
	C182.402161,122.827629 172.016525,134.233566 158.329620,134.992645 
	C154.202347,135.221542 150.057434,135.132553 145.458511,134.837372 
	C144.994324,134.314316 144.992249,134.143082 145.152756,133.609909 
	C145.890640,129.522141 146.465942,125.796318 147.302734,121.863022 
	C149.059143,119.159668 150.554092,116.663788 152.404266,114.066559 
	C155.309174,112.972572 157.793213,111.724174 160.424301,111.048332 
	C164.202728,110.077805 168.088333,109.524475 172.166458,109.107758 
	C175.635544,109.289978 178.866364,109.157501 182.097168,109.025017 
z"/>
<path fill="#05C0FA" opacity="1.000000" stroke="none" 
	d="
M98.956459,69.852409 
	C106.961960,52.244411 126.285316,45.776714 145.793152,54.893658 
	C144.987335,56.053890 144.091690,56.608078 143.131210,57.005627 
	C139.746964,58.406380 136.340454,59.753387 132.702225,61.080570 
	C132.462051,61.040352 131.980942,60.960976 131.908218,60.803394 
	C131.579559,60.716831 131.323608,60.787849 130.743378,60.770271 
	C128.983551,61.126850 127.548035,61.572018 125.730324,62.047005 
	C123.463425,62.700459 121.442345,63.069241 119.717758,63.992088 
	C112.478554,67.865891 104.006157,70.619164 98.523979,76.253044 
	C93.243362,81.679779 87.120033,84.987389 81.098381,88.847290 
	C80.366302,89.316559 78.938942,88.701141 77.833809,88.588425 
	C80.723183,82.197433 86.120415,78.743202 92.774139,76.355721 
	C93.489304,76.361008 93.745064,76.232948 94.000832,76.104881 
	C95.080208,75.266235 96.159584,74.427582 97.788971,73.159554 
	C98.544807,71.770920 98.750633,70.811668 98.956459,69.852409 
z"/>
<path fill="#04A1F4" opacity="1.000000" stroke="none" 
	d="
M73.155235,102.030785 
	C73.514053,100.029572 73.872871,98.028366 74.560486,96.130966 
	C75.191673,97.077736 75.494087,97.920677 75.904800,99.065483 
	C84.856888,92.732101 93.538368,86.785095 102.003044,80.544037 
	C109.693703,74.873665 117.148781,68.883888 126.949295,67.372269 
	C127.366096,69.092812 127.715546,70.459694 127.869934,72.127724 
	C109.956474,83.720009 92.238083,95.011139 74.530952,106.295097 
	C74.139656,105.082199 73.647446,103.556488 73.155235,102.030785 
z"/>
<path fill="#0592F0" opacity="1.000000" stroke="none" 
	d="
M73.084442,102.463539 
	C73.647446,103.556488 74.139656,105.082199 74.530952,106.295097 
	C92.238083,95.011139 109.956474,83.720009 128.127243,72.346741 
	C129.412079,73.832916 130.244568,75.401222 130.712677,77.011429 
	C116.812119,83.447098 104.254501,91.361900 92.617416,100.805656 
	C86.885513,105.457222 80.782036,109.650909 74.846703,114.051796 
	C74.235680,110.333298 73.624664,106.614792 73.084442,102.463539 
z"/>
<path fill="#03B0F7" opacity="1.000000" stroke="none" 
	d="
M126.881943,67.018600 
	C117.148781,68.883888 109.693703,74.873665 102.003044,80.544037 
	C93.538368,86.785095 84.856888,92.732101 75.904800,99.065483 
	C75.494087,97.920677 75.191673,97.077736 74.826080,95.851418 
	C75.597771,93.319702 76.432640,91.171356 77.550659,88.805717 
	C78.938942,88.701141 80.366302,89.316559 81.098381,88.847290 
	C87.120033,84.987389 93.243362,81.679779 98.523979,76.253044 
	C104.006157,70.619164 112.478554,67.865891 119.717758,63.992088 
	C121.442345,63.069241 123.463425,62.700459 125.706787,62.415314 
	C126.337616,64.175400 126.609779,65.597000 126.881943,67.018600 
z"/>
<path fill="#067AEA" opacity="1.000000" stroke="none" 
	d="
M85.771843,129.084900 
	C83.223495,126.610046 80.675156,124.135193 78.255455,121.057648 
	C82.313110,117.416374 86.158218,114.260696 90.192657,111.369217 
	C95.094208,107.856262 100.155411,104.566055 105.092667,101.507217 
	C104.357796,103.222794 103.677795,104.610649 102.743942,106.209473 
	C102.280830,107.268555 102.071564,108.116676 101.619492,109.189331 
	C100.951088,110.612213 100.525482,111.810562 99.798157,113.243866 
	C98.528549,115.711937 98.074684,118.447845 96.485138,120.072884 
	C93.237389,123.393181 89.378822,126.115997 85.771843,129.084900 
z"/>
<path fill="#0682EC" opacity="1.000000" stroke="none" 
	d="
M105.147552,101.179489 
	C100.155411,104.566055 95.094208,107.856262 90.192657,111.369217 
	C86.158218,114.260696 82.313110,117.416374 78.188339,120.723663 
	C77.329361,119.889709 76.666138,118.787041 76.306702,117.346893 
	C77.771217,116.476601 79.108200,116.159172 80.064560,115.376587 
	C87.070251,109.643898 93.600845,103.229675 101.057205,98.175034 
	C109.770279,92.268463 119.287430,87.552299 128.412537,82.245392 
	C130.066345,81.283585 131.512146,79.964165 133.284912,78.873817 
	C133.515854,78.937782 133.985931,79.030327 134.084885,79.270912 
	C134.481537,79.935974 134.779236,80.360451 135.047714,81.183235 
	C133.783875,82.847214 132.691391,84.308578 131.281357,85.332779 
	C129.155823,86.876701 125.614746,86.965515 125.600693,90.922562 
	C117.558052,91.309792 111.945366,95.919228 105.852859,100.115639 
	C105.429733,100.492577 105.243950,100.771240 105.090569,101.075363 
	C105.122971,101.100822 105.147552,101.179497 105.147552,101.179489 
z"/>
<path fill="#0A71E1" opacity="1.000000" stroke="none" 
	d="
M195.038239,159.271286 
	C198.542160,159.899231 201.951599,159.597610 205.496033,159.059250 
	C209.738861,158.414841 212.660950,160.959244 214.251160,164.917358 
	C215.975327,169.208878 214.984268,175.147232 210.909424,177.213318 
	C208.187637,178.593369 204.291351,177.676697 200.919754,177.731491 
	C200.481354,177.738632 200.037491,177.408463 199.533890,177.209991 
	C198.071884,180.112076 201.359299,184.936874 195.436737,185.448608 
	C195.035568,176.374680 195.036911,167.822983 195.038239,159.271286 
M204.746140,175.059433 
	C208.939117,174.136475 210.641708,171.021133 209.554993,167.428207 
	C208.989365,165.558151 205.574387,162.976273 204.095291,163.341751 
	C202.103653,163.833847 199.806839,166.655548 199.326828,168.846695 
	C198.644745,171.960220 199.371719,175.503540 204.746140,175.059433 
z"/>
<path fill="#1373E1" opacity="1.000000" stroke="none" 
	d="
M167.062912,162.979919 
	C167.062912,168.105118 167.062912,173.230301 167.062912,178.670532 
	C165.554810,178.670532 164.025742,178.670532 162.160614,178.670532 
	C162.160614,174.881287 162.160614,171.266556 162.160614,167.337555 
	C158.115875,167.337555 154.392593,167.337555 150.241470,167.337555 
	C150.241470,171.144791 150.241470,174.895096 150.241470,178.806183 
	C148.522186,178.806183 147.222092,178.806183 145.322128,178.806183 
	C145.322128,170.016724 145.322128,161.289810 145.660919,152.763458 
	C146.175491,155.918793 146.351273,158.873581 146.527069,161.828369 
	C147.353638,161.791489 148.180222,161.754608 149.006790,161.717728 
	C149.006790,158.422577 149.006790,155.127426 149.006790,151.832275 
	C149.635468,155.625854 150.264145,159.419418 150.928864,163.430405 
	C159.676407,165.497284 161.998230,164.236343 162.405991,156.798218 
	C163.685425,159.105453 161.297043,163.849930 167.062912,162.979919 
z"/>
<path fill="#096AE5" opacity="1.000000" stroke="none" 
	d="
M85.932129,129.403717 
	C89.378822,126.115997 93.237389,123.393181 96.485138,120.072884 
	C98.074684,118.447845 98.528549,115.711937 99.780914,113.657188 
	C100.093323,115.212173 100.121231,116.588791 100.143013,118.340271 
	C101.087120,121.157112 102.037354,123.599091 103.020340,126.356895 
	C103.700294,127.452057 104.347496,128.231400 105.137253,129.310242 
	C106.839897,130.769409 108.399979,131.929077 110.269638,133.371658 
	C122.049530,133.760345 133.519852,133.866104 144.990173,133.971863 
	C144.992249,134.143082 144.994324,134.314316 144.998810,134.742401 
	C129.921356,135.001205 114.824089,135.408554 99.772041,134.762482 
	C95.148575,134.564026 90.648827,131.483383 85.932129,129.403717 
z"/>
<path fill="#0589ED" opacity="1.000000" stroke="none" 
	d="
M133.053986,78.809853 
	C131.512146,79.964165 130.066345,81.283585 128.412537,82.245392 
	C119.287430,87.552299 109.770279,92.268463 101.057205,98.175034 
	C93.600845,103.229675 87.070251,109.643898 80.064560,115.376587 
	C79.108200,116.159172 77.771217,116.476601 76.233818,117.024925 
	C75.527641,116.270393 75.198120,115.500343 74.857651,114.391037 
	C80.782036,109.650909 86.885513,105.457222 92.617416,100.805656 
	C104.254501,91.361900 116.812119,83.447098 130.970703,77.116112 
	C132.080063,77.722549 132.567032,78.266205 133.053986,78.809853 
z"/>
<path fill="#1373E1" opacity="1.000000" stroke="none" 
	d="
M116.986053,159.300705 
	C117.450287,165.603668 117.914513,171.906631 118.384834,178.292191 
	C113.286880,178.536789 108.751511,179.401138 104.488434,178.672485 
	C102.505608,178.333588 99.993355,175.093246 99.584290,172.831207 
	C98.803345,168.512848 99.357567,163.953049 99.357567,159.295166 
	C101.268791,159.295166 102.682396,159.295166 103.818329,159.295166 
	C104.478294,164.974808 105.107040,170.385834 105.735794,175.796860 
	C106.483070,176.002426 107.230339,176.207993 107.977615,176.413559 
	C109.650734,174.515594 111.323853,172.617645 113.480988,170.356186 
	C114.969666,169.058197 116.662254,168.238800 116.841713,167.166245 
	C117.269760,164.607971 116.983704,161.930206 116.986053,159.300705 
z"/>
<path fill="#0E76E1" opacity="1.000000" stroke="none" 
	d="
M190.985031,166.055252 
	C192.345047,171.871292 191.242966,174.383087 185.233429,178.033142 
	C184.519806,176.712036 184.192474,175.641464 184.054932,174.321381 
	C185.095642,172.397324 185.946564,170.722778 186.991257,168.955627 
	C187.032852,168.600677 186.880661,168.338364 186.534882,167.785126 
	C184.679092,165.908279 183.242935,163.690552 181.266327,162.983322 
	C180.155167,162.585739 177.659897,164.345474 176.692902,165.754303 
	C175.790436,167.069107 176.084396,169.205154 175.608688,171.229858 
	C174.543854,172.682480 173.722046,173.884933 172.900223,175.087372 
	C172.900223,175.087372 172.980743,174.995667 172.952911,174.727341 
	C172.556213,173.993088 172.187363,173.527145 171.818497,173.061218 
	C171.818497,173.061218 171.930878,173.057877 171.876053,172.884827 
	C171.707092,172.410202 171.508362,172.182465 171.225037,172.028549 
	C170.515274,164.785690 172.124237,161.304550 177.032654,159.463257 
	C182.164154,157.538284 186.563950,159.124390 190.549927,164.830338 
	C190.403793,165.650681 190.362045,166.014526 190.320297,166.378372 
	C190.541870,166.270660 190.763443,166.162949 190.985031,166.055252 
M190.405533,170.482376 
	C190.405533,170.482376 190.519028,170.412262 190.405533,170.482376 
z"/>
<path fill="#0E76E1" opacity="1.000000" stroke="none" 
	d="
M121.151749,170.027542 
	C120.841484,160.413147 126.734222,156.831253 136.740829,160.552002 
	C136.896881,157.743210 137.052551,154.934402 137.632797,152.368973 
	C138.924683,154.792374 135.869217,159.106888 141.397476,158.750748 
	C141.467026,160.303909 141.536575,161.857071 141.350983,164.113510 
	C141.015625,166.884354 140.935410,168.951904 140.471863,171.011673 
	C139.066101,171.002899 138.043671,171.001907 136.988190,170.600967 
	C137.090469,166.334885 135.834473,163.193314 131.560898,162.947723 
	C128.069916,162.747086 126.468353,165.310333 126.022911,168.549622 
	C125.912865,169.349869 126.010361,170.178650 125.707169,171.123184 
	C123.985168,170.843872 122.568459,170.435699 121.151749,170.027542 
z"/>
<path fill="#0E76E1" opacity="1.000000" stroke="none" 
	d="
M95.993652,166.001770 
	C96.089058,167.827454 96.184471,169.653152 95.733963,171.915253 
	C94.059258,171.763214 92.930466,171.174789 91.759674,170.433990 
	C91.717690,170.281601 91.910942,170.031448 92.185806,169.836823 
	C92.164261,168.793365 91.867844,167.944565 91.364716,166.819489 
	C87.617599,161.235596 84.539352,161.370987 80.517174,167.318283 
	C79.388199,169.956406 78.480232,172.277832 77.572266,174.599243 
	C77.572266,174.599243 77.535004,174.462875 77.604897,174.118011 
	C77.419426,173.525299 77.164062,173.277466 76.908699,173.029617 
	C74.966370,167.239014 76.177399,162.856552 80.448387,160.220169 
	C84.884918,157.481583 90.681381,158.674988 94.974686,163.846283 
	C95.368576,164.999557 95.681114,165.500656 95.993652,166.001770 
z"/>
<path fill="#096AE5" opacity="1.000000" stroke="none" 
	d="
M182.222839,108.726662 
	C178.866364,109.157501 175.635544,109.289978 172.293869,108.878693 
	C172.452209,107.882355 172.721420,107.429779 173.246445,106.811966 
	C173.982468,105.752892 174.462692,104.859055 174.977539,103.639709 
	C175.008011,102.877655 175.003845,102.441116 175.019180,101.666565 
	C175.012268,100.878113 174.985855,100.427681 174.956635,99.652939 
	C174.374222,98.207359 173.794601,97.086098 173.127319,95.676193 
	C172.694809,94.918488 172.349976,94.449417 171.902374,93.712936 
	C171.232330,92.951874 170.665039,92.458221 169.923355,91.672447 
	C167.178207,89.849831 164.607452,88.319344 162.175980,86.525726 
	C162.591644,85.738197 162.868042,85.213791 163.144440,84.689384 
	C171.222427,88.142639 177.963058,93.042061 180.972153,101.739296 
	C181.710144,103.872353 181.904312,106.193588 182.222839,108.726662 
z"/>
<path fill="#0682EC" opacity="1.000000" stroke="none" 
	d="
M163.188889,84.264999 
	C162.868042,85.213791 162.591644,85.738197 161.811310,86.423080 
	C157.577530,86.368729 153.847687,86.153893 150.090668,85.535225 
	C149.622406,82.436722 149.181351,79.742043 149.175262,77.025253 
	C152.319839,76.666412 155.129059,76.653442 157.698975,75.862686 
	C159.079330,75.437973 160.048660,73.677475 161.203461,72.519730 
	C161.880081,76.293350 162.556717,80.066978 163.188889,84.264999 
z"/>
<path fill="#03B0F7" opacity="1.000000" stroke="none" 
	d="
M132.942398,61.120789 
	C136.340454,59.753387 139.746964,58.406380 143.131210,57.005627 
	C144.091690,56.608078 144.987335,56.053890 145.990784,55.186462 
	C148.509140,56.780106 150.949432,58.758823 153.604568,61.286167 
	C149.523453,63.226551 145.227463,64.618309 140.629990,65.863640 
	C137.866455,64.185066 135.404434,62.652931 132.942398,61.120789 
z"/>
<path fill="#04A1F4" opacity="1.000000" stroke="none" 
	d="
M140.931488,66.010071 
	C145.227463,64.618309 149.523453,63.226551 153.901184,61.465874 
	C155.673935,63.066242 157.364914,65.035530 158.991486,67.753723 
	C154.522125,69.357101 150.117157,70.211578 145.458618,70.893890 
	C143.780502,69.151169 142.356003,67.580620 140.931488,66.010071 
z"/>
<path fill="#0E6ADF" opacity="1.000000" stroke="none" 
	d="
M47.743855,168.029999 
	C50.106823,175.862076 57.934723,175.436142 64.264191,173.626572 
	C64.905678,177.103378 62.745323,178.379532 59.973286,178.954147 
	C52.394512,180.525192 46.130463,177.074234 43.260391,169.462402 
	C44.948162,168.818161 46.346008,168.424072 47.743855,168.029999 
z"/>
<path fill="#0867E4" opacity="1.000000" stroke="none" 
	d="
M137.021240,171.000946 
	C138.043671,171.001907 139.066101,171.002899 140.508209,171.420563 
	C140.642227,174.126923 140.356598,176.416595 140.070953,178.706253 
	C137.409164,177.956085 135.042694,177.824966 132.111115,178.790680 
	C126.765678,180.551575 122.922882,177.330521 121.085320,170.394867 
	C122.568459,170.435699 123.985168,170.843872 125.961121,171.355255 
	C127.766769,173.063934 129.013184,174.669403 130.733688,176.885529 
	C133.081345,174.688309 135.051285,172.844635 137.021240,171.000946 
z"/>
<path fill="#1C8DF1" opacity="1.000000" stroke="none" 
	d="
M45.947598,155.788910 
	C50.115780,150.993317 55.406540,150.232574 61.131390,151.942184 
	C62.285240,152.286774 63.016945,154.044952 63.943283,155.151398 
	C62.739548,155.549011 61.489597,156.385178 60.340523,156.264084 
	C56.500710,155.859436 52.793976,155.535522 49.136967,158.866364 
	C47.596771,157.921753 46.772186,156.855331 45.947598,155.788910 
z"/>
<path fill="#0592F0" opacity="1.000000" stroke="none" 
	d="
M145.712219,71.066055 
	C150.117157,70.211578 154.522125,69.357101 159.018188,68.089767 
	C159.781677,69.069626 160.454025,70.462349 161.164917,72.187408 
	C160.048660,73.677475 159.079330,75.437973 157.698975,75.862686 
	C155.129059,76.653442 152.319839,76.666412 148.974258,76.850494 
	C147.930420,76.123215 147.522552,75.548584 147.008286,74.733139 
	C146.621658,74.310844 146.341431,74.129364 146.087097,73.921799 
	C146.112976,73.895714 146.130112,73.824257 146.126190,73.474174 
	C145.985580,72.438080 145.848892,71.752068 145.712219,71.066055 
z"/>
<path fill="#0A71E1" opacity="1.000000" stroke="none" 
	d="
M72.832153,163.003372 
	C72.832153,167.781998 72.832153,172.560623 72.832153,177.581863 
	C71.601662,177.922134 70.331764,178.273315 68.035393,178.908356 
	C68.035393,170.610413 68.035393,162.788635 68.357452,154.809601 
	C68.787621,156.278229 69.090149,157.919662 68.961868,159.526703 
	C68.722321,162.527725 70.273453,163.259293 72.832153,163.003372 
z"/>
<path fill="#0E6ADF" opacity="1.000000" stroke="none" 
	d="
M91.801666,170.586365 
	C92.930466,171.174789 94.059258,171.763214 95.502258,172.194901 
	C92.815994,180.246216 84.524033,181.705215 77.708130,174.899872 
	C78.480232,172.277832 79.388199,169.956406 80.552460,167.727875 
	C80.724594,171.134781 81.431305,174.109573 85.151299,174.947784 
	C88.678909,175.742676 90.408409,173.305359 91.801666,170.586365 
z"/>
<path fill="#0E76E1" opacity="1.000000" stroke="none" 
	d="
M45.637737,155.972778 
	C46.772186,156.855331 47.596771,157.921753 48.818787,159.021301 
	C48.751537,160.226990 48.286858,161.399582 47.294746,162.961792 
	C46.941235,164.544540 47.115154,165.737671 47.289078,166.930786 
	C47.557190,167.078812 47.707607,167.305069 47.742088,167.819778 
	C46.346008,168.424072 44.948162,168.818161 43.264763,169.098007 
	C40.814499,164.168350 42.713409,160.096985 45.637737,155.972778 
z"/>
<path fill="#0E6ADF" opacity="1.000000" stroke="none" 
	d="
M183.865143,174.570908 
	C184.192474,175.641464 184.519806,176.712036 184.924744,178.109665 
	C180.542191,179.813812 176.480469,179.431046 173.032059,175.422043 
	C173.722046,173.884933 174.543854,172.682480 175.741211,171.574127 
	C177.774170,175.105988 180.503265,175.683044 183.865143,174.570908 
z"/>
<path fill="#0682EC" opacity="1.000000" stroke="none" 
	d="
M72.905083,162.544647 
	C70.273453,163.259293 68.722321,162.527725 68.961868,159.526703 
	C69.090149,157.919662 68.787621,156.278229 68.427399,154.348480 
	C69.382805,153.007889 70.590332,151.971115 71.797859,150.934357 
	C72.191246,151.257416 72.584625,151.580490 72.978012,151.903564 
	C72.978012,155.297684 72.978012,158.691818 72.905083,162.544647 
z"/>
<path fill="#0682EC" opacity="1.000000" stroke="none" 
	d="
M167.156998,162.572784 
	C161.297043,163.849930 163.685425,159.105453 162.486816,156.368195 
	C162.034714,153.821548 161.211533,151.181412 165.674637,152.008087 
	C166.497269,152.565079 166.790024,152.779541 167.082779,152.994003 
	C167.128067,153.161011 167.173355,153.328003 166.869980,153.946991 
	C166.702957,155.602325 166.884583,156.805649 167.066223,158.008987 
	C167.127838,159.394547 167.189468,160.780090 167.156998,162.572784 
z"/>
<path fill="#067AEA" opacity="1.000000" stroke="none" 
	d="
M116.618973,159.200073 
	C116.983704,161.930206 117.269760,164.607971 116.841713,167.166245 
	C116.662254,168.238800 114.969666,169.058197 113.555458,169.992706 
	C113.102951,166.954758 113.059998,163.916763 113.270790,160.348969 
	C113.734970,159.674500 113.887901,159.483719 113.983315,159.246841 
	C114.739510,159.197708 115.495697,159.148575 116.618973,159.200073 
z"/>
<path fill="#0682EC" opacity="1.000000" stroke="none" 
	d="
M148.625809,151.751923 
	C149.006790,155.127426 149.006790,158.422577 149.006790,161.717728 
	C148.180222,161.754608 147.353638,161.791489 146.527069,161.828369 
	C146.351273,158.873581 146.175491,155.918793 145.995911,152.513885 
	C146.743011,151.933029 147.493927,151.802292 148.625809,151.751923 
z"/>
<path fill="#2FA2F6" opacity="1.000000" stroke="none" 
	d="
M141.497971,158.393921 
	C135.869217,159.106888 138.924683,154.792374 138.014084,152.157196 
	C144.992615,150.485214 140.544235,155.836655 141.497971,158.393921 
z"/>
<path fill="#2D75E3" opacity="1.000000" stroke="none" 
	d="
M194.685593,159.471466 
	C195.036911,167.822983 195.035568,176.374680 195.038269,185.384613 
	C194.739548,183.220428 194.211868,180.600800 194.179245,177.975037 
	C194.103500,171.875488 194.266632,165.772949 194.685593,159.471466 
z"/>
<path fill="#2FA2F6" opacity="1.000000" stroke="none" 
	d="
M140.464157,178.700745 
	C140.356598,176.416595 140.642227,174.126923 140.891510,171.428375 
	C140.935410,168.951904 141.015625,166.884354 141.270081,164.497742 
	C141.248672,169.017548 141.053009,173.856400 140.464157,178.700745 
z"/>
<path fill="#1373E1" opacity="1.000000" stroke="none" 
	d="
M167.187241,157.740479 
	C166.884583,156.805649 166.702957,155.602325 166.795593,154.195648 
	C167.149323,155.152206 167.228790,156.312088 167.187241,157.740479 
z"/>
<path fill="#0E6ADF" opacity="1.000000" stroke="none" 
	d="
M47.344910,166.549042 
	C47.115154,165.737671 46.941235,164.544540 47.107971,163.217041 
	C47.432667,164.110886 47.416702,165.139099 47.344910,166.549042 
z"/>
<path fill="#03B0F7" opacity="1.000000" stroke="none" 
	d="
M98.635742,70.043068 
	C98.750633,70.811668 98.544807,71.770920 98.022896,72.950302 
	C97.909546,72.191528 98.112289,71.212631 98.635742,70.043068 
z"/>
<path fill="#0E6ADF" opacity="1.000000" stroke="none" 
	d="
M96.002670,165.686310 
	C95.681114,165.500656 95.368576,164.999557 95.047989,164.185394 
	C95.363869,164.371857 95.687782,164.871368 96.002670,165.686310 
z"/>
<path fill="#0E6ADF" opacity="1.000000" stroke="none" 
	d="
M190.996399,165.788483 
	C190.763443,166.162949 190.541870,166.270660 190.320297,166.378372 
	C190.362045,166.014526 190.403793,165.650681 190.619873,165.159546 
	C190.865387,165.195404 190.936584,165.358551 190.996399,165.788483 
z"/>
<path fill="#0E6ADF" opacity="1.000000" stroke="none" 
	d="
M171.842285,173.373688 
	C172.187363,173.527145 172.556213,173.993088 172.922638,174.780121 
	C172.568817,174.629547 172.217438,174.157852 171.842285,173.373688 
z"/>
<path fill="#0E6ADF" opacity="1.000000" stroke="none" 
	d="
M171.211685,172.275299 
	C171.508362,172.182465 171.707092,172.410202 171.863647,172.939667 
	C171.558441,173.074844 171.322525,172.859680 171.211685,172.275299 
z"/>
<path fill="#0E6ADF" opacity="1.000000" stroke="none" 
	d="
M76.928787,173.291443 
	C77.164062,173.277466 77.419426,173.525299 77.615776,174.048172 
	C77.354141,174.066544 77.151512,173.809906 76.928787,173.291443 
z"/>
<path fill="#1373E1" opacity="1.000000" stroke="none" 
	d="
M113.743652,159.202713 
	C113.887901,159.483719 113.734970,159.674500 113.358154,159.901138 
	C113.036888,159.610229 113.140961,159.335373 113.743652,159.202713 
z"/>
<path fill="#1373E1" opacity="1.000000" stroke="none" 
	d="
M167.090424,152.661575 
	C166.790024,152.779541 166.497269,152.565079 166.094116,152.096359 
	C166.355179,152.004456 166.726624,152.166809 167.090424,152.661575 
z"/>
<path fill="#03B0F7" opacity="1.000000" stroke="none" 
	d="
M93.749619,76.074135 
	C93.745064,76.232948 93.489304,76.361008 93.128120,76.352707 
	C93.181267,76.158691 93.339836,76.101044 93.749619,76.074135 
z"/>
<path fill="#1C8DF1" opacity="1.000000" stroke="none" 
	d="
M145.152756,133.609909 
	C133.519852,133.866104 122.049530,133.760345 110.432228,133.046600 
	C120.279053,128.624985 130.215775,124.646782 140.317215,121.143509 
	C142.222275,120.482819 144.783051,121.712898 147.041260,122.070496 
	C146.465942,125.796318 145.890640,129.522141 145.152756,133.609909 
z"/>
<path fill="#1E99F4" opacity="1.000000" stroke="none" 
	d="
M147.302734,121.863022 
	C144.783051,121.712898 142.222275,120.482819 140.317215,121.143509 
	C130.215775,124.646782 120.279053,128.624985 110.122650,132.763672 
	C108.399979,131.929077 106.839897,130.769409 105.298904,128.995804 
	C106.117790,127.811165 106.840187,127.029541 107.729637,126.703125 
	C114.876480,124.080299 122.148590,121.771713 129.183777,118.883263 
	C132.672333,117.450958 135.742935,115.000717 139.432739,113.008682 
	C141.757416,112.698135 143.675888,112.042793 145.540451,112.171043 
	C147.786331,112.325523 150.891449,110.324837 152.049057,114.167915 
	C150.554092,116.663788 149.059143,119.159668 147.302734,121.863022 
z"/>
<path fill="#2FA2F6" opacity="1.000000" stroke="none" 
	d="
M152.404266,114.066559 
	C150.891449,110.324837 147.786331,112.325523 145.540451,112.171043 
	C143.675888,112.042793 141.757416,112.698135 139.228271,112.743568 
	C137.728531,112.320938 136.863342,112.161079 136.105530,111.741776 
	C136.472610,110.986084 136.732330,110.489838 137.286148,109.868156 
	C138.718704,109.160294 139.857162,108.577858 141.409836,107.996277 
	C150.487885,106.997986 159.140320,105.867790 167.825485,105.114822 
	C169.480957,104.971313 171.265594,106.318047 172.990646,106.977203 
	C172.721420,107.429779 172.452209,107.882355 172.055588,108.563995 
	C168.088333,109.524475 164.202728,110.077805 160.424301,111.048332 
	C157.793213,111.724174 155.309174,112.972572 152.404266,114.066559 
z"/>
<path fill="#3EDAFF" opacity="1.000000" stroke="none" 
	d="
M145.458618,70.893883 
	C145.848892,71.752068 145.985580,72.438080 145.709839,73.541039 
	C141.578400,75.763565 135.955231,73.322823 133.985931,79.030327 
	C133.985931,79.030327 133.515854,78.937782 133.284912,78.873817 
	C132.567032,78.266205 132.080063,77.722549 131.335083,77.074219 
	C130.244568,75.401222 129.412079,73.832916 128.322296,72.045593 
	C127.715546,70.459694 127.366096,69.092812 126.949295,67.372269 
	C126.609779,65.597000 126.337616,64.175400 126.088982,62.385490 
	C127.548035,61.572018 128.983551,61.126850 130.969742,60.810539 
	C131.520416,60.939396 131.980942,60.960976 131.980942,60.960976 
	C131.980942,60.960976 132.462051,61.040352 132.702225,61.080570 
	C135.404434,62.652931 137.866455,64.185066 140.629990,65.863647 
	C142.356003,67.580620 143.780502,69.151169 145.458618,70.893883 
z"/>
<path fill="#03B0F7" opacity="1.000000" stroke="none" 
	d="
M131.908218,60.803394 
	C131.980942,60.960976 131.520416,60.939396 131.294037,60.899132 
	C131.323608,60.787849 131.579559,60.716831 131.908218,60.803394 
z"/>
<path fill="#34C9FE" opacity="1.000000" stroke="none" 
	d="
M106.090210,100.017365 
	C111.945366,95.919228 117.558052,91.309792 126.023293,90.960007 
	C130.237823,91.346130 133.619675,91.732033 137.001007,92.534775 
	C136.999924,94.633286 136.999359,96.314964 136.592133,98.006104 
	C129.874603,99.639626 123.578773,101.325546 117.247871,102.867393 
	C112.530220,104.016342 107.767181,104.978905 103.017838,106.017921 
	C103.011322,106.011368 102.997795,105.998505 102.997795,105.998505 
	C103.677795,104.610649 104.357796,103.222794 105.092674,101.507217 
	C105.147552,101.179497 105.122971,101.100822 105.338623,100.999886 
	C105.732925,100.605087 105.911575,100.311226 106.090210,100.017365 
z"/>
<path fill="#28BAFC" opacity="1.000000" stroke="none" 
	d="
M140.995605,107.995422 
	C139.857162,108.577858 138.718704,109.160294 136.869659,109.869583 
	C127.351875,112.063660 118.553673,114.170418 109.732681,116.177063 
	C106.566414,116.897331 103.345253,117.376305 100.149139,117.965393 
	C100.121231,116.588791 100.093323,115.212173 100.082642,113.422241 
	C100.525482,111.810562 100.951088,110.612213 101.904907,109.203812 
	C102.622841,108.997734 102.812538,109.001701 103.240257,109.279007 
	C113.983681,107.701370 124.489098,105.850380 135.432312,104.000153 
	C137.910553,104.000900 139.951004,104.000893 141.960571,104.345879 
	C141.618332,105.792389 141.306961,106.893906 140.995605,107.995422 
z"/>
<path fill="#34C9FE" opacity="1.000000" stroke="none" 
	d="
M103.002243,109.005661 
	C102.812538,109.001701 102.622841,108.997734 102.147713,108.979279 
	C102.071564,108.116676 102.280830,107.268555 102.743942,106.209473 
	C102.997795,105.998505 103.011322,106.011368 103.009140,106.390114 
	C103.005386,107.514458 103.003815,108.260063 103.002243,109.005661 
z"/>
<path fill="#40D1FF" opacity="1.000000" stroke="none" 
	d="
M134.084885,79.270912 
	C135.955231,73.322823 141.578400,75.763565 145.713776,73.891121 
	C146.130112,73.824257 146.112976,73.895714 146.185379,74.161285 
	C146.543411,74.609215 146.829056,74.791588 147.114685,74.973953 
	C147.522552,75.548584 147.930420,76.123215 148.539307,76.872604 
	C149.181351,79.742043 149.622406,82.436722 149.727173,85.586548 
	C147.604736,86.690407 145.818588,87.339104 143.984970,87.641869 
	C140.983978,85.125595 138.030457,82.955261 135.076935,80.784927 
	C134.779236,80.360451 134.481537,79.935974 134.084885,79.270912 
z"/>
<path fill="#067AEA" opacity="1.000000" stroke="none" 
	d="
M135.047714,81.183235 
	C138.030457,82.955261 140.983978,85.125595 143.807068,87.942978 
	C141.451584,89.765991 139.226547,90.941963 137.001511,92.117935 
	C133.619675,91.732033 130.237823,91.346130 126.433395,90.922783 
	C125.614746,86.965515 129.155823,86.876701 131.281357,85.332779 
	C132.691391,84.308578 133.783875,82.847214 135.047714,81.183235 
z"/>
<path fill="#067AEA" opacity="1.000000" stroke="none" 
	d="
M105.852867,100.115646 
	C105.911575,100.311226 105.732925,100.605087 105.306229,100.974426 
	C105.243950,100.771240 105.429733,100.492577 105.852867,100.115646 
z"/>
<path fill="#F8FBFE" opacity="1.000000" stroke="none" 
	d="
M204.413361,175.237839 
	C199.371719,175.503540 198.644745,171.960220 199.326828,168.846695 
	C199.806839,166.655548 202.103653,163.833847 204.095291,163.341751 
	C205.574387,162.976273 208.989365,165.558151 209.554993,167.428207 
	C210.641708,171.021133 208.939117,174.136475 204.413361,175.237839 
z"/>
<path fill="#23ABF9" opacity="1.000000" stroke="none" 
	d="
M100.143013,118.340271 
	C103.345253,117.376305 106.566414,116.897331 109.732681,116.177063 
	C118.553673,114.170418 127.351875,112.063660 136.575562,109.995010 
	C136.732330,110.489838 136.472610,110.986084 135.731873,111.782562 
	C124.784096,116.168312 114.311615,120.239349 103.870506,124.389351 
	C103.427368,124.565483 103.275269,125.473831 102.987587,126.041069 
	C102.037354,123.599091 101.087120,121.157112 100.143013,118.340271 
z"/>
<path fill="#23A2F6" opacity="1.000000" stroke="none" 
	d="
M103.020332,126.356895 
	C103.275269,125.473831 103.427368,124.565483 103.870506,124.389351 
	C114.311615,120.239349 124.784096,116.168312 135.624496,112.042000 
	C136.863342,112.161079 137.728531,112.320938 138.798172,112.745911 
	C135.742935,115.000717 132.672333,117.450958 129.183777,118.883263 
	C122.148590,121.771713 114.876480,124.080299 107.729637,126.703125 
	C106.840187,127.029541 106.117790,127.811165 105.156342,128.696304 
	C104.347496,128.231400 103.700294,127.452057 103.020332,126.356895 
z"/>
<path fill="#F8FBFE" opacity="1.000000" stroke="none" 
	d="
M184.054932,174.321381 
	C180.503265,175.683044 177.774170,175.105988 175.984222,171.323975 
	C176.084396,169.205154 175.790436,167.069107 176.692902,165.754303 
	C177.659897,164.345474 180.155167,162.585739 181.266327,162.983322 
	C183.242935,163.690552 184.679092,165.908279 186.483093,168.033112 
	C186.682419,168.730743 186.739944,168.889496 186.797485,169.048248 
	C185.946564,170.722778 185.095642,172.397324 184.054932,174.321381 
z"/>
<path fill="#0E6ADF" opacity="1.000000" stroke="none" 
	d="
M190.462280,170.447327 
	C190.519028,170.412262 190.405533,170.482376 190.462280,170.447327 
z"/>
<path fill="#0E6ADF" opacity="1.000000" stroke="none" 
	d="
M186.991257,168.955627 
	C186.739944,168.889496 186.682419,168.730743 186.676697,168.324020 
	C186.880661,168.338364 187.032852,168.600677 186.991257,168.955627 
z"/>
<path fill="#F8FBFE" opacity="1.000000" stroke="none" 
	d="
M136.988190,170.600983 
	C135.051285,172.844635 133.081345,174.688309 130.733688,176.885529 
	C129.013184,174.669403 127.766769,173.063934 126.266403,171.226395 
	C126.010361,170.178650 125.912865,169.349869 126.022911,168.549622 
	C126.468353,165.310333 128.069916,162.747086 131.560898,162.947723 
	C135.834473,163.193314 137.090469,166.334885 136.988190,170.600983 
z"/>
<path fill="#F8FBFE" opacity="1.000000" stroke="none" 
	d="
M91.759674,170.433990 
	C90.408409,173.305359 88.678909,175.742676 85.151299,174.947784 
	C81.431305,174.109573 80.724594,171.134781 80.773460,167.411163 
	C84.539352,161.370987 87.617599,161.235596 91.402870,167.187469 
	C91.735481,168.564941 91.823212,169.298187 91.910942,170.031448 
	C91.910942,170.031448 91.717690,170.281601 91.759674,170.433990 
z"/>
<path fill="#0E6ADF" opacity="1.000000" stroke="none" 
	d="
M92.185806,169.836823 
	C91.823212,169.298187 91.735481,168.564941 91.609589,167.463715 
	C91.867844,167.944565 92.164261,168.793365 92.185806,169.836823 
z"/>
<path fill="#3EC4FD" opacity="1.000000" stroke="none" 
	d="
M137.001007,92.534775 
	C139.226547,90.941963 141.451584,89.765991 143.854523,88.288910 
	C145.818588,87.339104 147.604736,86.690407 149.754364,85.990387 
	C153.847687,86.153893 157.577530,86.368729 161.672028,86.686218 
	C164.607452,88.319344 167.178207,89.849831 169.555435,91.830963 
	C167.703918,92.718231 166.045898,93.154861 163.998169,93.694122 
	C163.998169,95.523331 163.998169,97.258110 163.748169,98.997536 
	C163.331482,99.003693 163.164795,99.005203 162.833954,98.760086 
	C162.117386,98.339638 161.564987,98.165817 160.969604,97.670670 
	C160.285919,96.890823 159.645233,96.432320 158.928726,95.607292 
	C157.554825,94.996971 156.191254,94.367317 154.969757,94.574684 
	C148.959549,95.595016 142.987045,96.837486 137.000610,98.000763 
	C137.000000,98.000000 136.998779,97.996643 136.998779,97.996643 
	C136.999359,96.314964 136.999924,94.633286 137.001007,92.534775 
z"/>
<path fill="#35ABF8" opacity="1.000000" stroke="none" 
	d="
M159.004547,95.973816 
	C159.645233,96.432320 160.285919,96.890823 160.994873,97.964661 
	C161.708130,98.722221 162.353134,98.864464 162.998123,99.006706 
	C163.164795,99.005203 163.331482,99.003693 164.157471,98.999931 
	C168.197662,99.324196 171.578552,99.650719 174.959442,99.977249 
	C174.985855,100.427681 175.012268,100.878113 174.794556,101.805222 
	C174.681274,102.843010 174.812103,103.404114 174.942917,103.965218 
	C174.462692,104.859055 173.982468,105.752892 173.246445,106.811974 
	C171.265594,106.318047 169.480957,104.971313 167.825485,105.114822 
	C159.140320,105.867790 150.487885,106.997986 141.409836,107.996277 
	C141.306961,106.893906 141.618332,105.792389 142.303894,104.197639 
	C143.457153,103.466286 144.300552,103.348152 145.004868,102.970581 
	C149.605301,100.504333 155.814987,101.250511 159.004547,95.973816 
z"/>
<path fill="#37B8FC" opacity="1.000000" stroke="none" 
	d="
M174.956635,99.652939 
	C171.578552,99.650719 168.197662,99.324196 164.407471,98.995277 
	C163.998169,97.258110 163.998169,95.523331 163.998169,93.694122 
	C166.045898,93.154861 167.703918,92.718231 169.729843,92.123093 
	C170.665039,92.458221 171.232330,92.951874 171.928040,94.029556 
	C172.442657,95.064003 172.828827,95.514420 173.214996,95.964828 
	C173.794601,97.086098 174.374222,98.207359 174.956635,99.652939 
z"/>
<path fill="#3EC4FD" opacity="1.000000" stroke="none" 
	d="
M173.127319,95.676193 
	C172.828827,95.514420 172.442657,95.064003 172.030823,94.296967 
	C172.349976,94.449417 172.694809,94.918488 173.127319,95.676193 
z"/>
<path fill="#37B8FC" opacity="1.000000" stroke="none" 
	d="
M174.977539,103.639709 
	C174.812103,103.404114 174.681274,102.843010 174.775055,102.143242 
	C175.003845,102.441116 175.008011,102.877655 174.977539,103.639709 
z"/>
<path fill="#3EDAFF" opacity="1.000000" stroke="none" 
	d="
M147.008286,74.733139 
	C146.829056,74.791588 146.543411,74.609215 146.159485,74.187363 
	C146.341431,74.129364 146.621658,74.310844 147.008286,74.733139 
z"/>
<path fill="#2FBEFD" opacity="1.000000" stroke="none" 
	d="
M103.240257,109.279007 
	C103.003815,108.260063 103.005386,107.514458 103.015656,106.396667 
	C107.767181,104.978905 112.530220,104.016342 117.247871,102.867393 
	C123.578773,101.325546 129.874603,99.639626 136.592133,98.006104 
	C136.998779,97.996643 137.000000,98.000000 136.961929,98.357353 
	C136.280731,100.476265 135.637619,102.237831 134.994507,103.999390 
	C124.489098,105.850380 113.983681,107.701370 103.240257,109.279007 
z"/>
<path fill="#37B8FC" opacity="1.000000" stroke="none" 
	d="
M135.432312,104.000153 
	C135.637619,102.237831 136.280731,100.476265 136.962540,98.358124 
	C142.987045,96.837486 148.959549,95.595016 154.969757,94.574684 
	C156.191254,94.367317 157.554825,94.996971 158.928726,95.607292 
	C155.814987,101.250511 149.605301,100.504333 145.004868,102.970581 
	C144.300552,103.348152 143.457153,103.466286 142.334778,103.852646 
	C139.951004,104.000893 137.910553,104.000900 135.432312,104.000153 
z"/>
<path fill="#37B8FC" opacity="1.000000" stroke="none" 
	d="
M162.833954,98.760086 
	C162.353134,98.864464 161.708130,98.722221 161.037872,98.285995 
	C161.564987,98.165817 162.117386,98.339638 162.833954,98.760086 
z"/>
</svg>