<svg version="1.1" id="Layer_1" xmlns="http://www.w3.org/2000/svg" xmlns:xlink="http://www.w3.org/1999/xlink" x="0px" y="0px"
	 width="100%" viewBox="0 0 183 161" enable-background="new 0 0 183 161" xml:space="preserve">
<path fill="#002B55" opacity="1.000000" stroke="none" 
	d="
M80.000000,1.000000 
	C94.687561,1.000000 109.375122,1.000000 124.702347,1.300782 
	C126.860535,2.534601 128.290863,3.674462 129.912399,4.365857 
	C138.131577,7.870346 146.503677,11.032566 154.624878,14.746208 
	C164.117020,19.086742 173.064911,24.841829 184.000000,25.000000 
	C184.000000,27.700014 184.000000,30.400026 183.594711,33.497105 
	C173.603760,33.195698 165.163742,29.203468 157.515045,23.878317 
	C144.532227,14.839479 130.221939,9.209764 114.808762,6.628141 
	C103.521896,4.737654 92.347214,5.848853 81.512276,10.329618 
	C58.732536,19.750128 43.435844,38.100471 26.699986,54.916023 
	C19.499266,62.151035 10.895913,67.992149 2.895900,74.424370 
	C2.418365,74.808319 1.638943,74.816803 1.000000,75.000000 
	C1.000000,68.645599 1.000000,62.291203 1.351814,55.412304 
	C3.007062,54.203484 4.480482,53.723385 5.586927,52.802406 
	C14.123705,45.696583 23.012085,38.941906 30.973267,31.233351 
	C41.618088,20.926317 54.186428,14.260662 67.667580,8.707975 
	C72.086914,6.887717 75.906273,3.610788 80.000000,1.000000 
z"/>
<path fill="#024785" opacity="1.000000" stroke="none" 
	d="
M184.000000,142.000000 
	C184.000000,145.361282 184.000000,148.722580 183.580841,152.568726 
	C171.738876,154.828201 160.289322,156.451462 148.908554,158.463715 
	C145.180481,159.122864 141.631104,160.792480 138.000000,162.000000 
	C127.312439,162.000000 116.624878,162.000000 105.580826,161.679169 
	C105.737122,160.513550 106.156181,159.591629 106.777802,158.836441 
	C111.010612,153.694153 110.537163,151.559509 104.389687,148.911880 
	C103.193420,148.396667 101.852837,148.121475 100.551079,147.962051 
	C93.218132,147.064041 85.729614,146.867279 78.579865,145.203568 
	C71.541084,143.565674 64.842812,140.464508 57.746292,138.004257 
	C57.497452,138.003128 56.999767,138.000229 56.856926,137.748978 
	C56.140945,137.000641 55.567802,136.503555 54.627659,135.918854 
	C47.841106,133.219894 41.421551,130.608551 34.880589,127.671387 
	C32.838570,126.231941 30.917965,125.118317 28.845371,123.768753 
	C28.459156,123.023979 28.224922,122.515129 27.992332,121.629745 
	C27.992973,120.500137 27.991972,119.747063 27.990189,118.618973 
	C27.986546,117.493896 27.983683,116.743858 28.130974,115.759102 
	C28.511118,115.018242 28.741108,114.512085 28.978588,113.630730 
	C28.993233,112.505058 29.000383,111.754601 29.011669,110.993774 
	C29.015802,110.983414 29.023819,110.962593 29.183701,110.807182 
	C29.555161,110.442749 29.762384,110.229492 30.224289,110.012894 
	C30.656004,110.013107 30.828691,110.012436 31.144850,110.261871 
	C31.861387,111.009773 32.434452,111.507568 32.878361,112.369598 
	C31.497141,116.451653 32.260021,118.962212 35.786774,121.518188 
	C39.358173,124.106529 41.301254,129.108566 47.114452,128.325897 
	C48.859222,131.998199 51.621582,132.710251 55.248482,131.997253 
	C55.497952,131.998703 55.996887,132.001907 56.155472,132.302277 
	C60.544235,134.396759 64.774414,136.190872 69.337921,137.986191 
	C70.115768,137.989197 70.560280,137.990982 71.282501,138.210434 
	C76.040115,139.619461 80.520035,140.810822 85.291061,142.142715 
	C87.054863,142.187836 88.527565,142.092422 90.437683,141.996979 
	C92.916420,141.998474 94.957718,142.000015 97.164482,142.272278 
	C100.070885,143.270996 102.834862,143.922562 105.548683,144.740494 
	C115.890106,147.857346 126.492928,147.365417 137.045120,146.826370 
	C143.815506,146.480530 151.373169,136.859619 149.958466,130.657440 
	C149.610046,129.211227 149.303146,128.107605 148.970123,126.586098 
	C148.366928,122.220543 147.984436,118.232307 147.171829,114.333717 
	C145.533920,106.475601 148.423233,100.021423 152.973694,94.399185 
	C150.092087,103.315353 149.463470,111.888367 152.065186,120.612152 
	C153.477783,125.348732 155.136520,130.082458 155.849213,134.939972 
	C156.814377,141.518356 158.719513,143.884262 165.214676,143.592529 
	C171.487640,143.310760 177.739090,142.550232 184.000000,142.000000 
z"/>
<path fill="#012750" opacity="1.000000" stroke="none" 
	d="
M79.531342,1.000000 
	C75.906273,3.610788 72.086914,6.887717 67.667580,8.707975 
	C54.186428,14.260662 41.618088,20.926317 30.973267,31.233351 
	C23.012085,38.941906 14.123705,45.696583 5.586927,52.802406 
	C4.480482,53.723385 3.007062,54.203484 1.351814,54.943901 
	C1.000000,47.979053 1.000000,40.958103 1.312265,33.339569 
	C5.447997,29.893196 9.264804,27.035421 13.096371,24.197575 
	C20.244329,18.903442 27.381746,13.594742 34.562141,8.344887 
	C37.995907,5.834332 41.517944,3.444505 45.000000,1.000000 
	C56.354229,1.000000 67.708458,1.000000 79.531342,1.000000 
z"/>
<path fill="#00386D" opacity="1.000000" stroke="none" 
	d="
M184.000000,71.000000 
	C184.000000,78.020950 184.000000,85.041893 183.615875,92.480957 
	C173.375778,92.008202 168.790466,85.357086 165.669357,76.985733 
	C164.171188,72.967377 162.706085,68.885155 160.683411,65.123619 
	C154.799927,54.182144 146.389038,45.234894 137.274033,36.968117 
	C135.285233,35.164398 132.448334,34.295815 129.831482,32.834042 
	C129.436111,32.452049 129.216599,32.227398 128.876373,31.683191 
	C124.166901,28.911110 119.583458,26.453419 114.693893,23.916592 
	C113.593719,23.555857 112.799667,23.274260 111.829300,22.716568 
	C110.100441,21.630003 108.547882,20.819532 106.596443,20.009163 
	C105.133842,20.008993 104.070122,20.008722 102.576675,20.006252 
	C100.429153,20.005548 98.711372,20.007048 96.662231,20.009274 
	C95.889069,20.009821 95.447266,20.009642 94.741928,20.106264 
	C93.985756,20.469841 93.493126,20.736614 92.644333,21.101763 
	C90.400627,21.837231 88.449013,22.330141 86.636299,23.135649 
	C77.347221,27.263416 70.481300,34.254230 67.901169,43.822311 
	C66.114853,50.446663 62.696827,54.829288 57.961021,59.218075 
	C52.299671,64.464584 44.406982,67.344261 40.661568,75.113449 
	C38.552906,76.832718 36.757732,78.409691 34.674034,80.147041 
	C32.256393,82.871277 30.127275,85.435135 28.023869,87.619339 
	C28.569868,85.681229 28.766132,83.896164 29.668943,82.605217 
	C32.850998,78.055130 36.110523,73.536919 39.665588,69.277832 
	C42.053249,66.417336 44.919903,63.937168 47.706280,61.436161 
	C49.417301,59.900379 51.932621,59.012344 53.134663,57.201454 
	C57.958118,49.934834 62.409870,42.421478 66.999519,34.999668 
	C67.000000,35.000000 66.999306,34.999336 67.229462,34.797325 
	C67.973450,33.730473 68.487289,32.865631 69.000565,32.000393 
	C69.000000,32.000000 69.001015,32.000835 69.272713,31.809092 
	C74.742004,27.794731 79.501984,23.053888 85.222137,20.327768 
	C100.249458,13.166031 114.334869,17.919655 127.962334,25.292406 
	C142.964371,33.408821 153.413895,46.402531 164.185715,59.006161 
	C169.545197,65.277046 175.593369,69.973488 184.000000,71.000000 
z"/>
<path fill="#003161" opacity="1.000000" stroke="none" 
	d="
M184.000000,52.000000 
	C184.000000,54.041668 184.000000,56.083332 183.608948,58.538284 
	C181.461029,58.487755 179.656128,58.156101 177.955231,57.538193 
	C168.502350,54.104092 160.919540,47.937046 154.227753,40.671215 
	C142.585541,28.030287 128.210678,20.231453 111.682747,16.208721 
	C97.101440,12.659781 83.993980,15.690445 72.818359,25.833912 
	C71.097664,27.395691 70.251579,29.921087 69.001015,32.000835 
	C69.001015,32.000835 69.000000,32.000000 68.739807,32.171951 
	C67.986176,33.229050 67.492744,34.114193 66.999306,34.999336 
	C66.999306,34.999336 67.000000,35.000000 66.679344,35.114700 
	C65.234200,36.176289 63.984818,37.009567 63.004349,38.087452 
	C51.971603,50.216335 40.972137,62.375546 29.988146,74.548637 
	C28.661406,76.019012 27.303490,77.509674 26.259869,79.178452 
	C22.393158,85.361427 19.165682,92.023911 14.708430,97.733719 
	C10.833290,102.697838 5.621248,106.618324 1.000001,111.000000 
	C1.000000,107.307091 1.000000,103.614182 1.352766,99.404236 
	C2.883422,98.308807 4.359208,98.005791 5.190270,97.106789 
	C10.134933,91.757805 14.966668,86.302635 19.764355,80.820152 
	C23.368963,76.701035 26.733139,72.365555 30.437006,68.340477 
	C38.859848,59.187202 47.513634,50.245728 55.895775,41.056019 
	C59.920395,36.643654 63.179813,31.495874 67.417847,27.323112 
	C77.522888,17.373718 89.583916,10.891255 104.094055,12.256394 
	C122.123009,13.952587 138.109619,21.203648 151.733047,33.261604 
	C161.250519,41.685410 171.029236,49.565647 184.000000,52.000000 
z"/>
<path fill="#002F5E" opacity="1.000000" stroke="none" 
	d="
M184.000000,51.555836 
	C171.029236,49.565647 161.250519,41.685410 151.733047,33.261604 
	C138.109619,21.203648 122.123009,13.952587 104.094055,12.256394 
	C89.583916,10.891255 77.522888,17.373718 67.417847,27.323112 
	C63.179813,31.495874 59.920395,36.643654 55.895775,41.056019 
	C47.513634,50.245728 38.859848,59.187202 30.437006,68.340477 
	C26.733139,72.365555 23.368963,76.701035 19.764355,80.820152 
	C14.966668,86.302635 10.134933,91.757805 5.190270,97.106789 
	C4.359208,98.005791 2.883422,98.308807 1.352766,98.943604 
	C1.000000,95.969406 1.000000,92.938812 1.321944,89.340561 
	C2.357335,88.357788 3.167881,88.050804 3.769226,87.510834 
	C9.853503,82.047676 16.009377,76.657646 21.932396,71.023430 
	C27.444983,65.779625 32.857300,60.410309 38.018955,54.823872 
	C42.387875,50.095413 46.086460,44.739849 50.528770,40.088821 
	C56.803177,33.519615 63.489475,27.343815 70.170471,20.837286 
	C70.566322,20.455191 70.785912,20.230280 71.251221,19.857204 
	C72.002060,19.143227 72.501663,18.572042 73.347626,17.915123 
	C75.795937,16.886118 77.897881,15.942844 80.331161,14.909970 
	C82.441658,13.880270 84.220833,12.940171 86.354584,11.916623 
	C88.139343,11.555006 89.569527,11.276838 91.314926,10.948639 
	C92.420090,10.599048 93.210045,10.299489 94.333298,9.999739 
	C95.111008,9.999293 95.555405,9.999040 96.466217,9.999105 
	C121.396530,9.193388 141.493912,19.280155 160.077164,34.224880 
	C166.763336,39.601921 174.730576,43.929756 184.000000,44.000000 
	C184.000000,46.370556 184.000000,48.741116 184.000000,51.555836 
z"/>
<path fill="#00386D" opacity="1.000000" stroke="none" 
	d="
M12.000002,162.000000 
	C8.368575,162.000000 4.737150,162.000000 1.000000,162.000000 
	C1.000000,150.645950 1.000000,139.291626 1.292820,127.311378 
	C7.535489,119.445709 13.596729,112.292549 19.344835,104.896042 
	C20.550524,103.344597 20.293837,100.733170 21.264162,98.903534 
	C22.562473,96.455452 24.400152,94.293419 26.006535,92.414597 
	C26.672512,94.880234 27.338177,96.939819 28.086216,99.331604 
	C28.453266,100.768578 28.737944,101.873337 28.931149,103.349243 
	C28.559460,105.480103 28.279247,107.239830 27.760561,109.212532 
	C26.015650,110.618690 24.509212,111.811867 22.655762,112.967392 
	C18.732380,112.003922 16.669086,113.421463 16.001133,117.000885 
	C16.000000,117.000000 16.001812,117.001602 15.731416,117.200195 
	C10.142850,122.904503 10.330820,123.400253 16.389128,128.226013 
	C20.721653,131.677094 25.412052,135.765396 23.213915,141.988556 
	C21.449291,146.984390 17.990290,151.379410 15.304475,156.053299 
	C14.174721,158.019302 13.099833,160.016815 12.000002,162.000000 
z"/>
<path fill="#002D59" opacity="1.000000" stroke="none" 
	d="
M95.999809,9.998787 
	C95.555405,9.999040 95.111008,9.999293 94.092148,9.896675 
	C92.678360,10.195427 91.839035,10.597050 90.999710,10.998671 
	C89.569527,11.276838 88.139343,11.555006 86.075798,11.827730 
	C83.628235,12.881380 81.814026,13.940475 79.999825,14.999571 
	C77.897881,15.942844 75.795937,16.886118 73.096268,18.057779 
	C71.999031,18.857447 71.499519,19.428722 71.000000,20.000000 
	C70.785912,20.230280 70.566322,20.455191 69.807510,20.886656 
	C63.142544,25.787668 56.463520,29.920382 51.005890,35.293655 
	C42.391743,43.774658 34.735012,53.219086 26.397646,61.994072 
	C22.294832,66.312241 17.635010,70.113670 13.115648,74.019821 
	C9.158161,77.440338 5.044610,80.680283 0.999999,84.000000 
	C1.000000,81.299988 1.000000,78.599968 1.000000,75.449982 
	C1.638943,74.816803 2.418365,74.808319 2.895900,74.424370 
	C10.895913,67.992149 19.499266,62.151035 26.699986,54.916023 
	C43.435844,38.100471 58.732536,19.750128 81.512276,10.329618 
	C92.347214,5.848853 103.521896,4.737654 114.808762,6.628141 
	C130.221939,9.209764 144.532227,14.839479 157.515045,23.878317 
	C165.163742,29.203468 173.603760,33.195698 183.594711,33.947083 
	C184.000000,36.041668 184.000000,38.083332 183.585388,40.558910 
	C175.782684,37.830063 167.471741,35.913239 161.188187,31.259193 
	C145.494263,19.635139 128.908859,10.639365 109.327942,8.395589 
	C105.003258,7.900023 100.448578,9.411499 95.999809,9.998787 
z"/>
<path fill="#01407B" opacity="1.000000" stroke="none" 
	d="
M35.001999,127.997208 
	C41.421551,130.608551 47.841106,133.219894 54.771393,136.169342 
	C55.854671,137.005020 56.427219,137.502625 56.999763,138.000229 
	C56.999767,138.000229 57.497452,138.003128 57.863594,138.326141 
	C60.066433,140.219849 61.679283,142.259140 63.785641,143.265289 
	C68.408356,145.473419 73.274849,147.173889 78.052994,149.053223 
	C83.576576,151.225708 84.119926,154.020721 79.917313,158.104965 
	C78.768295,159.221619 77.963013,160.691971 77.000000,162.000000 
	C66.979103,162.000000 56.958210,162.000000 46.525963,161.645508 
	C47.805649,158.255035 49.686871,155.304337 51.103294,152.145233 
	C51.759884,150.680817 52.307404,148.057220 51.542072,147.248779 
	C47.128464,142.586548 42.524006,138.045212 37.558159,133.983841 
	C33.354073,130.545502 28.564701,127.824692 24.048248,124.765808 
	C20.316837,122.238594 21.310085,119.972641 24.509007,117.920403 
	C25.620720,117.207191 26.820995,116.632027 27.980820,115.993813 
	C27.983683,116.743858 27.986546,117.493896 27.772232,118.758652 
	C27.700270,120.184334 27.845480,121.095306 27.990690,122.006279 
	C28.224922,122.515129 28.459156,123.023979 29.057461,124.020050 
	C31.281687,125.670578 33.141842,126.833893 35.001999,127.997208 
z"/>
<path fill="#012348" opacity="1.000000" stroke="none" 
	d="
M44.531342,1.000000 
	C41.517944,3.444505 37.995907,5.834332 34.562141,8.344887 
	C27.381746,13.594742 20.244329,18.903442 13.096371,24.197575 
	C9.264804,27.035421 5.447997,29.893196 1.312265,32.870991 
	C1.000000,22.395117 1.000000,11.790235 1.000000,1.000000 
	C15.353696,1.000000 29.708189,1.000000 44.531342,1.000000 
z"/>
<path fill="#003365" opacity="1.000000" stroke="none" 
	d="
M69.272713,31.809092 
	C70.251579,29.921087 71.097664,27.395691 72.818359,25.833912 
	C83.993980,15.690445 97.101440,12.659781 111.682747,16.208721 
	C128.210678,20.231453 142.585541,28.030287 154.227753,40.671215 
	C160.919540,47.937046 168.502350,54.104092 177.955231,57.538193 
	C179.656128,58.156101 181.461029,58.487755 183.608948,58.975784 
	C184.000000,62.692909 184.000000,66.385818 184.000000,70.539368 
	C175.593369,69.973488 169.545197,65.277046 164.185715,59.006161 
	C153.413895,46.402531 142.964371,33.408821 127.962334,25.292406 
	C114.334869,17.919655 100.249458,13.166031 85.222137,20.327768 
	C79.501984,23.053888 74.742004,27.794731 69.272713,31.809092 
z"/>
<path fill="#013E77" opacity="1.000000" stroke="none" 
	d="
M28.130974,115.759102 
	C26.820995,116.632027 25.620720,117.207191 24.509007,117.920403 
	C21.310085,119.972641 20.316837,122.238594 24.048248,124.765808 
	C28.564701,127.824692 33.354073,130.545502 37.558159,133.983841 
	C42.524006,138.045212 47.128464,142.586548 51.542072,147.248779 
	C52.307404,148.057220 51.759884,150.680817 51.103294,152.145233 
	C49.686871,155.304337 47.805649,158.255035 46.057304,161.645508 
	C39.978848,162.000000 33.957695,162.000000 27.581541,161.677689 
	C29.382259,158.232224 31.352354,154.958511 33.735867,152.020142 
	C37.610062,147.244080 36.641491,142.377869 33.271049,138.412872 
	C29.782597,134.309036 25.595522,130.436203 20.961618,127.770073 
	C16.239836,125.053368 14.387601,122.111671 16.001812,117.001602 
	C16.001812,117.001602 16.000000,117.000000 16.351559,116.913849 
	C18.803001,115.553474 20.902887,114.279259 23.002773,113.005043 
	C24.509212,111.811867 26.015650,110.618690 28.002840,109.011253 
	C29.323973,107.396393 30.164352,106.195793 31.146500,105.286575 
	C31.192636,107.055885 31.097006,108.533829 31.001377,110.011765 
	C30.828691,110.012436 30.656004,110.013107 30.066906,110.170670 
	C29.440554,110.538208 29.231663,110.749886 29.023819,110.962593 
	C29.023819,110.962593 29.015802,110.983414 28.822603,111.160728 
	C28.743301,112.227341 28.857199,113.116638 28.971096,114.005936 
	C28.741108,114.512085 28.511118,115.018242 28.130974,115.759102 
z"/>
<path fill="#014481" opacity="1.000000" stroke="none" 
	d="
M184.000000,141.539368 
	C177.739090,142.550232 171.487640,143.310760 165.214676,143.592529 
	C158.719513,143.884262 156.814377,141.518356 155.849213,134.939972 
	C155.136520,130.082458 153.477783,125.348732 152.065186,120.612152 
	C149.463470,111.888367 150.092087,103.315353 153.065475,94.035370 
	C154.446793,89.516518 155.712051,85.761314 157.138809,82.356689 
	C156.919052,86.595436 156.784256,90.527130 156.106659,94.362930 
	C154.570480,103.059090 153.180420,111.647644 157.089874,120.164368 
	C160.454926,127.495125 167.020660,131.275009 175.067535,130.352615 
	C178.019699,130.014206 181.021072,130.104996 184.000000,130.000000 
	C184.000000,133.692902 184.000000,137.385818 184.000000,141.539368 
z"/>
<path fill="#01407B" opacity="1.000000" stroke="none" 
	d="
M184.000000,129.539368 
	C181.021072,130.104996 178.019699,130.014206 175.067535,130.352615 
	C167.020660,131.275009 160.454926,127.495125 157.089874,120.164368 
	C153.180420,111.647644 154.570480,103.059090 156.106659,94.362930 
	C156.784256,90.527130 156.919052,86.595436 157.063934,82.021202 
	C156.551224,80.223686 156.274902,79.112251 156.141266,77.678299 
	C156.975327,71.668007 154.684509,67.077370 150.892029,62.670887 
	C148.854416,59.228981 146.926910,56.114872 145.319885,53.104931 
	C147.092911,53.806664 148.545456,54.404224 149.999313,55.250671 
	C150.000641,55.499550 150.003662,55.997307 150.114059,56.327427 
	C157.795334,67.936447 161.301651,80.240318 159.708298,93.866226 
	C157.714767,110.914009 163.955032,117.957291 181.016388,117.999313 
	C182.010925,118.001762 183.005463,117.999870 184.000000,118.000000 
	C184.000000,121.692909 184.000000,125.385826 184.000000,129.539368 
z"/>
<path fill="#003365" opacity="1.000000" stroke="none" 
	d="
M26.006220,92.008545 
	C24.400152,94.293419 22.562473,96.455452 21.264162,98.903534 
	C20.293837,100.733170 20.550524,103.344597 19.344835,104.896042 
	C13.596729,112.292549 7.535489,119.445709 1.292820,126.842720 
	C1.000000,121.977905 1.000000,116.955818 1.000001,111.466858 
	C5.621248,106.618324 10.833290,102.697838 14.708430,97.733719 
	C19.165682,92.023911 22.393158,85.361427 26.259869,79.178452 
	C27.303490,77.509674 28.661406,76.019012 29.988146,74.548637 
	C40.972137,62.375546 51.971603,50.216335 63.004349,38.087452 
	C63.984818,37.009567 65.234200,36.176289 66.678864,35.114372 
	C62.409870,42.421478 57.958118,49.934834 53.134663,57.201454 
	C51.932621,59.012344 49.417301,59.900379 47.706280,61.436161 
	C44.919903,63.937168 42.053249,66.417336 39.665588,69.277832 
	C36.110523,73.536919 32.850998,78.055130 29.668943,82.605217 
	C28.766132,83.896164 28.569868,85.681229 28.024788,87.619843 
	C28.000000,88.000000 27.998131,87.998505 27.729782,88.192749 
	C26.976879,89.592484 26.492325,90.797958 26.004124,92.001877 
	C26.000481,92.000305 26.006218,92.008545 26.006220,92.008545 
z"/>
<path fill="#013E77" opacity="1.000000" stroke="none" 
	d="
M184.000000,117.535355 
	C183.005463,117.999870 182.010925,118.001762 181.016388,117.999313 
	C163.955032,117.957291 157.714767,110.914009 159.708298,93.866226 
	C161.301651,80.240318 157.795334,67.936447 150.434265,56.443253 
	C152.634872,58.577530 155.476822,60.619122 156.455536,63.332737 
	C159.296005,71.208244 161.612000,79.295357 163.721375,87.406685 
	C166.668579,98.739784 172.408371,103.625526 184.000000,104.000000 
	C184.000000,108.356903 184.000000,112.713799 184.000000,117.535355 
z"/>
<path fill="#014481" opacity="1.000000" stroke="none" 
	d="
M77.468658,162.000000 
	C77.963013,160.691971 78.768295,159.221619 79.917313,158.104965 
	C84.119926,154.020721 83.576576,151.225708 78.052994,149.053223 
	C73.274849,147.173889 68.408356,145.473419 63.785641,143.265289 
	C61.679283,142.259140 60.066433,140.219849 58.112434,138.327271 
	C64.842812,140.464508 71.541084,143.565674 78.579865,145.203568 
	C85.729614,146.867279 93.218132,147.064041 100.551079,147.962051 
	C101.852837,148.121475 103.193420,148.396667 104.389687,148.911880 
	C110.537163,151.559509 111.010612,153.694153 106.777802,158.836441 
	C106.156181,159.591629 105.737122,160.513550 105.112167,161.679169 
	C95.979103,162.000000 86.958214,162.000000 77.468658,162.000000 
z"/>
<path fill="#003B72" opacity="1.000000" stroke="none" 
	d="
M15.731416,117.200195 
	C14.387601,122.111671 16.239836,125.053368 20.961618,127.770073 
	C25.595522,130.436203 29.782597,134.309036 33.271049,138.412872 
	C36.641491,142.377869 37.610062,147.244080 33.735867,152.020142 
	C31.352354,154.958511 29.382259,158.232224 27.113270,161.677689 
	C22.310745,162.000000 17.621489,162.000000 12.466120,162.000000 
	C13.099833,160.016815 14.174721,158.019302 15.304475,156.053299 
	C17.990290,151.379410 21.449291,146.984390 23.213915,141.988556 
	C25.412052,135.765396 20.721653,131.677094 16.389128,128.226013 
	C10.330820,123.400253 10.142850,122.904503 15.731416,117.200195 
z"/>
<path fill="#012953" opacity="1.000000" stroke="none" 
	d="
M184.000000,24.545891 
	C173.064911,24.841829 164.117020,19.086742 154.624878,14.746208 
	C146.503677,11.032566 138.131577,7.870346 129.912399,4.365857 
	C128.290863,3.674462 126.860535,2.534601 125.171005,1.300782 
	C130.688034,1.000000 136.376083,1.000000 142.732880,1.278855 
	C150.094360,4.797953 156.776489,8.060472 163.492706,11.251248 
	C164.367599,11.666893 165.411102,11.751927 166.388092,11.924373 
	C172.256851,12.960241 178.128998,13.976902 184.000000,15.000000 
	C184.000000,18.030594 184.000000,21.061186 184.000000,24.545891 
z"/>
<path fill="#003B72" opacity="1.000000" stroke="none" 
	d="
M184.000000,103.541931 
	C172.408371,103.625526 166.668579,98.739784 163.721375,87.406685 
	C161.612000,79.295357 159.296005,71.208244 156.455536,63.332737 
	C155.476822,60.619122 152.634872,58.577530 150.323853,56.113129 
	C150.003662,55.997307 150.000641,55.499550 149.887634,54.929260 
	C148.461182,52.683956 147.271088,50.891861 145.812134,49.354992 
	C140.591354,43.855419 135.279465,38.442341 130.002029,32.996548 
	C132.448334,34.295815 135.285233,35.164398 137.274033,36.968117 
	C146.389038,45.234894 154.799927,54.182144 160.683411,65.123619 
	C162.706085,68.885155 164.171188,72.967377 165.669357,76.985733 
	C168.790466,85.357086 173.375778,92.008202 183.615875,92.949539 
	C184.000000,96.361290 184.000000,99.722572 184.000000,103.541931 
z"/>
<path fill="#012750" opacity="1.000000" stroke="none" 
	d="
M184.000000,14.525871 
	C178.128998,13.976902 172.256851,12.960241 166.388092,11.924373 
	C165.411102,11.751927 164.367599,11.666893 163.492706,11.251248 
	C156.776489,8.060472 150.094360,4.797953 143.200821,1.278855 
	C156.554260,1.000000 170.108521,1.000000 184.000000,1.000000 
	C184.000000,5.344773 184.000000,9.698259 184.000000,14.525871 
z"/>
<path fill="#002D5B" opacity="1.000000" stroke="none" 
	d="
M0.999999,84.416664 
	C5.044610,80.680283 9.158161,77.440338 13.115648,74.019821 
	C17.635010,70.113670 22.294832,66.312241 26.397646,61.994072 
	C34.735012,53.219086 42.391743,43.774658 51.005890,35.293655 
	C56.463520,29.920382 63.142544,25.787668 69.636742,21.049210 
	C63.489475,27.343815 56.803177,33.519615 50.528770,40.088821 
	C46.086460,44.739849 42.387875,50.095413 38.018955,54.823872 
	C32.857300,60.410309 27.444983,65.779625 21.932396,71.023430 
	C16.009377,76.657646 9.853503,82.047676 3.769226,87.510834 
	C3.167881,88.050804 2.357335,88.357788 1.321944,88.886452 
	C1.000000,87.611107 1.000000,86.222221 0.999999,84.416664 
z"/>
<path fill="#024989" opacity="1.000000" stroke="none" 
	d="
M138.468658,162.000000 
	C141.631104,160.792480 145.180481,159.122864 148.908554,158.463715 
	C160.289322,156.451462 171.738876,154.828201 183.580841,153.026794 
	C184.000000,155.975922 184.000000,158.951859 184.000000,162.000000 
	C168.979172,162.000000 153.958237,162.000000 138.468658,162.000000 
z"/>
<path fill="#002D5B" opacity="1.000000" stroke="none" 
	d="
M96.466217,9.999105 
	C100.448578,9.411499 105.003258,7.900023 109.327942,8.395589 
	C128.908859,10.639365 145.494263,19.635139 161.188187,31.259193 
	C167.471741,35.913239 175.782684,37.830063 183.585388,40.996410 
	C184.000000,41.750000 184.000000,42.500000 184.000000,43.625000 
	C174.730576,43.929756 166.763336,39.601921 160.077164,34.224880 
	C141.493912,19.280155 121.396530,9.193388 96.466217,9.999105 
z"/>
<path fill="#064F8E" opacity="1.000000" stroke="none" 
	d="
M46.994476,128.003922 
	C41.301254,129.108566 39.358173,124.106529 35.786774,121.518188 
	C32.260021,118.962212 31.497141,116.451653 33.097092,112.075348 
	C33.441319,107.666748 33.386738,103.915703 33.456512,100.166977 
	C33.489098,98.416084 33.762264,96.669662 34.009937,95.237122 
	C34.726910,96.369354 35.360332,97.185677 36.243515,98.002182 
	C36.493279,98.002373 36.992718,98.011391 37.017601,98.404022 
	C37.986427,103.132622 38.404263,107.679573 40.032940,111.740959 
	C41.456310,115.290382 43.619278,119.099144 46.556103,121.369881 
	C52.652885,126.083878 59.479702,129.853714 65.833641,134.237366 
	C62.439545,133.642670 59.218216,132.822281 55.996887,132.001907 
	C55.996887,132.001907 55.497952,131.998703 54.986702,131.783905 
	C51.981789,130.380707 49.488132,129.192322 46.994476,128.003922 
z"/>
<path fill="#044C8C" opacity="1.000000" stroke="none" 
	d="
M84.999947,142.002182 
	C80.520035,140.810822 76.040115,139.619461 71.594772,138.087860 
	C72.283752,137.698654 72.946251,137.557755 73.591393,137.614426 
	C84.766190,138.595993 95.937828,139.613754 107.114754,140.569916 
	C107.722992,140.621948 108.371468,140.203629 109.333794,140.005402 
	C110.109833,140.007812 110.553307,140.009109 111.234451,140.294220 
	C116.774559,143.093719 120.398254,142.556442 122.018188,138.761688 
	C122.011536,138.341202 122.007736,138.173035 122.250015,137.939880 
	C123.331223,137.910797 124.166359,137.946732 125.170319,138.247070 
	C126.225883,139.007858 127.112640,139.504242 128.219543,140.277313 
	C130.959793,141.369553 133.479904,142.185074 135.668900,143.173859 
	C125.660065,145.899765 116.002007,145.014221 106.329178,143.262680 
	C103.244164,142.704041 100.110451,142.414307 96.999023,142.001541 
	C94.957718,142.000015 92.916420,141.998474 90.146561,141.856506 
	C87.945328,141.811447 86.472633,141.906815 84.999947,142.002182 
z"/>
<path fill="#024989" opacity="1.000000" stroke="none" 
	d="
M155.998581,78.000809 
	C156.274902,79.112251 156.551224,80.223686 156.902435,81.670609 
	C155.712051,85.761314 154.446793,89.516518 153.089752,93.635529 
	C148.423233,100.021423 145.533920,106.475601 147.171829,114.333717 
	C147.984436,118.232307 148.366928,122.220543 148.595978,126.585098 
	C147.499481,127.000496 146.751007,126.999023 145.755814,126.990402 
	C145.509109,126.983238 145.015640,126.970787 145.104797,126.579727 
	C144.798019,122.792450 144.402069,119.396233 143.979340,115.616699 
	C143.784760,114.426323 143.845993,113.460419 143.413528,112.836945 
	C139.372269,107.010681 141.323944,102.601349 146.024796,98.087822 
	C151.608383,92.726730 154.508316,85.934181 154.365250,77.983276 
	C155.127472,77.991241 155.563034,77.996025 155.998581,78.000809 
z"/>
<path fill="#024989" opacity="1.000000" stroke="none" 
	d="
M97.164482,142.272278 
	C100.110451,142.414307 103.244164,142.704041 106.329178,143.262680 
	C116.002007,145.014221 125.660065,145.899765 136.002228,143.173767 
	C137.111099,142.999908 137.555557,142.999374 138.280548,143.115845 
	C143.476486,143.326630 144.080231,138.986679 145.999695,135.999695 
	C146.000000,136.000000 145.999390,135.999390 146.304062,135.870956 
	C147.739151,134.161682 148.869568,132.580841 150.000000,131.000000 
	C151.373169,136.859619 143.815506,146.480530 137.045120,146.826370 
	C126.492928,147.365417 115.890106,147.857346 105.548683,144.740494 
	C102.834862,143.922562 100.070885,143.270996 97.164482,142.272278 
z"/>
<path fill="#064F8E" opacity="1.000000" stroke="none" 
	d="
M109.001221,140.004272 
	C108.371468,140.203629 107.722992,140.621948 107.114754,140.569916 
	C95.937828,139.613754 84.766190,138.595993 73.591393,137.614426 
	C72.946251,137.557755 72.283752,137.698654 71.317062,137.870193 
	C70.560280,137.990982 70.115768,137.989197 69.257538,137.654633 
	C68.560013,136.218582 68.276199,135.115326 68.384872,134.099976 
	C77.785568,135.026901 86.796242,135.840622 95.800819,136.716980 
	C99.541962,137.081100 103.270088,137.578995 107.336334,138.017380 
	C108.111565,138.023788 108.554588,138.028885 108.997719,138.362350 
	C108.998955,139.128555 109.000092,139.566422 109.001221,140.004272 
z"/>
<path fill="#014481" opacity="1.000000" stroke="none" 
	d="
M33.926392,94.921219 
	C33.762264,96.669662 33.489098,98.416084 33.456512,100.166977 
	C33.386738,103.915703 33.441319,107.666748 33.226242,111.711098 
	C32.434452,111.507568 31.861387,111.009773 31.144848,110.261871 
	C31.097006,108.533829 31.192636,107.055885 30.974960,105.059937 
	C30.115309,104.020645 29.568966,103.499374 29.022621,102.978104 
	C28.737944,101.873337 28.453266,100.768578 28.135742,98.946983 
	C29.706036,95.132408 31.309174,92.034660 32.956154,89.290848 
	C33.324162,90.761787 33.648323,91.878769 33.964134,93.317123 
	C33.945988,94.066071 33.936192,94.493645 33.926392,94.921219 
z"/>
<path fill="#044C8C" opacity="1.000000" stroke="none" 
	d="
M67.992386,134.012054 
	C68.276199,135.115326 68.560013,136.218582 68.924210,137.653412 
	C64.774414,136.190872 60.544235,134.396759 56.155472,132.302277 
	C59.218216,132.822281 62.439545,133.642670 66.164604,134.236343 
	C67.109688,134.010437 67.551033,134.011246 67.992386,134.012054 
z"/>
<path fill="#044C8C" opacity="1.000000" stroke="none" 
	d="
M149.958466,130.657440 
	C148.869568,132.580841 147.739151,134.161682 146.390564,135.498627 
	C146.115784,132.502335 146.059143,129.749939 146.002518,126.997559 
	C146.751007,126.999023 147.499481,127.000496 148.622101,127.002960 
	C149.303146,128.107605 149.610046,129.211227 149.958466,130.657440 
z"/>
<path fill="#044C8C" opacity="1.000000" stroke="none" 
	d="
M47.114452,128.325897 
	C49.488132,129.192322 51.981789,130.380707 54.737232,131.782455 
	C51.621582,132.710251 48.859222,131.998199 47.114452,128.325897 
z"/>
<path fill="#014481" opacity="1.000000" stroke="none" 
	d="
M34.880585,127.671387 
	C33.141842,126.833893 31.281687,125.670578 29.209444,124.255974 
	C30.917965,125.118317 32.838570,126.231941 34.880585,127.671387 
z"/>
<path fill="#024989" opacity="1.000000" stroke="none" 
	d="
M85.291061,142.142715 
	C86.472633,141.906815 87.945328,141.811447 89.709137,141.856537 
	C88.527565,142.092422 87.054863,142.187836 85.291061,142.142715 
z"/>
<path fill="#014481" opacity="1.000000" stroke="none" 
	d="
M27.992332,121.629745 
	C27.845480,121.095306 27.700270,120.184334 27.773014,119.133682 
	C27.991972,119.747063 27.992973,120.500137 27.992332,121.629745 
z"/>
<path fill="#01407B" opacity="1.000000" stroke="none" 
	d="
M28.978588,113.630730 
	C28.857199,113.116638 28.743301,112.227341 28.818470,111.171089 
	C29.000383,111.754601 28.993233,112.505058 28.978588,113.630730 
z"/>
<path fill="#014481" opacity="1.000000" stroke="none" 
	d="
M56.856926,137.748978 
	C56.427219,137.502625 55.854671,137.005020 55.138390,136.256943 
	C55.567802,136.503555 56.140945,137.000641 56.856926,137.748978 
z"/>
<path fill="#00386D" opacity="1.000000" stroke="none" 
	d="
M29.183701,110.807182 
	C29.231663,110.749886 29.440554,110.538208 29.807877,110.169785 
	C29.762384,110.229492 29.555161,110.442749 29.183701,110.807182 
z"/>
<path fill="#013E77" opacity="1.000000" stroke="none" 
	d="
M40.975056,74.971161 
	C44.406982,67.344261 52.299671,64.464584 57.961021,59.218075 
	C62.696827,54.829288 66.114853,50.446663 67.901169,43.822311 
	C70.481300,34.254230 77.347221,27.263416 86.636299,23.135649 
	C88.449013,22.330141 90.400627,21.837231 92.848251,21.151850 
	C93.940704,20.738863 94.473076,20.374163 95.005455,20.009464 
	C95.447266,20.009642 95.889069,20.009821 96.663605,20.342834 
	C96.997566,21.120686 96.998795,21.565704 96.877380,22.262108 
	C96.505379,23.015369 96.256027,23.517244 95.658081,24.039146 
	C94.207542,24.374083 93.105606,24.688988 91.687447,25.051849 
	C90.580925,25.401281 89.790619,25.702763 88.738487,26.103485 
	C87.986717,26.471169 87.496773,26.739609 86.677139,27.116436 
	C83.531708,29.474758 78.360870,29.458414 78.902122,35.222645 
	C78.888069,35.677387 78.885597,35.859371 78.847900,36.146221 
	C78.763374,36.468243 78.769585,36.684074 79.058975,36.940804 
	C79.286652,36.983025 79.747719,37.026447 79.724442,37.298149 
	C79.694496,37.933903 79.687828,38.297955 79.557693,38.768143 
	C79.274193,39.021610 79.138168,39.188503 78.961296,39.140224 
	C78.896439,38.905487 78.688316,38.465122 78.500572,38.491035 
	C77.861366,38.957054 77.409904,39.397156 76.725845,39.886787 
	C76.493256,39.936314 76.023338,40.009686 75.709152,40.067169 
	C74.590225,41.414036 73.785484,42.703423 72.896042,44.362957 
	C72.542168,46.488861 72.273003,48.244617 71.816856,50.292389 
	C69.836189,56.198967 66.036415,60.069347 60.745689,62.895180 
	C60.518166,62.949120 60.061134,63.047848 59.703018,63.090252 
	C54.884407,66.394356 50.423916,69.656052 45.730331,73.092308 
	C44.972256,73.836288 44.447266,74.405708 43.607727,74.974945 
	C42.874378,74.990479 42.455582,75.006203 41.771324,75.009903 
	C41.328922,74.988983 41.151989,74.980072 40.975056,74.971161 
z"/>
<path fill="#013E77" opacity="1.000000" stroke="none" 
	d="
M129.831482,32.834042 
	C135.279465,38.442341 140.591354,43.855419 145.812134,49.354992 
	C147.271088,50.891861 148.461182,52.683956 149.886292,54.680382 
	C148.545456,54.404224 147.092911,53.806664 145.320190,53.104549 
	C145.000000,53.000000 144.999390,53.000607 144.889404,52.688324 
	C143.519623,51.250641 142.259811,50.125244 141.000000,48.999924 
	C141.000000,49.000000 141.000000,48.999847 140.887848,48.678688 
	C136.517349,44.571419 132.258987,40.785316 127.751694,36.822369 
	C126.668495,35.763683 125.834244,34.881844 124.828255,33.739426 
	C123.771294,32.985550 122.886070,32.492252 122.000427,31.999477 
	C122.000000,32.000000 122.000923,31.998753 121.829018,31.738354 
	C120.772072,30.984581 119.887039,30.491209 118.713531,29.818638 
	C116.950630,29.092117 115.476189,28.544798 113.998230,27.753361 
	C113.994713,27.509247 113.990173,27.020931 113.892914,26.826466 
	C113.197899,26.419653 112.600159,26.207308 111.635544,25.902966 
	C108.512550,25.206102 105.756409,24.601236 103.000381,23.663521 
	C103.000328,22.886993 103.000168,22.443319 103.000824,21.667713 
	C103.003227,20.893337 103.004814,20.450895 103.006409,20.008451 
	C104.070122,20.008722 105.133842,20.008993 106.772896,20.284859 
	C108.900696,21.371189 110.453156,22.181927 112.005615,22.992664 
	C112.799667,23.274260 113.593719,23.555857 114.956619,24.131260 
	C120.017769,26.949240 124.510078,29.473412 129.002380,31.997583 
	C129.216599,32.227398 129.436111,32.452049 129.831482,32.834042 
z"/>
<path fill="#003B72" opacity="1.000000" stroke="none" 
	d="
M32.912308,88.936905 
	C31.309174,92.034660 29.706036,95.132408 28.053370,98.614777 
	C27.338177,96.939819 26.672512,94.880234 26.006533,92.414597 
	C26.006218,92.008545 26.000481,92.000305 26.271904,91.807381 
	C27.028263,90.409142 27.513199,89.203819 27.998131,87.998505 
	C27.998131,87.998505 28.000000,88.000000 27.999079,87.999496 
	C30.127275,85.435135 32.256393,82.871277 34.766258,80.410675 
	C35.393539,81.012222 35.640072,81.510536 35.883972,82.328125 
	C35.876446,83.073364 35.871552,83.499313 35.575836,84.071579 
	C34.519341,85.475876 33.753662,86.733849 32.968719,88.228073 
	C32.949455,88.464317 32.912308,88.936905 32.912308,88.936905 
z"/>
<path fill="#003B72" opacity="1.000000" stroke="none" 
	d="
M128.876373,31.683191 
	C124.510078,29.473412 120.017769,26.949240 115.262741,24.210400 
	C119.583458,26.453419 124.166901,28.911110 128.876373,31.683191 
z"/>
<path fill="#014481" opacity="1.000000" stroke="none" 
	d="
M35.886604,82.008842 
	C35.640072,81.510536 35.393539,81.012222 35.054783,80.250290 
	C36.757732,78.409691 38.552906,76.832718 40.661568,75.113449 
	C41.151989,74.980072 41.328922,74.988983 41.589451,75.285065 
	C40.084923,77.701469 38.496799,79.830704 36.653557,81.972824 
	C36.227825,81.993423 36.057217,82.001129 35.886604,82.008842 
z"/>
<path fill="#003B72" opacity="1.000000" stroke="none" 
	d="
M102.576675,20.006252 
	C103.004814,20.450895 103.003227,20.893337 102.667015,21.667778 
	C101.887505,22.001146 101.442619,22.002516 100.597748,22.004177 
	C99.131851,22.006552 98.065941,22.008636 97.000015,22.010719 
	C96.998795,21.565704 96.997566,21.120686 96.994965,20.342108 
	C98.711372,20.007048 100.429153,20.005548 102.576675,20.006252 
z"/>
<path fill="#003B72" opacity="1.000000" stroke="none" 
	d="
M111.829300,22.716568 
	C110.453156,22.181927 108.900696,21.371189 107.171783,20.284758 
	C108.547882,20.819532 110.100441,21.630003 111.829300,22.716568 
z"/>
<path fill="#003365" opacity="1.000000" stroke="none" 
	d="
M67.229462,34.797325 
	C67.492744,34.114193 67.986176,33.229050 68.740364,32.172348 
	C68.487289,32.865631 67.973450,33.730473 67.229462,34.797325 
z"/>
<path fill="#003B72" opacity="1.000000" stroke="none" 
	d="
M94.741928,20.106266 
	C94.473076,20.374163 93.940704,20.738863 93.204407,21.053476 
	C93.493126,20.736614 93.985756,20.469841 94.741928,20.106266 
z"/>
<path fill="#002D5B" opacity="1.000000" stroke="none" 
	d="
M80.331161,14.909969 
	C81.814026,13.940475 83.628235,12.881380 85.721222,11.911179 
	C84.220833,12.940171 82.441658,13.880270 80.331161,14.909969 
z"/>
<path fill="#002D5B" opacity="1.000000" stroke="none" 
	d="
M91.314926,10.948639 
	C91.839035,10.597050 92.678360,10.195427 93.758842,9.896867 
	C93.210045,10.299489 92.420090,10.599048 91.314926,10.948639 
z"/>
<path fill="#002D5B" opacity="1.000000" stroke="none" 
	d="
M71.251221,19.857204 
	C71.499519,19.428722 71.999031,18.857447 72.749908,18.143513 
	C72.501663,18.572042 72.002060,19.143227 71.251221,19.857204 
z"/>
<path fill="#003B72" opacity="1.000000" stroke="none" 
	d="
M22.655762,112.967392 
	C20.902887,114.279259 18.803001,115.553474 16.352692,116.914726 
	C16.669086,113.421463 18.732380,112.003922 22.655762,112.967392 
z"/>
<path fill="#003B72" opacity="1.000000" stroke="none" 
	d="
M28.931149,103.349243 
	C29.568966,103.499374 30.115309,104.020645 30.833193,104.768555 
	C30.164352,106.195793 29.323973,107.396393 28.241312,108.798271 
	C28.279247,107.239830 28.559460,105.480103 28.931149,103.349243 
z"/>
<path fill="#014481" opacity="1.000000" stroke="none" 
	d="
M114.001755,27.997477 
	C115.476189,28.544798 116.950630,29.092117 118.915779,30.048523 
	C120.271301,30.971323 121.136116,31.485039 122.000923,31.998753 
	C122.000923,31.998753 122.000000,32.000000 122.202766,32.229286 
	C123.270355,32.972385 124.135178,33.486195 125.000000,34.000000 
	C125.834244,34.881844 126.668495,35.763683 127.943161,37.093834 
	C132.589066,41.361382 136.794525,45.180614 141.000000,48.999847 
	C141.000000,48.999847 141.000000,49.000000 141.110138,49.312111 
	C142.479965,50.749687 143.739685,51.875145 144.999390,53.000607 
	C144.999390,53.000607 145.000000,53.000000 144.999695,53.000381 
	C146.926910,56.114872 148.854416,59.228981 150.888885,62.673767 
	C150.995819,63.004436 150.987991,63.012802 150.614655,63.009964 
	C149.493942,63.005058 148.746567,63.002991 147.999603,63.000458 
	C148.000000,63.000000 147.999298,63.000607 147.944595,62.649277 
	C145.927917,60.197708 143.965927,58.097477 142.001984,55.998623 
	C142.000000,56.000000 142.002731,55.996029 141.891022,55.674782 
	C134.469223,48.181564 127.182747,40.985077 119.806992,33.881290 
	C119.174828,33.272430 117.949615,33.279327 116.999947,33.000092 
	C117.000000,33.000000 116.999748,33.000153 116.885750,32.694572 
	C115.848419,30.925154 114.925087,29.461315 114.001755,27.997477 
z"/>
<path fill="#014481" opacity="1.000000" stroke="none" 
	d="
M156.141266,77.678291 
	C155.563034,77.996025 155.127472,77.991241 154.357971,77.653374 
	C154.016907,76.879906 154.009827,76.439522 154.127808,75.693535 
	C153.164597,71.262894 152.076294,67.137848 150.987976,63.012802 
	C150.987991,63.012802 150.995819,63.004436 150.998962,63.001556 
	C154.684509,67.077370 156.975327,71.668007 156.141266,77.678291 
z"/>
<path fill="#00386D" opacity="1.000000" stroke="none" 
	d="
M27.729784,88.192749 
	C27.513199,89.203819 27.028263,90.409142 26.275549,91.808945 
	C26.492325,90.797958 26.976879,89.592484 27.729784,88.192749 
z"/>
<path fill="#0A599A" opacity="1.000000" stroke="none" 
	d="
M36.992718,98.011391 
	C36.992718,98.011391 36.493279,98.002373 36.161644,97.646698 
	C35.550232,95.858704 35.270458,94.426369 35.228943,92.992851 
	C35.467205,92.991661 35.943497,92.995224 36.199623,93.220245 
	C38.073792,94.148148 39.689655,95.430321 41.310322,95.436432 
	C44.974476,95.450226 45.944164,96.520882 45.041965,100.239647 
	C43.352287,107.204285 47.986465,114.214630 54.620323,116.210381 
	C56.619488,116.811813 58.815285,118.367119 59.891193,120.118217 
	C62.729069,124.737007 66.818794,126.957375 71.868240,128.054428 
	C77.595940,129.298859 83.293091,130.683884 88.656677,132.168091 
	C76.030937,134.828171 65.171791,131.915710 55.697716,123.756012 
	C54.695332,122.892685 53.894279,121.664581 52.754349,121.113319 
	C45.584660,117.646126 42.457531,111.873787 41.687679,104.082520 
	C41.474518,101.925232 38.629967,100.027962 36.992718,98.011391 
z"/>
<path fill="#065395" opacity="1.000000" stroke="none" 
	d="
M37.017601,98.404022 
	C38.629967,100.027962 41.474518,101.925232 41.687679,104.082520 
	C42.457531,111.873787 45.584660,117.646126 52.754349,121.113319 
	C53.894279,121.664581 54.695332,122.892685 55.697716,123.756012 
	C65.171791,131.915710 76.030937,134.828171 89.029999,132.170532 
	C90.497063,132.016525 91.243950,132.020386 92.190514,132.313141 
	C94.319672,133.409760 96.222122,134.291626 98.185036,135.007736 
	C101.102295,136.072021 104.062317,137.019089 107.004135,138.016052 
	C103.270088,137.578995 99.541962,137.081100 95.800819,136.716980 
	C86.796242,135.840622 77.785568,135.026901 68.384872,134.099976 
	C67.551033,134.011246 67.109688,134.010437 66.337372,134.010651 
	C59.479702,129.853714 52.652885,126.083878 46.556103,121.369881 
	C43.619278,119.099144 41.456310,115.290382 40.032940,111.740959 
	C38.404263,107.679573 37.986427,103.132622 37.017601,98.404022 
z"/>
<path fill="#065395" opacity="1.000000" stroke="none" 
	d="
M34.990685,92.994041 
	C35.270458,94.426369 35.550232,95.858704 35.911880,97.646515 
	C35.360332,97.185677 34.726910,96.369354 34.009941,95.237122 
	C33.936192,94.493645 33.945988,94.066071 34.218826,93.317307 
	C34.651470,92.995422 34.821075,92.994736 34.990685,92.994041 
z"/>
<path fill="#0D61A4" opacity="1.000000" stroke="none" 
	d="
M91.990845,132.024231 
	C91.243950,132.020386 90.497063,132.016525 89.376846,132.010223 
	C83.293091,130.683884 77.595940,129.298859 71.868240,128.054428 
	C66.818794,126.957375 62.729069,124.737007 59.891193,120.118217 
	C58.815285,118.367119 56.619488,116.811813 54.620323,116.210381 
	C47.986465,114.214630 43.352287,107.204285 45.041965,100.239647 
	C45.944164,96.520882 44.974476,95.450226 41.310322,95.436432 
	C39.689655,95.430321 38.073792,94.148148 36.204903,92.885025 
	C35.961975,91.877747 35.969883,91.430702 36.265434,90.821060 
	C37.350719,89.425308 38.148369,88.192162 38.862320,86.632614 
	C38.155304,84.857452 37.531990,83.408699 36.908676,81.959938 
	C38.496799,79.830704 40.084923,77.701469 41.854919,75.297081 
	C42.455582,75.006203 42.874378,74.990479 43.735329,75.007530 
	C44.177486,75.040306 44.427601,75.120621 44.341187,75.431046 
	C44.176147,76.163452 44.097519,76.585419 43.761600,77.257523 
	C41.357826,80.739189 41.315334,83.405663 45.494995,84.946312 
	C56.934914,89.163139 56.934620,89.163925 51.909611,99.966049 
	C49.798409,104.504440 51.039474,109.412643 54.775982,109.751640 
	C60.852943,110.303001 63.505211,114.273270 66.049507,118.986549 
	C66.929123,120.616028 68.944405,122.150200 70.747826,122.676697 
	C80.308083,125.467758 90.161995,127.366486 99.533073,130.659012 
	C108.283348,133.733414 116.638824,133.852173 125.300652,131.115906 
	C130.178574,129.574966 135.490875,128.680664 136.217041,121.877243 
	C136.967422,121.483521 137.482697,121.249535 138.095352,121.276543 
	C138.460953,122.025185 138.729172,122.512825 138.999863,123.400452 
	C139.006699,124.867119 139.011032,125.933792 139.046738,127.336853 
	C139.078110,129.085327 139.078110,130.497406 139.078110,132.325928 
	C133.875580,131.635071 129.186188,131.460861 126.711761,137.070648 
	C125.968208,137.440018 125.484856,137.711334 125.001511,137.982651 
	C124.166359,137.946732 123.331223,137.910797 122.007553,137.924438 
	C121.519035,137.973999 121.033653,137.954163 120.863297,137.711914 
	C119.462868,137.304626 118.232803,137.139572 116.644638,137.007904 
	C113.858543,137.029404 111.430542,137.017502 108.723907,136.785614 
	C102.960464,135.051819 97.475655,133.538025 91.990845,132.024231 
z"/>
<path fill="#064F8E" opacity="1.000000" stroke="none" 
	d="
M145.755814,126.990402 
	C146.059143,129.749939 146.115784,132.502335 146.085907,135.627045 
	C145.999390,135.999390 146.000000,136.000000 145.660217,136.094238 
	C142.880295,138.458603 140.440155,140.728729 138.000000,142.998856 
	C137.555557,142.999374 137.111099,142.999908 136.333328,143.000519 
	C133.479904,142.185074 130.959793,141.369553 128.613647,140.252716 
	C131.863235,138.639175 134.938873,137.326935 138.346649,135.933777 
	C139.783310,135.566910 140.887863,135.281006 142.278320,134.885132 
	C143.046539,133.517838 143.528870,132.260498 144.016357,130.667313 
	C144.032806,129.883591 144.044113,129.435730 144.198792,128.747818 
	C144.566650,127.995453 144.791153,127.483124 145.015640,126.970787 
	C145.015640,126.970787 145.509109,126.983238 145.755814,126.990402 
z"/>
<path fill="#065395" opacity="1.000000" stroke="none" 
	d="
M138.014526,136.014709 
	C134.938873,137.326935 131.863235,138.639175 128.393494,139.976013 
	C127.112640,139.504242 126.225883,139.007858 125.170319,138.247070 
	C125.484856,137.711334 125.968208,137.440018 127.137482,137.066193 
	C131.220444,136.647354 134.617493,136.331024 138.014526,136.014709 
z"/>
<path fill="#065395" opacity="1.000000" stroke="none" 
	d="
M109.002548,137.005600 
	C111.430542,137.017502 113.858543,137.029404 116.954872,137.167099 
	C118.760025,137.513306 119.896835,137.733734 121.033653,137.954163 
	C121.033653,137.954163 121.519035,137.973999 121.761490,137.989441 
	C122.007736,138.173035 122.011536,138.341202 121.665932,138.843170 
	C117.876610,139.454758 114.436691,139.732574 110.996773,140.010406 
	C110.553307,140.009109 110.109833,140.007812 109.333794,140.005402 
	C109.000092,139.566422 108.998955,139.128555 108.999420,138.105042 
	C109.001534,137.348114 109.002045,137.176849 109.002548,137.005600 
z"/>
<path fill="#064F8E" opacity="1.000000" stroke="none" 
	d="
M111.234451,140.294220 
	C114.436691,139.732574 117.876610,139.454758 121.668785,139.095459 
	C120.398254,142.556442 116.774559,143.093719 111.234451,140.294220 
z"/>
<path fill="#00509A" opacity="1.000000" stroke="none" 
	d="
M154.002731,75.999138 
	C154.009827,76.439522 154.016907,76.879906 154.031281,77.650192 
	C154.508316,85.934181 151.608383,92.726730 146.024796,98.087822 
	C141.323944,102.601349 139.372269,107.010681 143.413528,112.836945 
	C143.845993,113.460419 143.784760,114.426323 143.968079,116.002457 
	C143.658081,119.518471 143.332565,122.265396 142.805115,124.810272 
	C142.067780,124.068390 141.532394,123.528557 140.853882,122.737335 
	C140.139771,121.981499 139.568787,121.477058 138.935669,120.647896 
	C137.941238,118.072777 137.259537,115.673683 136.029175,113.600143 
	C132.487350,107.631111 133.527405,102.322639 139.115433,98.150040 
	C140.605148,97.037651 141.723770,95.428299 143.244476,93.821358 
	C144.681335,92.100662 145.886459,90.605721 147.117004,88.783493 
	C147.149658,88.020760 147.156876,87.585304 147.295410,86.987549 
	C147.598541,86.607430 147.787048,86.405136 148.056488,86.490128 
	C148.180557,86.938225 148.240372,87.114540 148.530487,87.349434 
	C149.517700,86.278877 150.274582,85.149742 151.030121,83.572876 
	C151.714630,75.254845 148.900681,68.754242 143.075638,63.588985 
	C139.369827,60.302921 135.250381,57.473404 131.633789,54.099010 
	C126.431129,49.244759 121.437363,44.157993 116.497574,39.032520 
	C107.578529,29.778221 97.891541,28.063536 87.048058,33.863754 
	C84.717514,35.110367 82.186424,35.982052 79.747719,37.026447 
	C79.747719,37.026447 79.286652,36.983025 79.076515,36.727715 
	C78.866379,36.472404 78.883133,36.041355 78.883133,36.041355 
	C78.885597,35.859371 78.888069,35.677387 79.225983,35.136276 
	C81.040558,33.850723 82.519699,32.924290 84.290710,31.902573 
	C85.387466,31.203959 86.192352,30.600628 86.998611,29.998611 
	C87.000000,29.999924 86.996498,29.996052 87.316124,29.909563 
	C88.773796,28.896524 89.911842,27.969975 91.209503,26.873253 
	C91.586746,26.480656 91.813736,26.268236 92.376648,26.188295 
	C94.468536,26.205948 96.233864,26.101124 98.374268,25.997990 
	C99.499496,25.999043 100.249641,25.998405 101.302917,26.190006 
	C106.737282,28.588215 111.868515,30.794184 116.999748,33.000153 
	C116.999748,33.000153 117.000000,33.000000 117.108131,33.322956 
	C124.401024,42.290787 132.264587,50.182880 142.002731,55.996029 
	C142.002731,55.996029 142.000000,56.000000 142.107758,56.318954 
	C144.143433,58.758808 146.071365,60.879707 147.999298,63.000607 
	C147.999298,63.000607 148.000000,63.000000 148.107712,63.334709 
	C150.144531,67.779327 152.073624,71.889229 154.002731,75.999138 
z"/>
<path fill="#044C8C" opacity="1.000000" stroke="none" 
	d="
M143.007050,125.012314 
	C143.332565,122.265396 143.658081,119.518471 143.994858,116.385788 
	C144.402069,119.396233 144.798019,122.792450 145.104797,126.579727 
	C144.791153,127.483124 144.566650,127.995453 144.186600,128.497467 
	C144.023804,128.320145 144.016571,128.153122 143.890900,127.694939 
	C143.517319,126.606621 143.262192,125.809464 143.007050,125.012314 
z"/>
<path fill="#044C8C" opacity="1.000000" stroke="none" 
	d="
M138.280548,143.115845 
	C140.440155,140.728729 142.880295,138.458603 145.659912,136.093933 
	C144.080231,138.986679 143.476486,143.326630 138.280548,143.115845 
z"/>
<path fill="#0A599A" opacity="1.000000" stroke="none" 
	d="
M108.723907,136.785614 
	C109.002045,137.176849 109.001534,137.348114 108.999313,137.776688 
	C108.554588,138.028885 108.111565,138.023788 107.336334,138.017365 
	C104.062317,137.019089 101.102295,136.072021 98.185036,135.007736 
	C96.222122,134.291626 94.319672,133.409760 92.190514,132.313141 
	C97.475655,133.538025 102.960464,135.051819 108.723907,136.785614 
z"/>
<path fill="#064F8E" opacity="1.000000" stroke="none" 
	d="
M35.977791,90.983658 
	C35.969883,91.430702 35.961975,91.877747 35.948780,92.660004 
	C35.943497,92.995224 35.467205,92.991661 35.228943,92.992851 
	C34.821075,92.994736 34.651470,92.995422 34.227173,92.995941 
	C33.648323,91.878769 33.324162,90.761787 32.956154,89.290848 
	C32.912308,88.936905 32.949455,88.464317 33.231148,88.041107 
	C34.297447,86.387016 35.082054,85.156136 35.866657,83.925262 
	C35.871552,83.499313 35.876446,83.073364 35.883972,82.328125 
	C36.057217,82.001129 36.227825,81.993423 36.653557,81.972824 
	C37.531990,83.408699 38.155304,84.857452 38.561031,86.768402 
	C37.554893,88.481613 36.766342,89.732635 35.977791,90.983658 
z"/>
<path fill="#0164B9" opacity="1.000000" stroke="none" 
	d="
M78.688316,38.465126 
	C78.688316,38.465122 78.896439,38.905487 78.983978,39.522152 
	C79.266525,41.120033 79.461540,42.101250 79.771927,43.440254 
	C81.910820,47.216595 83.934341,50.635151 86.031425,54.389107 
	C88.817482,56.745190 91.529984,58.765869 94.526909,60.886150 
	C95.542061,61.318867 96.272781,61.651978 97.151260,62.283249 
	C99.196709,63.725605 101.094391,64.869804 103.201424,66.288857 
	C104.737732,67.178429 106.024467,67.907898 107.398132,68.389359 
	C116.777878,71.676903 119.421288,80.299126 113.328339,87.784805 
	C112.813393,88.417465 112.512100,89.219154 112.045296,89.896660 
	C109.704201,93.294487 107.814171,97.184921 104.863556,99.934052 
	C101.328423,103.227753 97.194466,100.470886 93.343781,99.447723 
	C93.063667,99.373291 92.475281,100.459045 91.753395,101.162292 
	C90.305733,102.207932 89.134895,103.096664 87.644318,103.894073 
	C81.081741,101.671860 77.264435,96.214081 77.157227,89.255630 
	C77.094696,85.196854 77.041145,81.137932 77.346512,77.131897 
	C79.069931,78.846024 80.774513,80.342361 81.676254,82.223541 
	C82.335938,83.599770 81.897522,85.485130 82.022568,87.137955 
	C82.475029,93.118088 84.764542,94.968208 90.340218,93.171005 
	C93.754677,92.070427 96.796837,89.850883 100.179558,88.604347 
	C102.876213,87.610641 104.583069,86.576843 104.701584,83.278152 
	C104.793022,80.733032 106.186478,78.257561 106.568192,75.686859 
	C106.692223,74.851555 105.663055,73.472916 104.794174,72.923973 
	C99.926163,69.848457 94.945816,66.950760 89.754166,63.828117 
	C88.681602,63.102264 87.858704,62.540646 86.894043,61.724323 
	C86.175102,60.967770 85.597908,60.465919 84.826492,59.690487 
	C82.770119,58.221737 80.907982,57.026566 78.910309,55.563431 
	C78.570671,54.514477 78.366577,53.733490 78.235359,52.650948 
	C77.562225,50.229210 76.816208,48.109035 76.013405,45.649025 
	C75.874512,44.857212 75.792404,44.405239 75.773163,43.561920 
	C75.898460,42.116947 75.960899,41.063316 76.023338,40.009686 
	C76.023338,40.009686 76.493256,39.936314 76.976845,39.763050 
	C77.869728,39.214901 78.279022,38.840012 78.688316,38.465126 
z"/>
<path fill="#0164B9" opacity="1.000000" stroke="none" 
	d="
M148.300171,87.290863 
	C148.240372,87.114540 148.180557,86.938225 148.064514,86.050262 
	C150.091614,77.727646 146.306015,72.281921 141.197845,67.473396 
	C138.325226,64.769287 135.123199,62.415150 131.939575,59.646812 
	C131.232651,58.909504 130.655731,58.428726 129.804001,57.881332 
	C129.342667,57.787121 129.156174,57.759525 128.703247,57.597343 
	C127.663841,57.271500 126.890846,57.080242 125.769089,56.850288 
	C124.953033,56.789928 124.485741,56.768265 123.831345,56.491173 
	C122.261726,54.180958 121.023849,52.008049 119.464012,50.098076 
	C116.896851,46.954643 114.121246,43.981457 111.129417,40.762665 
	C108.504173,39.574818 106.183022,38.560806 103.659302,37.347115 
	C102.314423,36.168213 101.172134,35.188992 99.760895,34.184380 
	C99.313087,34.180149 99.134239,34.201309 98.726410,34.048195 
	C97.974548,33.643005 97.451668,33.412086 96.579224,33.142570 
	C95.139832,34.397991 94.050018,35.692013 92.669968,37.184326 
	C90.587502,37.903667 88.795273,38.424717 86.568756,38.897842 
	C84.376762,38.903130 82.619057,38.956345 80.564743,38.927990 
	C80.072464,38.784950 79.876816,38.723480 79.681160,38.662010 
	C79.687828,38.297955 79.694496,37.933903 79.724442,37.298149 
	C82.186424,35.982052 84.717514,35.110367 87.048058,33.863754 
	C97.891541,28.063536 107.578529,29.778221 116.497574,39.032520 
	C121.437363,44.157993 126.431129,49.244759 131.633789,54.099010 
	C135.250381,57.473404 139.369827,60.302921 143.075638,63.588985 
	C148.900681,68.754242 151.714630,75.254845 150.816376,83.791489 
	C149.836060,85.402168 149.068115,86.346512 148.300171,87.290863 
z"/>
<path fill="#024989" opacity="1.000000" stroke="none" 
	d="
M75.710297,43.953262 
	C75.792404,44.405239 75.874512,44.857212 75.863739,45.944580 
	C76.170692,48.718601 76.570534,50.857231 76.847992,53.306206 
	C76.950661,55.392197 77.557640,57.229504 77.283951,58.924625 
	C77.051064,60.367020 75.803665,61.645611 74.685707,63.050728 
	C73.573326,63.431984 72.780350,63.759190 71.613815,64.096519 
	C70.493996,64.076279 69.747742,64.045906 69.057220,63.655418 
	C70.686279,58.996235 75.038551,55.301426 72.003838,50.000374 
	C72.273003,48.244617 72.542168,46.488861 73.240219,44.360809 
	C74.349510,43.976761 75.029900,43.965012 75.710297,43.953262 
z"/>
<path fill="#014481" opacity="1.000000" stroke="none" 
	d="
M71.816856,50.292389 
	C75.038551,55.301426 70.686279,58.996235 68.684143,63.716850 
	C67.503357,64.223656 66.751389,64.308907 65.707321,64.152534 
	C63.934555,63.554352 62.453884,63.197800 60.973217,62.841244 
	C66.036415,60.069347 69.836189,56.198967 71.816856,50.292389 
z"/>
<path fill="#044C8C" opacity="1.000000" stroke="none" 
	d="
M45.963425,72.917755 
	C50.423916,69.656052 54.884407,66.394356 59.541538,63.390049 
	C58.801281,65.746201 57.864380,67.844971 56.720501,70.003799 
	C56.513519,70.063866 56.106678,70.208839 55.804756,70.321915 
	C54.364674,71.684502 53.226509,72.934013 51.679077,74.183357 
	C50.180550,74.121307 49.091297,74.059418 47.779305,73.810364 
	C47.025520,73.388046 46.494473,73.152901 45.963425,72.917755 
z"/>
<path fill="#0F6DB4" opacity="1.000000" stroke="none" 
	d="
M56.927483,69.943733 
	C57.864380,67.844971 58.801281,65.746201 59.899658,63.347645 
	C60.061134,63.047848 60.518166,62.949120 60.745689,62.895180 
	C62.453884,63.197800 63.934555,63.554352 65.784943,64.397186 
	C66.198151,65.050789 66.241638,65.218102 65.921165,65.464027 
	C62.896473,66.001678 60.205517,66.422363 59.585342,69.956161 
	C58.446693,69.955414 57.687092,69.949570 56.927483,69.943733 
z"/>
<path fill="#014481" opacity="1.000000" stroke="none" 
	d="
M83.998833,31.997856 
	C82.519699,32.924290 81.040558,33.850723 79.237564,34.863525 
	C78.360870,29.458414 83.531708,29.474758 86.675644,27.489805 
	C87.001396,28.501877 86.998947,29.248964 86.996498,29.996052 
	C86.996498,29.996052 87.000000,29.999924 86.690796,30.066986 
	C85.587334,30.755316 84.793083,31.376585 83.998833,31.997856 
z"/>
<path fill="#014481" opacity="1.000000" stroke="none" 
	d="
M100.999794,25.997768 
	C100.249641,25.998405 99.499496,25.999043 98.177002,25.797939 
	C97.071999,25.070507 96.539337,24.544811 96.006668,24.019115 
	C96.256027,23.517244 96.505379,23.015369 96.877380,22.262108 
	C98.065941,22.008636 99.131851,22.006552 100.598457,22.377790 
	C100.999519,23.498264 100.999893,24.245417 100.999542,25.243866 
	C100.999146,25.662701 100.999466,25.830235 100.999794,25.997768 
z"/>
<path fill="#024989" opacity="1.000000" stroke="none" 
	d="
M95.658081,24.039146 
	C96.539337,24.544811 97.071999,25.070507 97.801926,25.796251 
	C96.233864,26.101124 94.468536,26.205948 92.363464,25.922470 
	C92.017036,25.357414 92.010353,25.180656 92.003662,25.003895 
	C93.105606,24.688988 94.207542,24.374083 95.658081,24.039146 
z"/>
<path fill="#014481" opacity="1.000000" stroke="none" 
	d="
M75.773163,43.561920 
	C75.029900,43.965012 74.349510,43.976761 73.324936,43.990662 
	C73.785484,42.703423 74.590225,41.414036 75.709152,40.067169 
	C75.960899,41.063316 75.898460,42.116947 75.773163,43.561920 
z"/>
<path fill="#024989" opacity="1.000000" stroke="none" 
	d="
M87.316124,29.909563 
	C86.998947,29.248964 87.001396,28.501877 87.005341,27.381420 
	C87.496773,26.739609 87.986717,26.471169 88.980774,26.257673 
	C90.006546,26.556221 90.528221,26.799822 91.049889,27.043423 
	C89.911842,27.969975 88.773796,28.896524 87.316124,29.909563 
z"/>
<path fill="#057BD6" opacity="1.000000" stroke="none" 
	d="
M79.557693,38.768143 
	C79.876816,38.723480 80.072464,38.784950 80.578636,39.271553 
	C80.921806,40.155720 80.954468,40.614758 80.860214,41.347961 
	C80.374397,42.108913 80.015480,42.595692 79.656563,43.082466 
	C79.461540,42.101250 79.266525,41.120033 79.048828,39.756889 
	C79.138168,39.188503 79.274193,39.021610 79.557693,38.768143 
z"/>
<path fill="#0F6DB4" opacity="1.000000" stroke="none" 
	d="
M45.730331,73.092308 
	C46.494473,73.152901 47.025520,73.388046 47.497696,73.965271 
	C46.435081,74.578445 45.431339,74.849533 44.427601,75.120621 
	C44.427601,75.120621 44.177486,75.040306 44.049881,75.007721 
	C44.447266,74.405708 44.972256,73.836288 45.730331,73.092308 
z"/>
<path fill="#014481" opacity="1.000000" stroke="none" 
	d="
M91.209503,26.873253 
	C90.528221,26.799822 90.006546,26.556221 89.242599,26.158430 
	C89.790619,25.702763 90.580925,25.401281 91.687447,25.051849 
	C92.010353,25.180656 92.017036,25.357414 92.036911,25.799995 
	C91.813736,26.268236 91.586746,26.480656 91.209503,26.873253 
z"/>
<path fill="#024989" opacity="1.000000" stroke="none" 
	d="
M78.500572,38.491035 
	C78.279022,38.840012 77.869728,39.214901 77.209442,39.713524 
	C77.409904,39.397156 77.861366,38.957054 78.500572,38.491035 
z"/>
<path fill="#014481" opacity="1.000000" stroke="none" 
	d="
M78.847900,36.146221 
	C78.883133,36.041355 78.866379,36.472404 78.848846,36.685493 
	C78.769585,36.684074 78.763374,36.468243 78.847900,36.146221 
z"/>
<path fill="#024989" opacity="1.000000" stroke="none" 
	d="
M101.302917,26.190006 
	C100.999466,25.830235 100.999146,25.662701 101.332977,25.246035 
	C102.111427,24.997648 102.555717,24.998394 103.318024,25.158344 
	C106.424644,25.883251 109.213242,26.448954 112.333252,27.015354 
	C113.106514,27.017679 113.548340,27.019306 113.990173,27.020931 
	C113.990173,27.020931 113.994713,27.509247 113.998230,27.753361 
	C114.925087,29.461315 115.848419,30.925154 116.885750,32.694572 
	C111.868515,30.794184 106.737282,28.588215 101.302917,26.190006 
z"/>
<path fill="#01407B" opacity="1.000000" stroke="none" 
	d="
M140.887848,48.678688 
	C136.794525,45.180614 132.589066,41.361382 128.192108,37.270683 
	C132.258987,40.785316 136.517349,44.571419 140.887848,48.678688 
z"/>
<path fill="#014481" opacity="1.000000" stroke="none" 
	d="
M112.001831,27.014656 
	C109.213242,26.448954 106.424644,25.883251 103.317947,24.907677 
	C102.999992,24.330658 103.000130,24.163513 103.000275,23.996370 
	C105.756409,24.601236 108.512550,25.206102 111.635269,26.157911 
	C112.001839,26.674789 112.001839,26.844723 112.001831,27.014656 
z"/>
<path fill="#01407B" opacity="1.000000" stroke="none" 
	d="
M144.889404,52.688324 
	C143.739685,51.875145 142.479965,50.749687 141.110138,49.312035 
	C142.259811,50.125244 143.519623,51.250641 144.889404,52.688324 
z"/>
<path fill="#01407B" opacity="1.000000" stroke="none" 
	d="
M103.000381,23.663521 
	C103.000130,24.163513 102.999992,24.330658 102.999924,24.748470 
	C102.555717,24.998394 102.111427,24.997648 101.333710,24.994736 
	C100.999893,24.245417 100.999519,23.498264 100.998444,22.377499 
	C101.442619,22.002516 101.887505,22.001146 102.666199,21.999710 
	C103.000168,22.443319 103.000328,22.886993 103.000381,23.663521 
z"/>
<path fill="#01407B" opacity="1.000000" stroke="none" 
	d="
M121.829018,31.738354 
	C121.136116,31.485039 120.271301,30.971323 119.204247,30.227722 
	C119.887039,30.491209 120.772072,30.984581 121.829018,31.738354 
z"/>
<path fill="#01407B" opacity="1.000000" stroke="none" 
	d="
M124.828255,33.739426 
	C124.135178,33.486195 123.270355,32.972385 122.203194,32.228764 
	C122.886070,32.492252 123.771294,32.985550 124.828255,33.739426 
z"/>
<path fill="#01407B" opacity="1.000000" stroke="none" 
	d="
M112.333252,27.015354 
	C112.001839,26.844723 112.001839,26.674789 112.002129,26.249908 
	C112.600159,26.207308 113.197899,26.419653 113.892914,26.826466 
	C113.548340,27.019306 113.106514,27.017679 112.333252,27.015354 
z"/>
<path fill="#014481" opacity="1.000000" stroke="none" 
	d="
M35.575836,84.071579 
	C35.082054,85.156136 34.297447,86.387016 33.250412,87.804855 
	C33.753662,86.733849 34.519341,85.475876 35.575836,84.071579 
z"/>
<path fill="#024989" opacity="1.000000" stroke="none" 
	d="
M141.891022,55.674782 
	C132.264587,50.182880 124.401024,42.290787 117.108078,33.323044 
	C117.949615,33.279327 119.174828,33.272430 119.806992,33.881290 
	C127.182747,40.985077 134.469223,48.181564 141.891022,55.674782 
z"/>
<path fill="#024989" opacity="1.000000" stroke="none" 
	d="
M154.127808,75.693535 
	C152.073624,71.889229 150.144531,67.779327 148.107300,63.335167 
	C148.746567,63.002991 149.493942,63.005058 150.614655,63.009964 
	C152.076294,67.137848 153.164597,71.262894 154.127808,75.693535 
z"/>
<path fill="#024989" opacity="1.000000" stroke="none" 
	d="
M147.944595,62.649277 
	C146.071365,60.879707 144.143433,58.758808 142.109726,56.317574 
	C143.965927,58.097477 145.927917,60.197708 147.944595,62.649277 
z"/>
<path fill="#1478C0" opacity="1.000000" stroke="none" 
	d="
M44.341187,75.431046 
	C45.431339,74.849533 46.435081,74.578445 47.720428,74.152443 
	C49.091297,74.059418 50.180550,74.121307 51.903839,74.304749 
	C53.020508,74.609428 53.503136,74.792557 53.837582,75.237877 
	C53.595039,76.409920 53.257797,78.061653 53.441601,78.121834 
	C58.975857,79.933647 64.513618,81.799339 70.180321,83.086494 
	C71.288849,83.338303 73.097672,81.396454 74.181808,80.124107 
	C74.401527,79.866241 72.809723,78.064819 71.947914,76.647087 
	C71.828117,71.740387 72.243080,66.943230 66.285133,65.385422 
	C66.241638,65.218102 66.198151,65.050789 66.077042,64.638817 
	C66.751389,64.308907 67.503357,64.223656 68.628403,64.076965 
	C69.747742,64.045906 70.493996,64.076279 71.791588,64.368790 
	C73.571625,66.448425 74.800323,68.265923 76.154831,70.241959 
	C76.454712,70.606468 76.643410,70.798019 76.855347,71.409149 
	C76.903824,73.588455 76.943687,75.333763 76.983543,77.079079 
	C77.041145,81.137932 77.094696,85.196854 77.157227,89.255630 
	C77.264435,96.214081 81.081741,101.671860 87.451988,104.163742 
	C82.893211,106.280083 79.277634,105.071632 76.460487,101.436340 
	C74.610710,99.049355 72.172844,97.118103 69.721512,94.869804 
	C68.293381,95.835152 67.142090,96.913452 65.994934,97.995872 
	C65.999084,98.000000 65.985779,97.992874 65.741699,98.165848 
	C65.313194,99.386269 64.590088,100.875771 65.029518,101.411240 
	C68.558983,105.712021 72.307770,109.832817 76.196121,114.233078 
	C77.261032,115.320068 78.119293,116.182648 79.081970,117.233505 
	C79.790611,117.619637 80.394852,117.817482 81.406914,118.018845 
	C83.873894,118.352654 85.933044,118.682938 88.187691,119.290001 
	C91.785889,121.211220 95.066406,123.218170 98.619698,124.415886 
	C104.066116,126.251709 107.419403,124.822899 111.263748,119.816696 
	C112.338165,119.097832 113.160545,118.538574 114.131676,118.270187 
	C115.187035,120.036118 116.093636,121.511200 116.767998,123.237709 
	C111.660469,126.263161 106.999687,129.899567 100.828568,128.133682 
	C91.431808,125.444771 82.057724,122.674950 72.702400,119.845627 
	C71.850586,119.588020 70.617043,118.702858 70.554932,118.018837 
	C69.990532,111.803917 64.444138,109.647408 60.804619,106.072426 
	C56.812767,102.151344 56.364250,99.123215 60.149071,95.053093 
	C61.738277,93.344086 63.153816,91.473595 64.596855,89.738388 
	C59.540634,87.106262 55.239029,85.108040 51.198082,82.676620 
	C48.606300,81.117134 46.398701,78.919151 44.018887,77.007393 
	C44.097519,76.585419 44.176147,76.163452 44.341187,75.431046 
z"/>
<path fill="#0F6DB4" opacity="1.000000" stroke="none" 
	d="
M43.761600,77.257523 
	C46.398701,78.919151 48.606300,81.117134 51.198082,82.676620 
	C55.239029,85.108040 59.540634,87.106262 64.596855,89.738388 
	C63.153816,91.473595 61.738277,93.344086 60.149071,95.053093 
	C56.364250,99.123215 56.812767,102.151344 60.804619,106.072426 
	C64.444138,109.647408 69.990532,111.803917 70.554932,118.018837 
	C70.617043,118.702858 71.850586,119.588020 72.702400,119.845627 
	C82.057724,122.674950 91.431808,125.444771 100.828568,128.133682 
	C106.999687,129.899567 111.660469,126.263161 117.103165,123.351425 
	C121.015923,124.774529 124.226631,125.814110 126.114639,120.741287 
	C126.537308,118.935532 126.790565,117.465019 127.223938,116.287186 
	C129.257843,118.077591 131.111633,119.575310 133.129852,121.232025 
	C133.515717,121.601128 133.744629,121.802711 134.314682,122.001518 
	C135.092850,122.017166 135.537369,122.027069 135.981903,122.036980 
	C135.490875,128.680664 130.178574,129.574966 125.300652,131.115906 
	C116.638824,133.852173 108.283348,133.733414 99.533073,130.659012 
	C90.161995,127.366486 80.308083,125.467758 70.747826,122.676697 
	C68.944405,122.150200 66.929123,120.616028 66.049507,118.986549 
	C63.505211,114.273270 60.852943,110.303001 54.775982,109.751640 
	C51.039474,109.412643 49.798409,104.504440 51.909611,99.966049 
	C56.934620,89.163925 56.934914,89.163139 45.494995,84.946312 
	C41.315334,83.405663 41.357826,80.739189 43.761600,77.257523 
z"/>
<path fill="#00529E" opacity="1.000000" stroke="none" 
	d="
M136.217041,121.877243 
	C135.537369,122.027069 135.092850,122.017166 134.225723,121.738159 
	C133.540588,120.980331 133.278030,120.491615 132.855774,119.670082 
	C126.596878,105.022255 129.273193,98.461578 143.012772,94.047112 
	C141.723770,95.428299 140.605148,97.037651 139.115433,98.150040 
	C133.527405,102.322639 132.487350,107.631111 136.029175,113.600143 
	C137.259537,115.673683 137.941238,118.072777 138.685730,120.659248 
	C138.331268,121.002060 138.164612,121.008804 137.997955,121.015549 
	C137.482697,121.249535 136.967422,121.483521 136.217041,121.877243 
z"/>
<path fill="#0A599A" opacity="1.000000" stroke="none" 
	d="
M144.009323,127.986099 
	C144.016571,128.153122 144.023804,128.320145 144.043243,128.737503 
	C144.044113,129.435730 144.032806,129.883591 143.812256,130.916870 
	C143.066132,132.666534 142.529266,133.830811 141.992416,134.995087 
	C140.887863,135.281006 139.783310,135.566910 138.346649,135.933777 
	C134.617493,136.331024 131.220444,136.647354 127.397682,136.968140 
	C129.186188,131.460861 133.875580,131.635071 139.078110,132.325928 
	C139.078110,130.497406 139.078110,129.085327 139.387878,127.463272 
	C141.134888,127.497574 142.572098,127.741837 144.009323,127.986099 
z"/>
<path fill="#065395" opacity="1.000000" stroke="none" 
	d="
M143.890900,127.694939 
	C142.572098,127.741837 141.134888,127.497574 139.356506,127.126892 
	C139.011032,125.933792 139.006699,124.867119 139.333206,123.399338 
	C140.108368,122.995064 140.552689,122.991905 140.996994,122.988739 
	C141.532394,123.528557 142.067780,124.068390 142.805115,124.810272 
	C143.262192,125.809464 143.517319,126.606621 143.890900,127.694939 
z"/>
<path fill="#0A599A" opacity="1.000000" stroke="none" 
	d="
M36.265430,90.821060 
	C36.766342,89.732635 37.554893,88.481613 38.644730,87.094803 
	C38.148369,88.192162 37.350719,89.425308 36.265430,90.821060 
z"/>
<path fill="#0A599A" opacity="1.000000" stroke="none" 
	d="
M120.863297,137.711914 
	C119.896835,137.733734 118.760025,137.513306 117.312973,137.133698 
	C118.232803,137.139572 119.462868,137.304626 120.863297,137.711914 
z"/>
<path fill="#0A599A" opacity="1.000000" stroke="none" 
	d="
M140.853882,122.737335 
	C140.552689,122.991905 140.108368,122.995064 139.330719,122.999352 
	C138.729172,122.512825 138.460953,122.025185 138.095352,121.276543 
	C138.164612,121.008804 138.331268,121.002060 138.747864,120.983971 
	C139.568787,121.477058 140.139771,121.981499 140.853882,122.737335 
z"/>
<path fill="#065395" opacity="1.000000" stroke="none" 
	d="
M142.278320,134.885132 
	C142.529266,133.830811 143.066132,132.666534 143.807098,131.252716 
	C143.528870,132.260498 143.046539,133.517838 142.278320,134.885132 
z"/>
<path fill="#089AF1" opacity="1.000000" stroke="none" 
	d="
M79.771927,43.440254 
	C80.015480,42.595692 80.374397,42.108913 81.220474,41.384148 
	C83.684311,43.096321 85.660965,45.046486 87.953369,47.308163 
	C89.479935,45.611618 91.004654,43.917114 91.986458,42.825985 
	C89.803925,41.126606 88.403481,40.036186 87.003044,38.945766 
	C88.795273,38.424717 90.587502,37.903667 92.955673,37.053612 
	C94.664001,35.543461 95.796394,34.362316 96.928787,33.181168 
	C97.451668,33.412086 97.974548,33.643005 98.747650,34.299622 
	C99.202431,35.359676 99.406990,35.994026 99.611557,36.628376 
	C99.836388,36.573036 100.061218,36.517696 100.286057,36.462353 
	C100.200653,35.711491 100.115250,34.960632 100.029846,34.209770 
	C101.172134,35.188992 102.314423,36.168213 103.803650,37.681580 
	C106.339241,40.935482 108.527893,43.655231 110.716537,46.374985 
	C110.314781,46.814102 109.913025,47.253220 109.511269,47.692341 
	C106.608864,46.562855 103.706451,45.433369 100.804039,44.303883 
	C101.178658,46.365887 102.220901,47.821548 103.534035,48.966541 
	C106.747063,51.768139 110.085243,54.426205 113.506783,57.365601 
	C114.108528,58.088520 114.576546,58.587875 115.019371,59.043552 
	C114.994171,58.999878 114.919464,58.932137 115.019005,59.139870 
	C115.267220,59.639359 115.499313,59.829025 116.129684,59.826042 
	C117.314980,59.112934 118.185432,58.490376 119.427589,57.871994 
	C121.205681,57.499649 122.612068,57.123123 124.018456,56.746597 
	C124.485741,56.768265 124.953033,56.789928 125.886055,57.093735 
	C127.224419,57.494556 128.097046,57.613243 128.969681,57.731934 
	C129.156174,57.759525 129.342667,57.787121 129.918503,58.148804 
	C130.895081,58.956379 131.482330,59.429859 132.069580,59.903343 
	C135.123199,62.415150 138.325226,64.769287 141.197845,67.473396 
	C146.306015,72.281921 150.091614,77.727646 148.000244,85.778481 
	C147.787048,86.405136 147.598541,86.607430 147.017059,87.088699 
	C146.034012,87.876549 145.460602,88.400932 144.585663,89.011261 
	C143.537430,89.469193 142.790695,89.841194 141.661285,90.221603 
	C128.150894,92.952202 123.501938,97.284492 123.157341,107.670349 
	C123.042831,111.121696 123.751549,114.600372 123.805260,118.114021 
	C118.732574,118.202484 118.004669,114.021416 116.266068,110.644653 
	C116.631012,107.285477 116.666664,104.286942 117.121002,101.353256 
	C118.091423,95.087105 119.304665,88.705368 125.093376,84.943817 
	C128.519089,82.717773 129.522369,80.365067 128.031052,76.640495 
	C127.491241,75.292320 127.484802,73.730591 127.553543,72.511002 
	C129.804459,72.877289 131.736847,72.998878 133.669220,73.120461 
	C133.641953,72.361740 133.774490,70.995384 133.562393,70.939606 
	C131.722824,70.455894 129.824585,70.185150 127.934708,69.914619 
	C127.666382,69.876198 127.349167,70.179276 127.042679,69.910370 
	C126.124077,62.251293 118.930862,58.729485 110.636177,62.217827 
	C107.013947,63.741161 104.060219,63.376453 100.714020,62.306587 
	C99.560806,61.937874 98.245018,62.077621 97.003502,61.985092 
	C96.272781,61.651978 95.542061,61.318867 94.522720,60.612099 
	C91.475349,58.176865 88.716606,56.115288 85.957863,54.053707 
	C83.934341,50.635151 81.910820,47.216595 79.771927,43.440254 
M94.949883,42.536011 
	C95.733788,43.081367 96.517685,43.626720 97.301590,44.172073 
	C97.518723,43.621159 97.735855,43.070248 97.952988,42.519333 
	C97.010849,42.363316 96.068703,42.207302 94.949883,42.536011 
z"/>
<path fill="#005FB2" opacity="1.000000" stroke="none" 
	d="
M142.043945,90.213196 
	C142.790695,89.841194 143.537430,89.469193 144.953079,89.047470 
	C146.111862,89.035431 146.601730,89.073112 147.091583,89.110786 
	C145.886459,90.605721 144.681335,92.100662 143.244476,93.821358 
	C129.273193,98.461578 126.596878,105.022255 132.843079,119.937576 
	C132.981842,120.716255 132.973633,120.894638 132.965408,121.073029 
	C131.111633,119.575310 129.257843,118.077591 127.170097,115.909386 
	C124.098145,102.731026 126.567451,97.925636 138.124695,93.058487 
	C139.573563,92.448311 140.744324,91.177757 142.043945,90.213196 
z"/>
<path fill="#00529E" opacity="1.000000" stroke="none" 
	d="
M148.530487,87.349442 
	C149.068115,86.346512 149.836060,85.402168 150.817749,84.239212 
	C150.274582,85.149742 149.517700,86.278877 148.530487,87.349442 
z"/>
<path fill="#024989" opacity="1.000000" stroke="none" 
	d="
M84.290710,31.902573 
	C84.793083,31.376585 85.587334,30.755316 86.689407,30.065672 
	C86.192352,30.600628 85.387466,31.203959 84.290710,31.902573 
z"/>
<path fill="#006BC4" opacity="1.000000" stroke="none" 
	d="
M147.117020,88.783501 
	C146.601730,89.073112 146.111862,89.035431 145.254578,88.961533 
	C145.460602,88.400932 146.034012,87.876549 146.885773,87.251007 
	C147.156876,87.585304 147.149658,88.020760 147.117020,88.783501 
z"/>
<path fill="#057BD6" opacity="1.000000" stroke="none" 
	d="
M127.234993,72.266304 
	C127.484802,73.730591 127.491241,75.292320 128.031052,76.640495 
	C129.522369,80.365067 128.519089,82.717773 125.093376,84.943817 
	C119.304665,88.705368 118.091423,95.087105 117.121002,101.353256 
	C116.666664,104.286942 116.631012,107.285477 116.053383,110.791031 
	C115.128410,113.544739 114.555656,115.762024 113.982918,117.979324 
	C113.160545,118.538574 112.338165,119.097832 111.117371,119.594398 
	C108.453506,118.340858 106.188057,117.149994 103.786316,115.637749 
	C102.410614,112.235352 101.171204,109.154343 100.249763,106.007874 
	C102.194481,106.208176 103.820427,106.479019 105.448158,106.738670 
	C108.928528,107.293854 111.309731,105.895302 112.447754,102.589066 
	C115.553070,93.567398 118.719589,84.563843 121.625298,75.477455 
	C123.609467,69.272812 121.606995,66.518936 114.960541,66.096161 
	C110.985390,65.843307 106.982498,66.026703 102.992073,66.014000 
	C101.094391,64.869804 99.196709,63.725605 97.151260,62.283249 
	C98.245018,62.077621 99.560806,61.937874 100.714020,62.306587 
	C104.060219,63.376453 107.013947,63.741161 110.636177,62.217827 
	C118.930862,58.729485 126.124077,62.251293 127.052910,70.051529 
	C127.075035,70.606621 126.956985,70.866180 126.907425,71.048080 
	C126.964844,71.597969 127.071815,71.965950 127.178711,72.305077 
	C127.178642,72.276222 127.234993,72.266304 127.234993,72.266304 
z"/>
<path fill="#2390D3" opacity="1.000000" stroke="none" 
	d="
M99.931801,106.073334 
	C101.171204,109.154343 102.410614,112.235352 103.554680,115.886154 
	C102.036415,121.910286 99.262016,123.143990 94.289551,119.954140 
	C92.659889,118.908699 90.117302,119.286362 87.992203,119.013229 
	C85.933044,118.682938 83.873894,118.352654 81.172668,117.861679 
	C80.012917,117.482407 79.495239,117.263809 78.977554,117.045212 
	C78.119293,116.182648 77.261032,115.320068 76.090363,113.889847 
	C73.907913,108.629242 72.475822,103.691330 67.534584,100.971382 
	C66.718941,100.522408 66.487305,99.012489 65.985779,97.992874 
	C65.985779,97.992874 65.999084,98.000000 66.262344,97.830696 
	C67.683189,96.768517 68.840767,95.875633 69.998344,94.982758 
	C72.172844,97.118103 74.610710,99.049355 76.460487,101.436340 
	C79.277634,105.071632 82.893211,106.280083 87.771729,104.255066 
	C89.134895,103.096664 90.305733,102.207932 92.076469,101.283691 
	C94.774300,102.839378 96.872231,104.430565 98.553787,106.027748 
	C93.375938,106.714439 88.591805,107.274300 83.868690,108.159653 
	C82.667709,108.384781 81.660599,109.644165 80.564407,110.428337 
	C81.488228,111.483475 82.252182,113.183647 83.368904,113.460411 
	C85.744446,114.049141 88.301796,113.931946 90.787331,114.044106 
	C99.560562,114.439957 99.560997,114.430351 99.217079,106.034836 
	C99.455681,106.039787 99.931801,106.073334 99.931801,106.073334 
z"/>
<path fill="#0258A5" opacity="1.000000" stroke="none" 
	d="
M76.029022,70.083420 
	C74.800323,68.265923 73.571625,66.448425 72.165146,64.358658 
	C72.780350,63.759190 73.573326,63.431984 74.769775,63.395897 
	C77.112328,66.792664 79.051392,69.898308 81.060211,73.311531 
	C81.753021,74.411720 82.376091,75.204338 82.999580,75.998474 
	C83.000000,76.000000 83.002556,76.001755 83.163322,76.172813 
	C83.542053,76.568657 83.766777,76.786461 83.999130,76.998634 
	C84.000000,77.000000 84.003433,77.000488 84.173294,77.261658 
	C85.224777,78.018250 86.106384,78.513680 86.993225,79.005486 
	C86.998451,79.001869 86.988388,79.014153 87.042297,79.353012 
	C87.649101,82.557480 89.062630,83.559509 92.085808,82.641396 
	C93.197319,82.303833 94.730011,83.353172 96.070587,83.769897 
	C101.004257,86.970955 101.911797,83.219093 103.198006,79.619774 
	C104.724678,75.347542 100.860855,75.444824 98.986626,73.705032 
	C95.763962,70.713524 92.974892,67.254898 90.003822,63.992348 
	C94.945816,66.950760 99.926163,69.848457 104.794174,72.923973 
	C105.663055,73.472916 106.692223,74.851555 106.568192,75.686859 
	C106.186478,78.257561 104.793022,80.733032 104.701584,83.278152 
	C104.583069,86.576843 102.876213,87.610641 100.179558,88.604347 
	C96.796837,89.850883 93.754677,92.070427 90.340218,93.171005 
	C84.764542,94.968208 82.475029,93.118088 82.022568,87.137955 
	C81.897522,85.485130 82.335938,83.599770 81.676254,82.223541 
	C80.774513,80.342361 79.069931,78.846024 77.346512,77.131897 
	C76.943687,75.333763 76.903824,73.588455 76.728020,71.253876 
	C76.414886,70.460716 76.227203,70.266983 76.029022,70.083420 
z"/>
<path fill="#006BC4" opacity="1.000000" stroke="none" 
	d="
M100.249763,106.007874 
	C99.931801,106.073334 99.455681,106.039787 99.228104,106.019592 
	C99.000534,105.999405 98.970161,106.021751 98.970161,106.021751 
	C96.872231,104.430565 94.774300,102.839378 92.353294,101.126785 
	C92.475281,100.459045 93.063667,99.373291 93.343781,99.447723 
	C97.194466,100.470886 101.328423,103.227753 104.863556,99.934052 
	C107.814171,97.184921 109.704201,93.294487 112.045296,89.896660 
	C112.512100,89.219154 112.813393,88.417465 113.328339,87.784805 
	C119.421288,80.299126 116.777878,71.676903 107.398132,68.389359 
	C106.024467,67.907898 104.737732,67.178429 103.201424,66.288857 
	C106.982498,66.026703 110.985390,65.843307 114.960541,66.096161 
	C121.606995,66.518936 123.609467,69.272812 121.625298,75.477455 
	C118.719589,84.563843 115.553070,93.567398 112.447754,102.589066 
	C111.309731,105.895302 108.928528,107.293854 105.448158,106.738670 
	C103.820427,106.479019 102.194481,106.208176 100.249763,106.007874 
z"/>
<path fill="#00529E" opacity="1.000000" stroke="none" 
	d="
M89.754166,63.828117 
	C92.974892,67.254898 95.763962,70.713524 98.986626,73.705032 
	C100.860855,75.444824 104.724678,75.347542 103.198006,79.619774 
	C101.911797,83.219093 101.004257,86.970955 96.070587,83.769897 
	C94.730011,83.353172 93.197319,82.303833 92.085808,82.641396 
	C89.062630,83.559509 87.649101,82.557480 87.358078,79.456772 
	C89.179070,78.433380 92.080711,77.584991 92.048599,76.867966 
	C91.947441,74.608650 91.374321,71.151443 89.859535,70.387627 
	C83.639755,67.251373 81.923805,61.192272 79.045845,55.831398 
	C80.907982,57.026566 82.770119,58.221737 84.964561,59.948357 
	C85.876511,60.979549 86.456154,61.479286 87.035797,61.979027 
	C87.858704,62.540646 88.681602,63.102264 89.754166,63.828117 
z"/>
<path fill="#00509A" opacity="1.000000" stroke="none" 
	d="
M78.910309,55.563431 
	C81.923805,61.192272 83.639755,67.251373 89.859535,70.387627 
	C91.374321,71.151443 91.947441,74.608650 92.048599,76.867966 
	C92.080711,77.584991 89.179070,78.433380 87.304169,79.117905 
	C86.988388,79.014153 86.998451,79.001869 86.793236,78.774353 
	C85.726494,78.031380 84.864960,77.515930 84.003433,77.000488 
	C84.003433,77.000488 84.000000,77.000000 83.838257,76.827721 
	C83.458481,76.430733 83.233826,76.212837 83.002556,76.001755 
	C83.002556,76.001755 83.000000,76.000000 82.899712,75.708939 
	C82.196434,74.613243 81.593445,73.808601 80.990463,73.003952 
	C79.051392,69.898308 77.112328,66.792664 75.089188,63.341846 
	C75.803665,61.645611 77.051064,60.367020 77.283951,58.924625 
	C77.557640,57.229504 76.950661,55.392197 77.146255,53.297337 
	C77.765434,52.969585 77.963951,52.961048 78.162476,52.952507 
	C78.366577,53.733490 78.570671,54.514477 78.910309,55.563431 
z"/>
<path fill="#057BD6" opacity="1.000000" stroke="none" 
	d="
M86.031425,54.389107 
	C88.716606,56.115288 91.475349,58.176865 94.238281,60.512497 
	C91.529984,58.765869 88.817482,56.745190 86.031425,54.389107 
z"/>
<path fill="#0258A5" opacity="1.000000" stroke="none" 
	d="
M78.235359,52.650948 
	C77.963951,52.961048 77.765434,52.969585 77.268646,52.986992 
	C76.570534,50.857231 76.170692,48.718601 75.920517,46.284416 
	C76.816208,48.109035 77.562225,50.229210 78.235359,52.650948 
z"/>
<path fill="#0258A5" opacity="1.000000" stroke="none" 
	d="
M86.894043,61.724323 
	C86.456154,61.479286 85.876511,60.979549 85.158798,60.221939 
	C85.597908,60.465919 86.175102,60.967770 86.894043,61.724323 
z"/>
<path fill="#0C9DF3" opacity="1.000000" stroke="none" 
	d="
M119.055885,57.867813 
	C118.185432,58.490376 117.314980,59.112934 116.064110,59.594719 
	C115.526207,59.137569 115.271461,58.963634 114.919464,58.932137 
	C114.919464,58.932137 114.994171,58.999878 115.035919,58.721531 
	C114.509468,58.009468 113.941261,57.575752 113.373055,57.142036 
	C110.085243,54.426205 106.747063,51.768139 103.534035,48.966541 
	C102.220901,47.821548 101.178658,46.365887 100.804039,44.303883 
	C103.706451,45.433369 106.608864,46.562855 109.511269,47.692341 
	C109.913025,47.253220 110.314781,46.814102 110.716537,46.374985 
	C108.527893,43.655231 106.339241,40.935482 104.006233,37.881264 
	C106.183022,38.560806 108.504173,39.574818 111.148392,41.103188 
	C112.557930,43.423023 113.790932,45.158123 114.699120,47.049213 
	C116.382721,50.554935 120.290298,53.188194 119.055885,57.867813 
z"/>
<path fill="#057BD6" opacity="1.000000" stroke="none" 
	d="
M119.427589,57.871994 
	C120.290298,53.188194 116.382721,50.554935 114.699120,47.049213 
	C113.790932,45.158123 112.557930,43.423023 111.452499,41.277023 
	C114.121246,43.981457 116.896851,46.954643 119.464012,50.098076 
	C121.023849,52.008049 122.261726,54.180958 123.831345,56.491173 
	C122.612068,57.123123 121.205681,57.499649 119.427589,57.871994 
z"/>
<path fill="#0C9DF3" opacity="1.000000" stroke="none" 
	d="
M86.568756,38.897842 
	C88.403481,40.036186 89.803925,41.126606 91.986458,42.825985 
	C91.004654,43.917114 89.479935,45.611618 87.953369,47.308163 
	C85.660965,45.046486 83.684311,43.096321 81.347382,41.109978 
	C80.954468,40.614758 80.921806,40.155720 80.875259,39.353123 
	C82.619057,38.956345 84.376762,38.903130 86.568756,38.897842 
z"/>
<path fill="#0C9DF3" opacity="1.000000" stroke="none" 
	d="
M96.579224,33.142570 
	C95.796394,34.362316 94.664001,35.543461 93.245903,36.855324 
	C94.050018,35.692013 95.139832,34.397991 96.579224,33.142570 
z"/>
<path fill="#0C9DF3" opacity="1.000000" stroke="none" 
	d="
M99.760895,34.184380 
	C100.115250,34.960632 100.200653,35.711491 100.286057,36.462353 
	C100.061218,36.517696 99.836388,36.573036 99.611557,36.628376 
	C99.406990,35.994026 99.202431,35.359676 98.976631,34.473892 
	C99.134239,34.201309 99.313087,34.180149 99.760895,34.184380 
z"/>
<path fill="#057BD6" opacity="1.000000" stroke="none" 
	d="
M128.703247,57.597347 
	C128.097046,57.613243 127.224419,57.494556 126.234825,57.132423 
	C126.890846,57.080242 127.663841,57.271500 128.703247,57.597347 
z"/>
<path fill="#057BD6" opacity="1.000000" stroke="none" 
	d="
M131.939575,59.646812 
	C131.482330,59.429859 130.895081,58.956379 130.193329,58.215420 
	C130.655731,58.428726 131.232651,58.909504 131.939575,59.646812 
z"/>
<path fill="#0F6DB4" opacity="1.000000" stroke="none" 
	d="
M53.985764,74.975677 
	C53.503136,74.792557 53.020508,74.609428 52.313110,74.304916 
	C53.226509,72.934013 54.364674,71.684502 55.784828,70.694092 
	C56.023346,71.959816 55.979877,72.966446 55.768135,74.139008 
	C55.372875,74.523895 55.144753,74.741653 54.683002,74.959534 
	C54.450516,74.960846 53.985767,74.975677 53.985764,74.975677 
z"/>
<path fill="#1881CA" opacity="1.000000" stroke="none" 
	d="
M55.936409,73.973068 
	C55.979877,72.966446 56.023346,71.959816 56.086746,70.581017 
	C56.106678,70.208839 56.513519,70.063866 56.720505,70.003799 
	C57.687092,69.949570 58.446693,69.955414 59.484039,70.268341 
	C58.486656,71.707970 57.211533,72.840523 55.936409,73.973068 
z"/>
<path fill="#2390D3" opacity="1.000000" stroke="none" 
	d="
M55.768135,74.139008 
	C57.211533,72.840523 58.486656,71.707970 59.863083,70.263237 
	C60.205517,66.422363 62.896473,66.001678 65.921165,65.464027 
	C72.243080,66.943230 71.828117,71.740387 71.907455,77.011475 
	C71.568192,81.397545 69.866669,82.145134 66.566040,80.416817 
	C62.770466,78.429337 58.806385,76.763672 54.915489,74.958229 
	C55.144753,74.741653 55.372875,74.523895 55.768135,74.139008 
z"/>
<path fill="#1881CA" opacity="1.000000" stroke="none" 
	d="
M88.187691,119.290001 
	C90.117302,119.286362 92.659889,118.908699 94.289551,119.954140 
	C99.262016,123.143990 102.036415,121.910286 103.690979,116.207550 
	C106.188057,117.149994 108.453506,118.340858 110.865341,119.754013 
	C107.419403,124.822899 104.066116,126.251709 98.619698,124.415886 
	C95.066406,123.218170 91.785889,121.211220 88.187691,119.290001 
z"/>
<path fill="#1881CA" opacity="1.000000" stroke="none" 
	d="
M114.131668,118.270180 
	C114.555656,115.762024 115.128410,113.544739 115.913841,111.181076 
	C118.004669,114.021416 118.732574,118.202484 124.002045,118.329369 
	C124.966721,119.357010 125.455971,120.216774 125.945221,121.076538 
	C124.226631,125.814110 121.015923,124.774529 117.335419,123.099991 
	C116.093636,121.511200 115.187035,120.036118 114.131668,118.270180 
z"/>
<path fill="#1881CA" opacity="1.000000" stroke="none" 
	d="
M54.683002,74.959534 
	C58.806385,76.763672 62.770466,78.429337 66.566040,80.416817 
	C69.866669,82.145134 71.568192,81.397545 72.012604,77.339386 
	C72.809723,78.064819 74.401527,79.866241 74.181808,80.124107 
	C73.097672,81.396454 71.288849,83.338303 70.180321,83.086494 
	C64.513618,81.799339 58.975857,79.933647 53.441601,78.121834 
	C53.257797,78.061653 53.595039,76.409920 53.837585,75.237869 
	C53.985767,74.975677 54.450516,74.960846 54.683002,74.959534 
z"/>
<path fill="#1881CA" opacity="1.000000" stroke="none" 
	d="
M65.741699,98.165848 
	C66.487305,99.012489 66.718941,100.522408 67.534584,100.971382 
	C72.475822,103.691330 73.907913,108.629242 75.883713,113.665428 
	C72.307770,109.832817 68.558983,105.712021 65.029518,101.411240 
	C64.590088,100.875771 65.313194,99.386269 65.741699,98.165848 
z"/>
<path fill="#1881CA" opacity="1.000000" stroke="none" 
	d="
M69.721512,94.869804 
	C68.840767,95.875633 67.683189,96.768517 66.258202,97.826569 
	C67.142090,96.913452 68.293381,95.835152 69.721512,94.869804 
z"/>
<path fill="#1881CA" opacity="1.000000" stroke="none" 
	d="
M79.081970,117.233505 
	C79.495239,117.263809 80.012917,117.482407 80.764847,117.858162 
	C80.394852,117.817482 79.790611,117.619637 79.081970,117.233505 
z"/>
<path fill="#0164B9" opacity="1.000000" stroke="none" 
	d="
M76.154831,70.241959 
	C76.227203,70.266983 76.414886,70.460716 76.719406,70.819885 
	C76.643410,70.798019 76.454712,70.606468 76.154831,70.241959 
z"/>
<path fill="#006BC4" opacity="1.000000" stroke="none" 
	d="
M126.114639,120.741287 
	C125.455971,120.216774 124.966721,119.357010 124.280685,118.281898 
	C123.751549,114.600372 123.042831,111.121696 123.157341,107.670349 
	C123.501938,97.284492 128.150894,92.952202 141.661285,90.221603 
	C140.744324,91.177757 139.573563,92.448311 138.124695,93.058487 
	C126.567451,97.925636 124.098145,102.731026 126.989975,115.616699 
	C126.790565,117.465019 126.537308,118.935532 126.114639,120.741287 
z"/>
<path fill="#0D61A4" opacity="1.000000" stroke="none" 
	d="
M133.129852,121.232025 
	C132.973633,120.894638 132.981842,120.716255 133.002777,120.270386 
	C133.278030,120.491615 133.540588,120.980331 133.892090,121.732407 
	C133.744629,121.802711 133.515717,121.601128 133.129852,121.232025 
z"/>
<path fill="#C4E5F7" opacity="1.000000" stroke="none" 
	d="
M126.956985,70.866180 
	C126.956985,70.866180 127.075035,70.606621 127.064804,70.465454 
	C127.349167,70.179276 127.666382,69.876198 127.934708,69.914619 
	C129.824585,70.185150 131.722824,70.455894 133.562393,70.939606 
	C133.774490,70.995384 133.641953,72.361740 133.669220,73.120461 
	C131.736847,72.998878 129.804459,72.877289 127.553543,72.511002 
	C127.234993,72.266304 127.178642,72.276222 127.163025,71.927971 
	C127.083931,71.341866 127.020454,71.104019 126.956985,70.866180 
z"/>
<path fill="#0C9DF3" opacity="1.000000" stroke="none" 
	d="
M95.038223,42.293648 
	C96.068703,42.207302 97.010849,42.363316 97.952988,42.519333 
	C97.735855,43.070248 97.518723,43.621159 97.301590,44.172073 
	C96.517685,43.626720 95.733788,43.081367 95.038223,42.293648 
z"/>
<path fill="#C4E5F7" opacity="1.000000" stroke="none" 
	d="
M113.506783,57.365601 
	C113.941261,57.575752 114.509468,58.009468 115.061127,58.765205 
	C114.576546,58.587875 114.108528,58.088520 113.506783,57.365601 
z"/>
<path fill="#C4E5F7" opacity="1.000000" stroke="none" 
	d="
M115.019005,59.139870 
	C115.271461,58.963634 115.526207,59.137569 115.749268,59.685265 
	C115.499313,59.829025 115.267220,59.639359 115.019005,59.139870 
z"/>
<path fill="#089AF1" opacity="1.000000" stroke="none" 
	d="
M126.907425,71.048080 
	C127.020454,71.104019 127.083931,71.341866 127.163094,71.956825 
	C127.071815,71.965950 126.964844,71.597969 126.907425,71.048080 
z"/>
<path fill="#30A0E1" opacity="1.000000" stroke="none" 
	d="
M98.989502,106.014641 
	C99.560997,114.430351 99.560562,114.439957 90.787331,114.044106 
	C88.301796,113.931946 85.744446,114.049141 83.368904,113.460411 
	C82.252182,113.183647 81.488228,111.483475 80.564407,110.428337 
	C81.660599,109.644165 82.667709,108.384781 83.868690,108.159653 
	C88.591805,107.274300 93.375938,106.714439 98.553787,106.027748 
	C98.970161,106.021751 99.000534,105.999405 98.989502,106.014641 
z"/>
<path fill="#00529E" opacity="1.000000" stroke="none" 
	d="
M84.173294,77.261658 
	C84.864960,77.515930 85.726494,78.031380 86.788010,78.777969 
	C86.106384,78.513680 85.224777,78.018250 84.173294,77.261658 
z"/>
<path fill="#00529E" opacity="1.000000" stroke="none" 
	d="
M81.060211,73.311531 
	C81.593445,73.808601 82.196434,74.613243 82.899292,75.707413 
	C82.376091,75.204338 81.753021,74.411720 81.060211,73.311531 
z"/>
<path fill="#00529E" opacity="1.000000" stroke="none" 
	d="
M83.163322,76.172813 
	C83.233826,76.212837 83.458481,76.430733 83.837387,76.826355 
	C83.766777,76.786461 83.542053,76.568657 83.163322,76.172813 
z"/>
</svg>