<svg version="1.1" id="Layer_1" xmlns="http://www.w3.org/2000/svg" xmlns:xlink="http://www.w3.org/1999/xlink" x="0px" y="0px"
	 width="100%" viewBox="0 0 256 256" enable-background="new 0 0 256 256" xml:space="preserve">
<path fill="#08172B" opacity="1.000000" stroke="none" 
	d="
M2.000000,1.000000 
	C86.951424,1.000000 171.902847,1.000000 256.927124,1.000000 
	C256.927124,86.235947 256.927124,171.471985 256.927124,257.000000 
	C172.312668,257.000000 87.624985,257.000000 2.455951,256.531494 
	C1.983058,171.041977 1.991529,86.020988 2.000000,1.000000 
M48.556423,170.681656 
	C48.556423,170.681656 48.494884,170.291550 48.232323,169.763779 
	C47.866840,168.855850 47.501362,167.947937 47.211117,166.339661 
	C47.255157,165.175262 47.299202,164.010880 47.801556,162.249496 
	C49.226479,157.893448 52.184612,156.185303 56.762390,156.520752 
	C59.191204,156.698715 61.679688,156.062439 64.629555,155.740402 
	C57.773357,148.308746 49.011066,149.905090 43.837139,158.789246 
	C43.837139,158.789246 43.841606,158.769470 43.294830,159.136887 
	C43.197052,159.780151 43.099274,160.423401 42.828617,161.217316 
	C42.828617,161.217316 42.932594,161.421707 42.396198,162.066360 
	C42.317684,163.690430 42.239170,165.314499 42.120174,167.654678 
	C43.081383,169.767639 44.042587,171.880600 45.226189,174.633698 
	C49.853909,179.651932 55.540443,180.353775 61.651646,178.283203 
	C62.817459,177.888199 63.490894,176.039978 63.967625,175.416534 
	C58.506275,174.163620 53.778030,173.078888 49.088936,171.386581 
	C48.781708,171.173996 48.474483,170.961411 48.556423,170.681656 
M67.480408,168.675217 
	C67.623314,171.769852 67.766220,174.864471 68.339447,178.578552 
	C69.937325,178.364182 71.535202,178.149811 73.540161,177.230301 
	C73.671333,169.481720 73.859169,161.733200 73.864426,153.984528 
	C73.865112,152.976852 72.925102,151.968552 72.297737,151.621048 
	C70.873299,152.088745 69.448868,152.556458 67.501335,153.211823 
	C67.716049,157.168793 67.930763,161.125763 68.085175,165.840149 
	C68.129349,166.597778 68.173515,167.355423 68.029007,168.098648 
	C68.029007,168.098648 67.872200,167.992722 67.480408,168.675217 
M166.966309,176.953400 
	C166.992767,172.018112 167.237183,167.069763 166.942581,162.153717 
	C166.817947,160.073715 165.559921,158.061615 164.921082,155.380585 
	C165.142578,154.235245 165.364075,153.089905 165.602905,151.854950 
	C161.144684,152.328171 161.989532,155.511719 162.243149,157.929611 
	C162.741425,162.680359 161.076126,164.798553 156.167648,164.108734 
	C154.588455,163.886795 152.951782,164.073944 150.708344,164.073944 
	C150.708344,160.797928 150.708344,158.028763 150.811234,154.496017 
	C151.684128,150.700394 147.905365,152.330582 146.132660,151.528198 
	C146.050797,153.674683 145.968948,155.821152 146.042328,158.724091 
	C145.981689,159.490433 145.921036,160.256760 145.735031,161.254089 
	C145.637878,161.506058 145.678955,161.746719 146.005005,162.895981 
	C146.063293,167.213882 146.121582,171.531784 146.044479,176.622162 
	C146.115250,177.578964 146.186020,178.535782 146.258270,179.512482 
	C147.936890,179.157272 149.319778,178.864639 150.850357,178.540756 
	C150.850357,175.579102 150.850357,172.774704 150.976639,169.289230 
	C151.120621,168.589066 151.299759,167.272018 151.403519,167.277939 
	C155.061127,167.486389 158.711670,167.819046 162.186081,169.011368 
	C162.186081,172.565384 162.186081,176.119400 162.186081,179.673416 
	C162.644485,179.893082 163.102905,180.112747 163.561310,180.332413 
	C164.657700,179.508026 165.754074,178.683624 166.966309,176.953400 
M93.891953,162.192184 
	C91.481384,160.047226 88.821068,159.620667 85.506210,159.590378 
	C79.837875,159.538559 77.465683,161.517029 77.971741,166.917236 
	C77.670235,169.076462 76.680542,171.426926 77.215958,173.353561 
	C78.213051,176.941498 81.102196,178.715775 84.964523,179.029770 
	C89.744019,179.418320 93.181587,177.768875 95.695236,172.853546 
	C95.199257,169.513474 94.703278,166.173401 93.891953,162.192184 
M149.770767,58.313431 
	C147.559082,57.127834 145.347397,55.942234 143.139557,54.055374 
	C136.270325,49.452213 128.325302,50.406548 121.218552,51.656837 
	C110.680214,53.510841 102.847038,60.231728 98.473351,70.730545 
	C98.473351,70.730545 98.836296,70.718788 98.292358,70.898460 
	C98.238335,71.268524 98.184311,71.638588 97.588959,72.511581 
	C96.041206,73.916115 94.725487,75.915588 92.906616,76.624969 
	C83.715759,80.209480 77.304054,86.186729 74.348709,96.537872 
	C74.532173,102.111801 74.715630,107.685738 74.894524,113.843102 
	C74.995110,114.215302 75.095695,114.587509 75.301704,115.517036 
	C75.584381,116.007454 75.867058,116.497871 76.210625,117.605141 
	C76.969887,118.818222 77.729149,120.031303 78.779915,121.822853 
	C79.504623,122.591286 80.229332,123.359718 81.195702,124.654770 
	C81.767410,125.166801 82.339111,125.678841 83.201370,126.788383 
	C85.421677,128.348709 87.641983,129.909042 90.427315,131.854858 
	C93.288361,132.909698 96.149406,133.964523 99.580727,135.437943 
	C101.374245,135.328888 103.167763,135.219833 105.803757,134.971024 
	C107.227127,134.909729 108.650490,134.848450 110.715591,134.915359 
	C111.148972,134.882416 111.582359,134.849487 112.943611,134.946075 
	C123.610977,134.900986 134.278336,134.855911 145.865768,134.912781 
	C149.257095,134.979752 152.648438,135.046722 156.612122,135.497147 
	C158.117905,135.279099 159.623688,135.061050 161.873978,134.823288 
	C166.136688,132.302124 170.947739,130.387039 174.546036,127.131516 
	C181.669342,120.686783 183.986862,112.417107 181.005264,102.255135 
	C178.740036,94.750710 173.322723,90.180626 166.821014,86.363312 
	C165.052368,85.324875 164.140640,82.826874 162.965714,80.320763 
	C162.703537,79.242622 162.441345,78.164474 162.154846,76.300316 
	C161.131409,73.844658 160.107956,71.389000 158.973099,68.241753 
	C157.956558,66.834625 156.940002,65.427498 155.939972,63.327385 
	C153.997787,61.869053 152.055588,60.410721 149.770767,58.313431 
M171.230377,166.546249 
	C171.445999,168.545059 171.661636,170.543854 171.865479,172.803482 
	C171.865479,172.803482 172.048370,172.989822 172.074570,173.487228 
	C172.074570,173.487228 172.277344,173.942184 172.485031,174.565750 
	C175.451767,179.483688 180.207367,180.131042 184.850571,178.514450 
	C189.374313,176.939438 191.789352,173.145416 190.958542,167.207306 
	C189.776230,162.630035 187.322052,159.341492 182.220306,159.020798 
	C176.592163,158.666992 173.905762,160.519821 171.230377,166.546249 
M141.181488,161.014175 
	C141.181488,158.073517 141.181488,155.132874 141.181488,151.769180 
	C139.525452,151.847961 138.191437,151.911407 136.928009,151.971512 
	C136.928009,155.310242 136.928009,158.120895 136.166214,160.890381 
	C127.271507,157.270401 122.677444,160.247513 121.007072,168.760757 
	C122.101555,178.115417 128.767090,181.925125 135.568390,177.524048 
	C136.759247,178.251099 138.325424,179.639847 138.716370,179.363861 
	C139.832291,178.576050 140.941956,177.198746 141.184311,175.892014 
	C141.536026,173.995575 141.125763,171.957794 141.198151,169.097122 
	C141.138443,166.702759 141.078720,164.308411 141.181488,161.014175 
M194.915298,174.848129 
	C194.915298,178.453766 194.915298,182.059387 194.915298,185.606415 
	C198.792938,186.065247 198.792938,186.065247 200.584824,179.338974 
	C212.492676,177.895752 213.911026,176.827255 214.518860,168.265823 
	C213.894333,160.427277 208.974319,157.806793 201.682251,159.844803 
	C200.967941,160.044449 200.009842,159.968872 199.345367,159.647675 
	C196.277664,158.164841 194.946304,159.344727 194.928268,162.445190 
	C194.906067,166.270706 195.022430,170.097015 194.915298,174.848129 
M101.003014,176.089035 
	C105.880150,182.245041 112.285606,176.371002 118.026222,179.246826 
	C118.026222,172.929947 118.183189,167.637131 117.903419,162.367477 
	C117.842117,161.212814 116.225281,160.140747 115.324806,159.030640 
	C114.540489,160.258896 113.253204,161.419159 113.076065,162.729492 
	C112.701660,165.499054 113.337540,168.448563 112.706413,171.123047 
	C112.353661,172.617874 110.465263,174.338058 108.939667,174.756470 
	C107.964165,175.024033 106.100388,173.318176 105.166306,172.092133 
	C104.340439,171.008102 104.249962,169.363815 104.002563,167.175400 
	C104.329735,165.290405 104.960419,163.387558 104.850922,161.528275 
	C104.799271,160.651306 103.347214,159.231934 102.493538,159.205002 
	C101.660324,159.178711 100.033699,160.624008 100.044632,161.405197 
	C100.109932,166.069565 100.548248,170.728683 101.003014,176.089035 
z"/>
<path fill="#58585A" opacity="1.000000" stroke="none" 
	d="
M1.500000,1.000000 
	C1.991529,86.020988 1.983058,171.041977 1.987294,256.531494 
	C1.666667,255.503555 1.042470,254.007294 1.041634,252.510651 
	C0.994805,168.673782 1.000000,84.836891 1.500000,1.000000 
z"/>
<path fill="#0766E5" opacity="1.000000" stroke="none" 
	d="
M181.023743,102.996422 
	C183.986862,112.417107 181.669342,120.686783 174.546036,127.131516 
	C170.947739,130.387039 166.136688,132.302124 161.073914,134.850708 
	C158.862503,134.956650 157.451126,135.035187 156.039764,135.113708 
	C152.648438,135.046722 149.257095,134.979752 145.401764,134.673859 
	C144.937744,134.434937 144.914993,134.059677 144.967773,133.672043 
	C145.318573,131.494293 145.616608,129.704178 145.958710,127.542542 
	C146.708221,124.803024 147.413651,122.435036 148.307953,119.870987 
	C148.702484,119.174950 148.908157,118.674957 149.371704,117.970871 
	C151.475494,115.894821 153.321396,114.022858 155.553833,112.056076 
	C159.515533,111.324440 163.075851,110.581261 166.669830,110.079376 
	C170.616928,109.528168 173.529007,107.800774 174.863708,103.446159 
	C174.934570,101.693878 174.946014,100.342468 175.161301,99.266518 
	C175.848282,102.991768 177.830765,103.985519 181.023743,102.996422 
z"/>
<path fill="#0683EC" opacity="1.000000" stroke="none" 
	d="
M78.488419,121.244385 
	C77.729149,120.031303 76.969887,118.818222 76.473267,117.143478 
	C77.449730,116.253143 78.200081,115.874924 78.871971,115.388367 
	C92.185905,105.747017 105.524117,96.138611 118.777985,86.415268 
	C122.993797,83.322456 126.980354,79.917145 131.312485,76.806137 
	C132.122665,77.415855 132.692184,77.874268 133.439423,78.585312 
	C134.455444,79.738098 135.293732,80.638245 136.040192,81.906357 
	C133.970520,85.128296 131.992691,87.982269 129.580551,90.883499 
	C125.095970,91.685677 120.759567,91.777184 117.070068,93.368538 
	C112.752907,95.230614 108.999466,98.399651 104.642532,101.029541 
	C102.654182,102.072678 100.900421,102.933708 99.416550,104.129608 
	C92.400085,109.784378 85.457390,115.530693 78.488419,121.244385 
z"/>
<path fill="#01B6F7" opacity="1.000000" stroke="none" 
	d="
M74.888062,95.984978 
	C77.304054,86.186729 83.715759,80.209480 92.906616,76.624969 
	C94.725487,75.915588 96.041206,73.916115 97.980804,72.047852 
	C98.510063,71.286499 98.664612,70.998055 98.836296,70.718788 
	C98.836296,70.718788 98.473351,70.730545 98.845932,70.623932 
	C101.011436,69.773422 102.896378,69.194817 104.581238,68.256821 
	C111.652756,64.319939 118.474373,59.758774 126.995712,60.328941 
	C126.597786,61.429150 126.280655,62.219723 125.714165,63.242493 
	C123.919601,64.395798 122.403244,65.369995 120.823738,66.227936 
	C116.334076,68.666580 111.520622,70.634682 107.374786,73.554878 
	C98.465431,79.830345 89.944458,86.654594 81.144882,93.090660 
	C79.326431,94.420692 76.987244,95.038773 74.888062,95.984978 
z"/>
<path fill="#00C4F9" opacity="1.000000" stroke="none" 
	d="
M127.076523,60.019302 
	C118.474373,59.758774 111.652756,64.319939 104.581238,68.256821 
	C102.896378,69.194817 101.011436,69.773422 98.838348,70.442520 
	C102.847038,60.231728 110.680214,53.510841 121.218552,51.656837 
	C128.325302,50.406548 136.270325,49.452213 142.882050,54.668419 
	C138.753281,57.111004 134.882004,58.940544 130.686554,60.681328 
	C129.267090,60.401482 128.171799,60.210392 127.076523,60.019302 
z"/>
<path fill="#02A9F5" opacity="1.000000" stroke="none" 
	d="
M74.618385,96.261429 
	C76.987244,95.038773 79.326431,94.420692 81.144882,93.090660 
	C89.944458,86.654594 98.465431,79.830345 107.374786,73.554878 
	C111.520622,70.634682 116.334076,68.666580 120.823738,66.227936 
	C122.403244,65.369995 123.919601,64.395798 125.748466,63.600933 
	C126.063286,64.686913 126.094429,65.646645 126.028961,66.976830 
	C124.940109,68.400803 124.096779,69.669388 122.933014,70.475212 
	C108.199646,80.676994 93.363075,90.731354 78.727417,101.070457 
	C76.972420,102.310257 76.244522,105.003960 75.038452,107.468491 
	C74.990585,109.695358 74.944839,111.477516 74.899094,113.259666 
	C74.715630,107.685738 74.532173,102.111801 74.618385,96.261429 
z"/>
<path fill="#058EEF" opacity="1.000000" stroke="none" 
	d="
M131.071808,76.654823 
	C126.980354,79.917145 122.993797,83.322456 118.777985,86.415268 
	C105.524117,96.138611 92.185905,105.747017 78.871971,115.388367 
	C78.200081,115.874924 77.449730,116.253143 76.442825,116.835052 
	C75.867058,116.497871 75.584381,116.007454 75.459404,114.995667 
	C80.024086,110.527824 84.112091,106.134026 88.899055,102.720398 
	C102.208344,93.229439 115.808083,84.145775 129.480927,75.065735 
	C130.136429,75.705116 130.604126,76.179970 131.071808,76.654823 
z"/>
<path fill="#0496F2" opacity="1.000000" stroke="none" 
	d="
M129.293091,74.901222 
	C115.808083,84.145775 102.208344,93.229439 88.899055,102.720398 
	C84.112091,106.134026 80.024086,110.527824 75.406693,114.717010 
	C75.095695,114.587509 74.995110,114.215302 74.896805,113.551384 
	C74.944839,111.477516 74.990585,109.695358 75.393723,107.432251 
	C77.323540,106.087540 78.989090,105.357735 80.453972,104.339294 
	C95.007156,94.221413 109.553925,84.093575 124.012932,73.842209 
	C125.378304,72.874161 126.133354,71.045288 127.389618,69.862076 
	C128.144440,71.062523 128.681396,72.016968 129.226501,73.293472 
	C129.254135,74.044090 129.273621,74.472656 129.293091,74.901222 
z"/>
<path fill="#2796F4" opacity="1.000000" stroke="none" 
	d="
M149.113846,118.174965 
	C148.908157,118.674957 148.702484,119.174950 147.893600,119.864067 
	C137.511230,123.394661 127.695419,126.635323 117.984955,130.165741 
	C116.123100,130.842651 114.675621,132.659302 112.852875,134.077606 
	C112.430450,134.386856 112.212776,134.590683 112.015739,134.816544 
	C111.582359,134.849487 111.148972,134.882416 110.300659,134.559235 
	C108.898987,133.180618 107.912231,132.158142 107.131866,130.841476 
	C108.886833,129.640854 110.369492,128.588577 111.995537,127.853462 
	C118.639664,124.849701 125.327591,121.942841 132.411713,118.964317 
	C138.253967,118.677216 143.683914,118.426086 149.113846,118.174965 
z"/>
<path fill="#0C81F1" opacity="1.000000" stroke="none" 
	d="
M103.834801,167.966888 
	C104.249962,169.363815 104.340439,171.008102 105.166306,172.092133 
	C106.100388,173.318176 107.964165,175.024033 108.939667,174.756470 
	C110.465263,174.338058 112.353661,172.617874 112.706413,171.123047 
	C113.337540,168.448563 112.701660,165.499054 113.076065,162.729492 
	C113.253204,161.419159 114.540489,160.258896 115.324814,159.030640 
	C116.225281,160.140747 117.842117,161.212814 117.903419,162.367477 
	C118.183189,167.637131 118.026222,172.929947 118.026222,179.246826 
	C112.285606,176.371002 105.880150,182.245041 100.955643,175.297974 
	C101.438248,172.127533 99.734215,168.748474 103.834801,167.966888 
z"/>
<path fill="#0668E5" opacity="1.000000" stroke="none" 
	d="
M106.925476,131.135651 
	C107.912231,132.158142 108.898987,133.180618 109.979797,134.495148 
	C108.650490,134.848450 107.227127,134.909729 104.960373,134.987411 
	C102.414810,135.008987 100.712631,135.014175 99.010452,135.019363 
	C96.149406,133.964523 93.288361,132.909698 90.233231,131.293396 
	C92.416389,124.605637 99.701477,121.382431 100.078369,114.008026 
	C100.215431,114.024254 100.490128,114.023735 100.485046,114.298553 
	C100.513107,114.753586 100.546249,114.933792 100.474098,115.440178 
	C100.632820,118.138290 100.896843,120.510223 101.261902,123.207962 
	C102.559669,125.409065 103.756393,127.284378 105.099121,129.401398 
	C105.805237,130.140625 106.365356,130.638138 106.925476,131.135651 
z"/>
<path fill="#0B72E6" opacity="1.000000" stroke="none" 
	d="
M214.341080,168.975937 
	C213.911026,176.827255 212.492676,177.895752 200.584824,179.338974 
	C198.792938,186.065247 198.792938,186.065247 194.915298,185.606415 
	C194.915298,182.059387 194.915298,178.453766 195.193542,174.072723 
	C196.641205,171.019547 194.863007,166.698654 199.798065,167.442352 
	C200.968048,170.394241 202.149658,172.942886 203.331253,175.491531 
	C205.376770,173.918655 207.444946,172.373932 209.454483,170.756363 
	C210.084442,170.249298 210.556625,169.546219 211.426025,168.938309 
	C212.614349,168.954468 213.477722,168.965195 214.341080,168.975937 
z"/>
<path fill="#0B7CF0" opacity="1.000000" stroke="none" 
	d="
M141.040482,169.980301 
	C141.125763,171.957794 141.536026,173.995575 141.184311,175.892014 
	C140.941956,177.198746 139.832291,178.576050 138.716370,179.363861 
	C138.325424,179.639847 136.759247,178.251099 135.568390,177.524048 
	C128.767090,181.925125 122.101555,178.115417 121.427429,168.388184 
	C123.279121,168.689117 124.710449,169.362625 126.352081,170.313248 
	C128.240540,172.043945 130.149216,174.859558 131.541519,174.623932 
	C133.507782,174.291168 135.092239,171.702347 136.922577,169.948669 
	C137.141281,169.529068 137.117813,169.243958 136.827118,168.691925 
	C136.661697,168.035477 136.604004,167.651077 136.905243,167.246918 
	C138.522949,168.144852 139.781708,169.062576 141.040482,169.980301 
z"/>
<path fill="#0E8DEB" opacity="1.000000" stroke="none" 
	d="
M162.363205,168.134201 
	C158.711670,167.819046 155.061127,167.486389 151.403519,167.277939 
	C151.299759,167.272018 151.120621,168.589066 150.533295,169.636154 
	C149.078644,169.990936 148.067337,169.998779 147.042023,169.571518 
	C148.254807,164.510803 149.481583,159.885208 150.708344,155.259598 
	C150.708344,158.028763 150.708344,160.797928 150.708344,164.073944 
	C152.951782,164.073944 154.588455,163.886795 156.167648,164.108734 
	C161.076126,164.798553 162.741425,162.680359 162.243149,157.929611 
	C161.989532,155.511719 161.144684,152.328171 165.602905,151.854950 
	C165.364075,153.089905 165.142578,154.235245 164.654709,155.981262 
	C164.138397,158.406952 163.475922,160.291809 163.730042,162.043701 
	C164.170044,165.077148 165.178070,168.028214 165.634033,170.978333 
	C164.334534,170.006638 163.348877,169.070419 162.363205,168.134201 
z"/>
<path fill="#0672E9" opacity="1.000000" stroke="none" 
	d="
M99.941307,113.991798 
	C99.701477,121.382431 92.416389,124.605637 89.950722,131.100662 
	C87.641983,129.909042 85.421677,128.348709 83.287003,126.235825 
	C87.340385,122.199318 91.212753,118.595718 95.337257,115.308472 
	C96.489700,114.389984 98.386154,114.405006 99.941307,113.991798 
z"/>
<path fill="#0E9AF7" opacity="1.000000" stroke="none" 
	d="
M214.429962,168.620880 
	C213.477722,168.965195 212.614349,168.954468 211.350327,168.657745 
	C210.121857,167.550003 209.231033,166.781967 208.476974,165.897369 
	C204.799927,161.583878 202.449936,161.882019 199.809677,167.039093 
	C194.863007,166.698654 196.641205,171.019547 195.275345,173.610153 
	C195.022430,170.097015 194.906067,166.270706 194.928268,162.445190 
	C194.946304,159.344727 196.277664,158.164841 199.345367,159.647675 
	C200.009842,159.968872 200.967941,160.044449 201.682251,159.844803 
	C208.974319,157.806793 213.894333,160.427277 214.429962,168.620880 
z"/>
<path fill="#0779EA" opacity="1.000000" stroke="none" 
	d="
M181.014496,102.625778 
	C177.830765,103.985519 175.848282,102.991768 174.955978,99.020500 
	C173.383957,97.003502 172.221085,95.507980 170.955841,93.684067 
	C166.881561,88.079567 161.268188,85.858109 155.115936,84.510818 
	C157.761292,83.120155 160.298447,82.059456 162.835617,80.998749 
	C164.140640,82.826874 165.052368,85.324875 166.821014,86.363312 
	C173.322723,90.180626 178.740036,94.750710 181.014496,102.625778 
z"/>
<path fill="#0E9AF7" opacity="1.000000" stroke="none" 
	d="
M141.119324,169.538712 
	C139.781708,169.062576 138.522949,168.144852 136.711472,166.956848 
	C134.288208,165.539108 132.392532,163.404099 130.552368,163.450943 
	C126.786316,163.546768 126.524048,167.067657 126.141777,170.036133 
	C124.710449,169.362625 123.279121,168.689117 121.495499,167.997711 
	C122.677444,160.247513 127.271507,157.270401 136.742447,160.675385 
	C137.841324,159.589890 138.363983,158.719391 139.073975,157.536850 
	C139.876831,159.343643 140.447922,160.628845 141.019012,161.914047 
	C141.078720,164.308411 141.138443,166.702759 141.119324,169.538712 
z"/>
<path fill="#0B79ED" opacity="1.000000" stroke="none" 
	d="
M172.048370,172.989822 
	C172.048370,172.989822 171.865479,172.803482 171.989288,172.318756 
	C173.354019,171.221146 174.594940,170.608276 175.963806,170.321854 
	C177.149551,172.289780 178.207306,173.931229 179.677521,176.212723 
	C181.894989,174.729706 183.947327,173.357132 186.146317,171.812454 
	C186.238312,171.097275 186.183670,170.554214 186.060242,169.687057 
	C186.029861,168.925705 186.068253,168.488449 186.503357,168.044922 
	C188.221909,168.010559 189.543747,167.982422 190.865585,167.954300 
	C191.789352,173.145416 189.374313,176.939438 184.850571,178.514450 
	C180.207367,180.131042 175.451767,179.483688 172.425476,174.127472 
	C172.382828,173.407166 172.276962,173.174042 172.048370,172.989822 
z"/>
<path fill="#0B79ED" opacity="1.000000" stroke="none" 
	d="
M95.126556,173.298935 
	C93.181587,177.768875 89.744019,179.418320 84.964523,179.029770 
	C81.102196,178.715775 78.213051,176.941498 77.215958,173.353561 
	C76.680542,171.426926 77.670235,169.076462 78.637871,166.944336 
	C79.507446,166.987732 79.710884,167.003998 79.960556,167.388733 
	C81.404037,170.441650 82.801270,173.126114 84.535316,176.457718 
	C87.041138,174.715256 88.970047,173.373962 91.140335,171.820007 
	C92.244797,171.041504 93.107887,170.475647 93.970978,169.909790 
	C94.356171,171.039505 94.741364,172.169220 95.126556,173.298935 
z"/>
<path fill="#0ABBF0" opacity="1.000000" stroke="none" 
	d="
M43.807026,158.768295 
	C49.011066,149.905090 57.773357,148.308746 64.629555,155.740402 
	C61.679688,156.062439 59.191204,156.698715 56.762390,156.520752 
	C52.184612,156.185303 49.226479,157.893448 47.510704,162.155380 
	C46.082249,160.963608 44.944637,159.865952 43.807026,158.768295 
z"/>
<path fill="#067EEB" opacity="1.000000" stroke="none" 
	d="
M162.900665,80.659760 
	C160.298447,82.059456 157.761292,83.120155 154.786224,84.558777 
	C152.893509,84.953934 151.438690,84.971161 149.891357,84.617981 
	C149.203934,81.829498 148.609024,79.411423 148.011902,76.661713 
	C147.968918,75.889687 147.928146,75.449287 148.279419,75.154434 
	C153.174026,75.895432 157.676590,76.490883 162.179153,77.086334 
	C162.441345,78.164474 162.703537,79.242622 162.900665,80.659760 
z"/>
<path fill="#0E98F3" opacity="1.000000" stroke="none" 
	d="
M190.912064,167.580811 
	C189.543747,167.982422 188.221909,168.010559 186.386734,167.688477 
	C184.580963,165.907440 183.011292,163.123306 182.052200,163.319763 
	C179.871445,163.766479 177.990646,165.677582 175.650879,166.852203 
	C174.123932,166.470673 172.934067,166.230408 171.744186,165.990143 
	C173.905762,160.519821 176.592163,158.666992 182.220306,159.020798 
	C187.322052,159.341492 189.776230,162.630035 190.912064,167.580811 
z"/>
<path fill="#0B79ED" opacity="1.000000" stroke="none" 
	d="
M49.049782,171.994171 
	C53.778030,173.078888 58.506275,174.163620 63.967625,175.416534 
	C63.490894,176.039978 62.817459,177.888199 61.651646,178.283203 
	C55.540443,180.353775 49.853909,179.651932 45.217903,173.957565 
	C46.304707,172.284805 47.399796,171.288177 48.494888,170.291550 
	C48.494884,170.291550 48.556423,170.681656 48.494221,170.933655 
	C48.637939,171.455170 48.843861,171.724670 49.049782,171.994171 
z"/>
<path fill="#067EEB" opacity="1.000000" stroke="none" 
	d="
M78.634163,121.533615 
	C85.457390,115.530693 92.400085,109.784378 99.416550,104.129608 
	C100.900421,102.933708 102.654182,102.072678 104.576309,101.355270 
	C104.205788,102.786034 103.542542,103.918892 102.713058,105.269859 
	C102.371193,106.004593 102.195564,106.521210 102.005554,107.020691 
	C101.991180,107.003555 102.035866,107.005119 101.851242,107.157486 
	C101.431892,107.528175 101.224754,107.770119 101.145874,108.042130 
	C101.246559,108.048576 101.303413,108.242188 100.927620,108.221771 
	C94.019234,113.510284 87.486641,118.819221 80.954048,124.128151 
	C80.229332,123.359718 79.504623,122.591286 78.634163,121.533615 
z"/>
<path fill="#058EEF" opacity="1.000000" stroke="none" 
	d="
M162.166992,76.693329 
	C157.676590,76.490883 153.174026,75.895432 148.046295,74.932190 
	C146.852936,73.393738 146.284775,72.223083 146.115479,70.970963 
	C150.704422,70.237450 154.894470,69.585396 159.084518,68.933342 
	C160.107956,71.389000 161.131409,73.844658 162.166992,76.693329 
z"/>
<path fill="#0779EA" opacity="1.000000" stroke="none" 
	d="
M81.074875,124.391464 
	C87.486641,118.819221 94.019234,113.510284 100.887833,108.632553 
	C100.979271,110.717079 100.734703,112.370407 100.490128,114.023735 
	C100.490128,114.023735 100.215431,114.024254 100.078369,114.008026 
	C98.386154,114.405006 96.489700,114.389984 95.337257,115.308472 
	C91.212753,118.595718 87.340385,122.199318 83.141731,125.937065 
	C82.339111,125.678841 81.767410,125.166801 81.074875,124.391464 
z"/>
<path fill="#02A9F5" opacity="1.000000" stroke="none" 
	d="
M150.113403,58.952389 
	C152.055588,60.410721 153.997787,61.869053 155.527008,63.708176 
	C150.715179,65.062065 146.316315,66.035172 141.639313,66.849091 
	C139.825378,65.485092 138.289581,64.280273 137.138580,62.987846 
	C141.720047,61.584286 145.916733,60.268337 150.113403,58.952389 
z"/>
<path fill="#01B6F7" opacity="1.000000" stroke="none" 
	d="
M149.942078,58.632912 
	C145.916733,60.268337 141.720047,61.584286 136.812836,62.912796 
	C134.405121,62.206932 132.707932,61.488506 131.010742,60.770084 
	C134.882004,58.940544 138.753281,57.111004 142.880127,55.019047 
	C145.347397,55.942234 147.559082,57.127834 149.942078,58.632912 
z"/>
<path fill="#039FF4" opacity="1.000000" stroke="none" 
	d="
M141.917435,67.008270 
	C146.316315,66.035172 150.715179,65.062065 155.518768,64.054672 
	C156.940002,65.427498 157.956558,66.834625 159.028809,68.587547 
	C154.894470,69.585396 150.704422,70.237450 145.901703,70.805443 
	C144.605865,70.116081 143.922668,69.510773 143.084747,68.660477 
	C142.592484,67.946419 142.254959,67.477341 141.917435,67.008270 
z"/>
<path fill="#0FA5F6" opacity="1.000000" stroke="none" 
	d="
M79.914314,167.020264 
	C79.710884,167.003998 79.507446,166.987732 78.998764,166.946991 
	C77.465683,161.517029 79.837875,159.538559 85.506210,159.590378 
	C88.821068,159.620667 91.481384,160.047226 93.827492,162.751007 
	C92.918533,164.542664 92.074036,165.775528 91.101227,166.659027 
	C87.695374,161.602493 86.772964,161.661758 79.914314,167.020264 
z"/>
<path fill="#0DADF6" opacity="1.000000" stroke="none" 
	d="
M150.759796,154.877808 
	C149.481583,159.885208 148.254807,164.510803 147.022827,169.955750 
	C146.738388,172.466614 146.459137,174.158157 146.179886,175.849686 
	C146.121582,171.531784 146.063293,167.213882 145.974899,162.197845 
	C145.944794,161.499725 145.860397,161.023102 145.860397,161.023102 
	C145.921036,160.256760 145.981689,159.490433 146.015167,157.973663 
	C146.223312,155.137543 146.458618,153.051865 146.693939,150.966171 
	C147.905365,152.330582 151.684128,150.700394 150.759796,154.877808 
z"/>
<path fill="#0E9AF7" opacity="1.000000" stroke="none" 
	d="
M103.918686,167.571136 
	C99.734215,168.748474 101.438248,172.127533 100.884834,174.948242 
	C100.548248,170.728683 100.109932,166.069565 100.044632,161.405197 
	C100.033699,160.624008 101.660324,159.178711 102.493538,159.205002 
	C103.347214,159.231934 104.799271,160.651306 104.850922,161.528275 
	C104.960419,163.387558 104.329735,165.290405 103.918686,167.571136 
z"/>
<path fill="#0DADF6" opacity="1.000000" stroke="none" 
	d="
M68.024429,153.024155 
	C69.448868,152.556458 70.873299,152.088745 72.446159,151.742844 
	C73.000397,155.727448 74.174561,159.711441 70.559830,162.986237 
	C69.904289,162.983032 69.529701,162.978058 68.964310,162.603363 
	C68.523811,159.163834 68.274124,156.093994 68.024429,153.024155 
z"/>
<path fill="#0B79ED" opacity="1.000000" stroke="none" 
	d="
M146.112183,176.235931 
	C146.459137,174.158157 146.738388,172.466614 147.036819,170.390854 
	C148.067337,169.998779 149.078644,169.990936 150.470154,169.976685 
	C150.850357,172.774704 150.850357,175.579102 150.850357,178.540756 
	C149.319778,178.864639 147.936890,179.157272 146.258270,179.512482 
	C146.186020,178.535782 146.115250,177.578964 146.112183,176.235931 
z"/>
<path fill="#0B72E6" opacity="1.000000" stroke="none" 
	d="
M162.274643,168.572784 
	C163.348877,169.070419 164.334534,170.006638 165.648560,171.380981 
	C166.268112,173.832474 166.559280,175.845856 166.850449,177.859238 
	C165.754074,178.683624 164.657700,179.508026 163.561310,180.332413 
	C163.102905,180.112747 162.644485,179.893082 162.186081,179.673416 
	C162.186081,176.119400 162.186081,172.565384 162.274643,168.572784 
z"/>
<path fill="#0B72E6" opacity="1.000000" stroke="none" 
	d="
M73.133080,177.935425 
	C71.535202,178.149811 69.937325,178.364182 68.163788,177.818451 
	C67.949486,174.036469 67.910843,171.014603 67.872200,167.992722 
	C67.872200,167.992722 68.029007,168.098648 68.286469,168.394775 
	C69.976837,169.789917 71.409729,170.888947 72.916000,172.407944 
	C73.037270,174.530426 73.085175,176.232925 73.133080,177.935425 
z"/>
<path fill="#0FA5F6" opacity="1.000000" stroke="none" 
	d="
M166.908386,177.406311 
	C166.559280,175.845856 166.268112,173.832474 165.962387,171.416458 
	C165.178070,168.028214 164.170044,165.077148 163.730042,162.043701 
	C163.475922,160.291809 164.138397,158.406952 164.602692,156.300293 
	C165.559921,158.061615 166.817947,160.073715 166.942581,162.153717 
	C167.237183,167.069763 166.992767,172.018112 166.908386,177.406311 
z"/>
<path fill="#0C81F1" opacity="1.000000" stroke="none" 
	d="
M72.842621,171.987976 
	C71.409729,170.888947 69.976837,169.789917 68.380814,168.401978 
	C68.173515,167.355423 68.129349,166.597778 68.383949,165.303406 
	C68.840187,164.168793 68.997650,163.570923 69.155121,162.973068 
	C69.529701,162.978058 69.904289,162.983032 70.737442,163.334137 
	C71.744888,166.449509 72.293755,169.218735 72.842621,171.987976 
z"/>
<path fill="#0E8DEB" opacity="1.000000" stroke="none" 
	d="
M91.229538,167.008377 
	C92.074036,165.775528 92.918533,164.542664 93.985168,163.071564 
	C94.703278,166.173401 95.199257,169.513474 95.410896,173.076233 
	C94.741364,172.169220 94.356171,171.039505 93.970978,169.909790 
	C93.107887,170.475647 92.244797,171.041504 91.149185,171.395264 
	C91.020950,169.791565 91.125244,168.399979 91.229538,167.008377 
z"/>
<path fill="#040000" opacity="1.000000" stroke="none" 
	d="
M72.916000,172.407944 
	C72.293755,169.218735 71.744888,166.449509 71.018410,163.332367 
	C74.174561,159.711441 73.000397,155.727448 72.507706,151.412598 
	C72.925102,151.968552 73.865112,152.976852 73.864426,153.984528 
	C73.859169,161.733200 73.671333,169.481720 73.336624,177.582870 
	C73.085175,176.232925 73.037270,174.530426 72.916000,172.407944 
z"/>
<path fill="#299FF6" opacity="1.000000" stroke="none" 
	d="
M112.479675,134.881317 
	C112.212776,134.590683 112.430450,134.386856 113.314713,134.085876 
	C118.652092,133.958145 123.343552,133.949615 128.498779,133.953827 
	C134.280045,133.997604 139.597519,134.028641 144.914993,134.059677 
	C144.914993,134.059677 144.937744,134.434937 144.941727,134.622894 
	C134.278336,134.855911 123.610977,134.900986 112.479675,134.881317 
z"/>
<path fill="#0FA5F6" opacity="1.000000" stroke="none" 
	d="
M43.822083,158.778778 
	C44.944637,159.865952 46.082249,160.963608 47.281548,162.453873 
	C47.299202,164.010880 47.255157,165.175262 46.838245,166.556305 
	C45.300514,166.517502 44.135654,166.262039 42.967354,165.549957 
	C42.953476,163.869476 42.943035,162.645584 42.932594,161.421707 
	C42.932594,161.421707 42.828617,161.217316 43.103859,160.890869 
	C43.533268,159.966095 43.687439,159.367783 43.841606,158.769470 
	C43.841606,158.769470 43.837139,158.789246 43.822083,158.778778 
z"/>
<path fill="#00C4F9" opacity="1.000000" stroke="none" 
	d="
M141.100250,161.464111 
	C140.447922,160.628845 139.876831,159.343643 139.073975,157.536850 
	C138.363983,158.719391 137.841324,159.589890 137.123352,160.695984 
	C136.928009,158.120895 136.928009,155.310242 136.928009,151.971512 
	C138.191437,151.911407 139.525452,151.847961 141.181488,151.769180 
	C141.181488,155.132874 141.181488,158.073517 141.100250,161.464111 
z"/>
<path fill="#0E8DEB" opacity="1.000000" stroke="none" 
	d="
M42.970795,166.006561 
	C44.135654,166.262039 45.300514,166.517502 46.800629,166.906494 
	C47.501362,167.947937 47.866840,168.855850 48.363605,170.027664 
	C47.399796,171.288177 46.304707,172.284805 45.106705,173.637497 
	C44.042587,171.880600 43.081383,169.767639 42.295639,167.159546 
	C42.667049,166.467438 42.833611,166.248154 42.970795,166.006561 
z"/>
<path fill="#0C81F1" opacity="1.000000" stroke="none" 
	d="
M171.487274,166.268188 
	C172.934067,166.230408 174.123932,166.470673 175.654678,167.228256 
	C175.942307,168.495514 175.889084,169.245453 175.835846,169.995392 
	C174.594940,170.608276 173.354019,171.221146 171.995193,172.188354 
	C171.661636,170.543854 171.445999,168.545059 171.487274,166.268188 
z"/>
<path fill="#040000" opacity="1.000000" stroke="none" 
	d="
M68.964310,162.603363 
	C68.997650,163.570923 68.840187,164.168793 68.414101,164.924683 
	C67.930763,161.125763 67.716049,157.168793 67.762878,153.117981 
	C68.274124,156.093994 68.523811,159.163834 68.964310,162.603363 
z"/>
<path fill="#040000" opacity="1.000000" stroke="none" 
	d="
M67.676300,168.333969 
	C67.910843,171.014603 67.949486,174.036469 67.948624,177.508728 
	C67.766220,174.864471 67.623314,171.769852 67.676300,168.333969 
z"/>
<path fill="#06070E" opacity="1.000000" stroke="none" 
	d="
M146.413300,151.247192 
	C146.458618,153.051865 146.223312,155.137543 145.937546,157.595428 
	C145.968948,155.821152 146.050797,153.674683 146.413300,151.247192 
z"/>
<path fill="#06070E" opacity="1.000000" stroke="none" 
	d="
M99.295593,135.228653 
	C100.712631,135.014175 102.414810,135.008987 104.539139,135.057281 
	C103.167763,135.219833 101.374245,135.328888 99.295593,135.228653 
z"/>
<path fill="#0ABBF0" opacity="1.000000" stroke="none" 
	d="
M42.967354,165.549957 
	C42.833611,166.248154 42.667049,166.467438 42.315880,166.801483 
	C42.239170,165.314499 42.317684,163.690430 42.664398,161.744034 
	C42.943035,162.645584 42.953476,163.869476 42.967354,165.549957 
z"/>
<path fill="#06070E" opacity="1.000000" stroke="none" 
	d="
M156.325943,135.305420 
	C157.451126,135.035187 158.862503,134.956650 160.701660,134.860565 
	C159.623688,135.061050 158.117905,135.279099 156.325943,135.305420 
z"/>
<path fill="#0ABBF0" opacity="1.000000" stroke="none" 
	d="
M43.568218,158.953186 
	C43.687439,159.367783 43.533268,159.966095 43.190296,160.815536 
	C43.099274,160.423401 43.197052,159.780151 43.568218,158.953186 
z"/>
<path fill="#00C4F9" opacity="1.000000" stroke="none" 
	d="
M98.564331,70.808624 
	C98.664612,70.998055 98.510063,71.286499 98.251472,71.796387 
	C98.184311,71.638588 98.238335,71.268524 98.564331,70.808624 
z"/>
<path fill="#06070E" opacity="1.000000" stroke="none" 
	d="
M145.797714,161.138596 
	C145.860397,161.023102 145.944794,161.499725 145.901550,161.737915 
	C145.678955,161.746719 145.637878,161.506058 145.797714,161.138596 
z"/>
<path fill="#0E8DEB" opacity="1.000000" stroke="none" 
	d="
M49.069359,171.690369 
	C48.843861,171.724670 48.637939,171.455170 48.299637,170.967255 
	C48.474483,170.961411 48.781708,171.173996 49.069359,171.690369 
z"/>
<path fill="#0C81F1" opacity="1.000000" stroke="none" 
	d="
M172.061462,173.238525 
	C172.276962,173.174042 172.382828,173.407166 172.321640,173.815674 
	C172.277344,173.942184 172.074570,173.487228 172.061462,173.238525 
z"/>
<path fill="#40B2FA" opacity="1.000000" stroke="none" 
	d="
M171.058212,94.012466 
	C172.221085,95.507980 173.383957,97.003502 174.752151,98.745033 
	C174.946014,100.342468 174.934570,101.693878 174.626801,103.245682 
	C171.780106,103.408760 169.170929,103.002403 166.689529,103.397835 
	C155.774872,105.137138 144.897095,107.107948 133.783478,108.775627 
	C132.371964,107.704742 131.182922,106.853073 130.118561,105.749977 
	C130.496262,104.997566 130.749298,104.496590 131.403229,103.986931 
	C133.742966,103.528603 135.680557,103.073448 137.620880,102.630310 
	C144.416519,101.078316 151.213135,99.530479 158.267456,97.826508 
	C162.703110,96.452118 166.880661,95.232292 171.058212,94.012466 
z"/>
<path fill="#39A5F7" opacity="1.000000" stroke="none" 
	d="
M134.005951,108.994850 
	C144.897095,107.107948 155.774872,105.137138 166.689529,103.397835 
	C169.170929,103.002403 171.780106,103.408760 174.567383,103.646545 
	C173.529007,107.800774 170.616928,109.528168 166.669830,110.079376 
	C163.075851,110.581261 159.515533,111.324440 155.171112,111.877304 
	C151.978653,111.612671 149.530136,111.123703 147.137955,111.320198 
	C143.075058,111.653908 139.047623,112.419556 134.812683,112.794731 
	C134.077850,112.057533 133.535629,111.529274 133.118225,110.749466 
	C133.497360,109.996902 133.751648,109.495872 134.005951,108.994850 
z"/>
<path fill="#248CF2" opacity="1.000000" stroke="none" 
	d="
M128.035004,133.941101 
	C123.343552,133.949615 118.652092,133.958145 113.498810,133.958405 
	C114.675621,132.659302 116.123100,130.842651 117.984955,130.165741 
	C127.695419,126.635323 137.511230,123.394661 147.704742,120.060120 
	C147.413651,122.435036 146.708221,124.803024 145.703796,127.323769 
	C140.866653,125.388969 130.984467,129.066849 128.035004,133.941101 
z"/>
<path fill="#319CF5" opacity="1.000000" stroke="none" 
	d="
M135.005295,113.003677 
	C139.047623,112.419556 143.075058,111.653908 147.137955,111.320198 
	C149.530136,111.123703 151.978653,111.612671 154.784561,111.972122 
	C153.321396,114.022858 151.475494,115.894821 149.371704,117.970871 
	C143.683914,118.426086 138.253967,118.677216 132.411713,118.589401 
	C131.998291,117.500626 131.997192,116.750809 132.211212,115.784470 
	C133.285980,114.713203 134.145630,113.858444 135.005295,113.003677 
z"/>
<path fill="#1F82EF" opacity="1.000000" stroke="none" 
	d="
M128.498779,133.953827 
	C130.984467,129.066849 140.866653,125.388969 145.659714,127.695297 
	C145.616608,129.704178 145.318573,131.494293 144.967773,133.672043 
	C139.597519,134.028641 134.280045,133.997604 128.498779,133.953827 
z"/>
<path fill="#3ECCFE" opacity="1.000000" stroke="none" 
	d="
M102.879288,105.051743 
	C103.542542,103.918892 104.205788,102.786034 104.935257,101.327446 
	C108.999466,98.399651 112.752907,95.230614 117.070068,93.368538 
	C120.759567,91.777184 125.095970,91.685677 129.936432,90.956650 
	C132.481354,91.719513 134.236115,92.456474 135.919922,93.511826 
	C135.566711,94.884415 135.284439,95.938599 134.726532,97.187836 
	C132.631729,98.586006 130.812546,99.789139 128.575562,100.995773 
	C125.407875,101.507294 122.650703,101.979164 119.909615,102.530891 
	C114.287247,103.662567 108.673492,104.837082 103.024033,105.756134 
	C102.991875,105.518318 102.879288,105.051743 102.879288,105.051743 
z"/>
<path fill="#4AD3FF" opacity="1.000000" stroke="none" 
	d="
M148.014099,76.993340 
	C148.609024,79.411423 149.203934,81.829498 149.553543,84.692886 
	C147.551300,86.085243 145.794373,87.032288 143.951065,87.648544 
	C141.287140,85.391296 138.709595,83.464844 136.132034,81.538391 
	C135.293732,80.638245 134.455444,79.738098 133.887817,78.464966 
	C138.777039,77.725769 143.395569,77.359558 148.014099,76.993340 
z"/>
<path fill="#46DCFF" opacity="1.000000" stroke="none" 
	d="
M148.011902,76.661713 
	C143.395569,77.359558 138.777039,77.725769 133.710098,78.212334 
	C132.692184,77.874268 132.122665,77.415855 131.312485,76.806137 
	C130.604126,76.179970 130.136429,75.705116 129.480927,75.065735 
	C129.273621,74.472656 129.254135,74.044090 129.568909,73.212105 
	C134.348602,71.507614 138.794037,70.206543 143.239487,68.905472 
	C143.922668,69.510773 144.605865,70.116081 145.502823,70.886902 
	C146.284775,72.223083 146.852936,73.393738 147.654251,74.786636 
	C147.928146,75.449287 147.968918,75.889687 148.011902,76.661713 
z"/>
<path fill="#0779EA" opacity="1.000000" stroke="none" 
	d="
M136.040192,81.906357 
	C138.709595,83.464844 141.287140,85.391296 143.772217,87.941437 
	C141.116791,90.107887 138.553833,91.650665 135.990860,93.193436 
	C134.236115,92.456474 132.481354,91.719513 130.370728,90.909393 
	C131.992691,87.982269 133.970520,85.128296 136.040192,81.906357 
z"/>
<path fill="#41E4FF" opacity="1.000000" stroke="none" 
	d="
M143.084747,68.660477 
	C138.794037,70.206543 134.348602,71.507614 129.560760,72.890045 
	C128.681396,72.016968 128.144440,71.062523 127.339249,69.550529 
	C126.755882,68.197449 126.440727,67.401909 126.125580,66.606377 
	C126.094429,65.646645 126.063286,64.686913 125.997833,63.368736 
	C126.280655,62.219723 126.597786,61.429150 126.995712,60.328941 
	C128.171799,60.210392 129.267090,60.401482 130.686554,60.681328 
	C132.707932,61.488506 134.405121,62.206932 136.428040,63.000404 
	C138.289581,64.280273 139.825378,65.485092 141.639313,66.849091 
	C142.254959,67.477341 142.592484,67.946419 143.084747,68.660477 
z"/>
<path fill="#039FF4" opacity="1.000000" stroke="none" 
	d="
M126.028969,66.976830 
	C126.440727,67.401909 126.755882,68.197449 127.121399,69.304527 
	C126.133354,71.045288 125.378304,72.874161 124.012932,73.842209 
	C109.553925,84.093575 95.007156,94.221413 80.453972,104.339294 
	C78.989090,105.357735 77.323540,106.087540 75.395836,106.987534 
	C76.244522,105.003960 76.972420,102.310257 78.727417,101.070457 
	C93.363075,90.731354 108.199646,80.676994 122.933014,70.475212 
	C124.096779,69.669388 124.940109,68.400803 126.028969,66.976830 
z"/>
<path fill="#299FF6" opacity="1.000000" stroke="none" 
	d="
M131.996109,116.000992 
	C131.997192,116.750809 131.998291,117.500626 131.999390,118.625366 
	C125.327591,121.942841 118.639664,124.849701 111.995537,127.853462 
	C110.369492,128.588577 108.886833,129.640854 107.131866,130.841476 
	C106.365356,130.638138 105.805237,130.140625 105.139297,129.023392 
	C105.818863,127.220558 106.349037,125.377724 107.430275,124.959457 
	C115.557838,121.815468 123.793945,118.952103 131.996109,116.000992 
z"/>
<path fill="#37C0FD" opacity="1.000000" stroke="none" 
	d="
M103.056190,105.993958 
	C108.673492,104.837082 114.287247,103.662567 119.909615,102.530891 
	C122.650703,101.979164 125.407875,101.507294 128.711151,101.268402 
	C129.843796,102.356888 130.423065,103.176247 131.002319,103.995605 
	C130.749298,104.496590 130.496262,104.997566 129.732803,105.780365 
	C124.994133,107.442894 120.776848,108.858391 116.534866,110.195549 
	C111.226982,111.868690 105.898811,113.477448 100.579399,115.113998 
	C100.546249,114.933792 100.513107,114.753586 100.485046,114.298553 
	C100.734703,112.370407 100.979271,110.717079 101.263626,108.652969 
	C101.303413,108.242188 101.246559,108.048576 101.392899,107.971214 
	C101.704773,107.597610 101.870316,107.301361 102.035866,107.005119 
	C102.035866,107.005119 101.991180,107.003555 102.193802,106.862526 
	C102.635330,106.496193 102.855255,106.253685 103.056190,105.993958 
z"/>
<path fill="#32B3FB" opacity="1.000000" stroke="none" 
	d="
M100.474098,115.440178 
	C105.898811,113.477448 111.226982,111.868690 116.534866,110.195549 
	C120.776848,108.858391 124.994133,107.442894 129.608139,106.031784 
	C131.182922,106.853073 132.371964,107.704742 133.783478,108.775627 
	C133.751648,109.495872 133.497360,109.996902 132.726257,110.781136 
	C121.859917,115.003616 111.510391,118.942879 101.160866,122.882156 
	C100.896843,120.510223 100.632820,118.138290 100.474098,115.440178 
z"/>
<path fill="#2EA8F9" opacity="1.000000" stroke="none" 
	d="
M101.261902,123.207954 
	C111.510391,118.942879 121.859917,115.003616 132.601410,111.032684 
	C133.535629,111.529274 134.077850,112.057533 134.812683,112.794739 
	C134.145630,113.858444 133.285980,114.713203 132.211212,115.784477 
	C123.793945,118.952103 115.557838,121.815468 107.430275,124.959457 
	C106.349037,125.377724 105.818863,127.220558 104.993301,128.781677 
	C103.756393,127.284378 102.559669,125.409065 101.261902,123.207954 
z"/>
<path fill="#08192F" opacity="1.000000" stroke="none" 
	d="
M199.798065,167.442352 
	C202.449936,161.882019 204.799927,161.583878 208.476974,165.897369 
	C209.231033,166.781967 210.121857,167.550003 211.025360,168.652328 
	C210.556625,169.546219 210.084442,170.249298 209.454483,170.756363 
	C207.444946,172.373932 205.376770,173.918655 203.331253,175.491531 
	C202.149658,172.942886 200.968048,170.394241 199.798065,167.442352 
z"/>
<path fill="#08192F" opacity="1.000000" stroke="none" 
	d="
M126.352081,170.313248 
	C126.524048,167.067657 126.786316,163.546768 130.552368,163.450943 
	C132.392532,163.404099 134.288208,165.539108 136.352539,166.976624 
	C136.604004,167.651077 136.661697,168.035477 136.753265,168.966278 
	C136.804749,169.701141 136.822342,169.889572 136.839920,170.077972 
	C135.092239,171.702347 133.507782,174.291168 131.541519,174.623932 
	C130.149216,174.859558 128.240540,172.043945 126.352081,170.313248 
z"/>
<path fill="#0E9AF7" opacity="1.000000" stroke="none" 
	d="
M136.922577,169.948669 
	C136.822342,169.889572 136.804749,169.701141 136.860992,169.238342 
	C137.117813,169.243958 137.141281,169.529068 136.922577,169.948669 
z"/>
<path fill="#49C8FE" opacity="1.000000" stroke="none" 
	d="
M135.919922,93.511833 
	C138.553833,91.650665 141.116791,90.107887 143.858582,88.272224 
	C145.794373,87.032288 147.551300,86.085243 149.646057,85.063293 
	C151.438690,84.971161 152.893509,84.953934 154.678040,84.888748 
	C161.268188,85.858109 166.881561,88.079567 170.955841,93.684067 
	C166.880661,95.232292 162.703110,96.452118 158.228073,97.456146 
	C157.407837,93.964989 155.276123,94.118553 152.700409,94.530991 
	C146.820358,95.472542 140.903854,96.186417 135.002151,96.992790 
	C135.284439,95.938599 135.566711,94.884415 135.919922,93.511833 
z"/>
<path fill="#08172B" opacity="1.000000" stroke="none" 
	d="
M175.963806,170.321854 
	C175.889084,169.245453 175.942307,168.495514 175.991730,167.369537 
	C177.990646,165.677582 179.871445,163.766479 182.052200,163.319763 
	C183.011292,163.123306 184.580963,165.907440 185.990021,167.694717 
	C186.068253,168.488449 186.029861,168.925705 186.010742,170.013916 
	C186.019897,171.104752 186.009781,171.544647 185.999664,171.984558 
	C183.947327,173.357132 181.894989,174.729706 179.677521,176.212723 
	C178.207306,173.931229 177.149551,172.289780 175.963806,170.321854 
z"/>
<path fill="#0E98F3" opacity="1.000000" stroke="none" 
	d="
M186.146301,171.812454 
	C186.009781,171.544647 186.019897,171.104752 186.079514,170.337982 
	C186.183670,170.554214 186.238312,171.097275 186.146301,171.812454 
z"/>
<path fill="#08172B" opacity="1.000000" stroke="none" 
	d="
M91.101227,166.659027 
	C91.125244,168.399979 91.020950,169.791565 90.907806,171.607910 
	C88.970047,173.373962 87.041138,174.715256 84.535316,176.457718 
	C82.801270,173.126114 81.404037,170.441650 79.960556,167.388733 
	C86.772964,161.661758 87.695374,161.602493 91.101227,166.659027 
z"/>
<path fill="#0779EA" opacity="1.000000" stroke="none" 
	d="
M103.024033,105.756134 
	C102.855255,106.253685 102.635330,106.496193 102.208183,106.879662 
	C102.195564,106.521210 102.371193,106.004593 102.713058,105.269859 
	C102.879288,105.051743 102.991875,105.518318 103.024033,105.756134 
z"/>
<path fill="#0779EA" opacity="1.000000" stroke="none" 
	d="
M101.851242,107.157486 
	C101.870316,107.301361 101.704773,107.597610 101.292213,107.964767 
	C101.224754,107.770119 101.431892,107.528175 101.851242,107.157486 
z"/>
<path fill="#42BDFD" opacity="1.000000" stroke="none" 
	d="
M134.726532,97.187836 
	C140.903854,96.186417 146.820358,95.472542 152.700409,94.530991 
	C155.276123,94.118553 157.407837,93.964989 157.969971,97.610703 
	C151.213135,99.530479 144.416519,101.078316 137.620880,102.630310 
	C135.680557,103.073448 133.742966,103.528603 131.403229,103.986923 
	C130.423065,103.176247 129.843796,102.356888 129.128937,101.264908 
	C130.812546,99.789139 132.631729,98.586006 134.726532,97.187836 
z"/>
</svg>